<svg xmlns="http://www.w3.org/2000/svg" xmlns:xlink="http://www.w3.org/1999/xlink" viewBox="0 0 733.5 181.5"><defs><linearGradient id="a" x1="165.76" y1="16667.87" x2="729.49" y2="16663.78" gradientTransform="translate(0 -16578)" gradientUnits="userSpaceOnUse"><stop offset="0" stop-color="#ef4136"/><stop offset=".16" stop-color="#e13d46"/><stop offset=".49" stop-color="#c33464"/><stop offset=".99" stop-color="#93278d"/><stop offset="1" stop-color="#92278f"/></linearGradient><linearGradient id="b" x1="165.74" y1="16668.68" x2="725" y2="16664.63" xlink:href="#a"/><linearGradient id="c" x1="165.09" y1="16669.18" x2="728.82" y2="16665.09" xlink:href="#a"/><linearGradient id="d" x1="165.72" y1="16669.65" x2="729.45" y2="16665.57" xlink:href="#a"/><linearGradient id="e" x1="165.37" y1="16671.24" x2="729.08" y2="16667.15" xlink:href="#a"/><linearGradient id="f" x1="168.87" y1="16671.1" x2="727.49" y2="16667.05" xlink:href="#a"/><linearGradient id="g" x1="169.1" y1="16671.7" x2="728.36" y2="16667.65" xlink:href="#a"/><linearGradient id="h" x1="-10.66" y1="16762.24" x2="131.15" y2="16570.86" xlink:href="#a"/></defs><title>bventure_logo</title><g data-name="Слой 2"><g data-name="Слой 1"><g data-name="&amp;lt;Группа&amp;gt;"><g data-name="&amp;lt;Группа&amp;gt;"><path data-name="&amp;lt;Контур&amp;gt;" d="M204.8 136.4h-10.4l-35-93.3h10l24.4 67.1c2.2 6.2 4.2 12.3 5.9 18.6 2.1-6.2 3.8-12.5 6-18.5L230 43h9.4z" fill="url(#a)"/><path data-name="&amp;lt;Контур&amp;gt;" d="M312.6 50.7h-55.9v33.7H309v7.5h-52.3v37h56.4v7.6h-65.3V43.2h64.8z" fill="url(#b)"/><path data-name="&amp;lt;Контур&amp;gt;" d="M399.1 136.4h-9.8l-43.5-62.7a152.43 152.43 0 0 1-12.3-19.9c.5 7.5.7 14.8.7 22.3v60.3h-8.7V43.1h9.8l43.7 63.3c4.3 6.3 8.5 12.8 12.2 19.5-.3-8.3-.7-16.4-.7-24.6V43.1h8.5v93.3z" fill="url(#c)"/><path data-name="&amp;lt;Контур&amp;gt;" d="M482.2 50.7h-32.8v85.7h-8.9V50.7h-32.8v-7.6h74.5z" fill="url(#d)"/><path data-name="&amp;lt;Контур&amp;gt;" d="M562.7 101.4c0 24-11.8 37-35.9 37-24.5 0-36.8-12.8-36.8-37.2V43.1h8.9v55.8c0 19.9 5.6 32 28.1 32 22.2 0 26.9-12.8 26.9-32.1V43.1h8.9v58.3z" fill="url(#e)"/><path data-name="&amp;lt;Составной контур&amp;gt;" d="M622.9 43.1c16.5 0 29.1 7.3 29.1 25.2 0 12.2-6.8 20.3-18.2 23.1 11.8 2.1 15.6 8.7 16.4 21.1.3 4.1.3 19.8 4.5 24h-10.1c-2.6-3.3-2.4-15.9-2.7-20.7-1.2-17.6-7.7-21-24.8-21h-27.5v41.7h-8.9V43.2h42.2zm-33.3 44.5H616c13.2 0 27.3-2.2 27.3-18.9 0-14.3-11.1-18.1-23.2-18.1h-30.5z" fill="url(#f)"/><path data-name="&amp;lt;Контур&amp;gt;" d="M733 50.7h-55.9v33.7h52.3v7.5h-52.3v37h56.4v7.6h-65.3V43.2H733z" fill="url(#g)"/></g><path data-name="&amp;lt;Составной контур&amp;gt;" d="M141.9 120.2l-.3-1-19.2-25-.3-.3-14.4-9 16-13.8.5-.9 5.6-35.9-.2-1-8.9-16.3-.2-.2-16.2-13.2A3.9 3.9 0 0 0 97.8 1H2l.4 171.1a5.18 5.18 0 0 0-2.4 4.3 5.12 5.12 0 0 0 5.1 5.1 4.9 4.9 0 0 0 4.5-2.8l95.6-.4 1.1-.6.6-.9 28-24.5 1.3-.3-.1-.7.7.1.1-.9.3-.1-.2-.6zm-2.8-.1l-9.4-6.8v-.2a4 4 0 0 0-3.1-3.9l-2.2-8.3zm-24.6 33.5l-63 12.5-31.1-5.2-.5-64.6h81.5l20.6 14.8a4.66 4.66 0 0 0-.6 2 3.9 3.9 0 0 0 2.2 3.5l-5.8 34.4a4.36 4.36 0 0 0-3.3 2.6zM5.9 171.3l11.6-71.2.4 60.9-.1-.1-10.6 10.8a2.2 2.2 0 0 0-1.3-.4zm3.4 1.9l9.7-10 25.4 4.3-34.5 6.9a6.72 6.72 0 0 0-.6-1.2zM100.1 7.9l4.8 27.2L80.3 8.3l16.2-4a3.87 3.87 0 0 0 3.6 3.6zm-18.8 5l-40.8 5.2L77.2 9zm2.5 2.3l22.6 24.9 5.3 10.6L92.1 76l-21.7 7.4H20.5V28.3a3.93 3.93 0 0 0 3.5-4 3.19 3.19 0 0 0-.3-1.4zm25.5 24.9l15.4-3.8-11.1 12.3zM25.8 85.9h37.1l-19.5 6.6zm13.3 7.8H20l-.1-7.2zm31.8-7.8h18.5l-36.2 6zm7.6-2.6l14.2-4.8 7.7 4.8zm42.5 65.6l5.2-30.9 4.1 15.6zm7.3-32.8l.3-.3 8.7 6.3-5.2 8.5zm-4.5-7L106 96.3h14.4zm-6.9-15.4H58.4l46.2-7.7zm-11.6-10.3l-9.1-5.7 20.9-5.1zM96.5 75L113 53.1l8.1 16zm25.8-9.2l-7.5-14.7 11.8-12.9zm4-32.5l-18 4.4L102.8 7a4.62 4.62 0 0 0 .7-.7l15.2 12.4zM89.6 3.2L78 6.1l-3-2.9zM75 6.8L37.9 16 71.6 3.5zm-9.9-3.6L19.4 20.1 6.3 3.2zM17.2 21.4a3.94 3.94 0 0 0 .7 6.2v45.6L5.9 6.9zm.1 63.2L5 160.5 4.6 14.2zm-2.4 91.5l36.7-7.4 41.5 7zM105 175l-46.2-7.7 55.7-11.1a3.36 3.36 0 0 0 1 1.6zm6.5-5.7l6.3-10.3h.5a4 4 0 0 0 4-4v-.3l7.6-1.5zm22.8-19.7l-.2-.2-.3.3L122 152l9.2-15 3.3 12.5zm1.3-6.1l-2.5-9.4 5.4-8.9z" fill="url(#h)"/></g></g></g></svg>