<svg id="Слой_1" xmlns="http://www.w3.org/2000/svg" viewBox="0 0 14.9 14.9"><style>.st0{fill:#f34f30}</style><path id="Event" class="st0" d="M12.8 5.3v7.5H2.1V5.3h10.7zm-1.1 6.4V9.6H9.6v2.1h2.1zm0-3.2V6.4H9.6v2.1h2.1zm-3.2 3.2V9.6H6.4v2.1h2.1zm0-3.2V6.4H6.4v2.1h2.1zm-3.2 3.2V9.6H3.2v2.1h2.1zm0-3.2V6.4H3.2v2.1h2.1zm-.7-6.2V.6C4.6.3 4.3 0 4 0s-.6.3-.6.6v1.7c0 .3.3.6.6.6s.6-.3.6-.6zm8.7 11.6H1.6c-.3 0-.6-.3-.6-.6v-9h12.8v9c.1.3-.2.6-.5.6zM12.1 1.1v1.2c0 .6-.5 1.2-1.2 1.2-.6 0-1.1-.5-1.1-1.2V1.1H5.2v1.2c0 .6-.5 1.1-1.2 1.1-.6 0-1.1-.5-1.1-1.1V1.1H1.7C.8 1.1 0 1.8 0 2.8v10.4c0 .9.8 1.7 1.7 1.7h11.5c.9 0 1.7-.8 1.7-1.7V2.8c0-.9-.8-1.7-1.7-1.7h-1.1zm-.6 1.2V.6c0-.3-.3-.6-.6-.6s-.6.3-.6.6v1.7c0 .3.3.6.6.6s.6-.3.6-.6z"/></svg>