<svg xmlns="http://www.w3.org/2000/svg" viewBox="0 0 14.93 14.93"><defs><style>.cls-1{fill:#f34f30}</style></defs><g id="Layer_2" data-name="Layer 2"><path class="cls-1" d="M12.81 5.33v7.47H2.13V5.33zm-1.07 6.4V9.6H9.6v2.13zm0-3.2V6.4H9.6v2.13zm-3.2 3.2V9.6H6.4v2.13zm0-3.2V6.4H6.4v2.13zm-3.2 3.2V9.6H3.2v2.13zm0-3.2V6.4H3.2v2.13zM4.59 2.3V.57a.57.57 0 1 0-1.15 0V2.3a.57.57 0 0 0 1.15 0zm8.69 11.56H1.64a.58.58 0 0 1-.57-.57v-9h12.8v9a.58.58 0 0 1-.58.57zM12.06 1.07V2.3a1.15 1.15 0 0 1-2.3 0V1.07h-4.6V2.3a1.15 1.15 0 0 1-2.3 0V1.07H1.72A1.72 1.72 0 0 0 0 2.79v10.42a1.72 1.72 0 0 0 1.72 1.72h11.49a1.72 1.72 0 0 0 1.72-1.72V2.79a1.72 1.72 0 0 0-1.72-1.72zm-.57 1.23V.57a.57.57 0 1 0-1.15 0V2.3a.57.57 0 0 0 1.15 0z" id="Event"/></g></svg>