<svg xmlns="http://www.w3.org/2000/svg" viewBox="0 0 1280 3009.07"><defs><style>.cls-1,.cls-2,.cls-3{fill:#f34f30}.cls-1{clip-rule:evenodd}.cls-3{fill-rule:evenodd}.cls-4{clip-path:url(#clip-path)}.cls-5{clip-path:url(#clip-path-2)}.cls-6{clip-path:url(#clip-path-3)}</style><clipPath id="clip-path"><path class="cls-1" d="M209.89 670.61a.58.58 0 0 1-.57-.57v-1.72a.57.57 0 1 1 1.15 0V670a.58.58 0 0 1-.58.61z"/></clipPath><clipPath id="clip-path-2"><path class="cls-1" d="M219.16 681.59h-11.65a.58.58 0 0 1-.57-.57v-9h12.8v9a.58.58 0 0 1-.58.57zm-1.23-12.79v1.2a1.15 1.15 0 0 1-2.3 0v-1.2H211v1.2a1.15 1.15 0 0 1-2.3 0v-1.2h-1.14a1.72 1.72 0 0 0-1.72 1.72v10.42a1.72 1.72 0 0 0 1.72 1.72h11.48a1.72 1.72 0 0 0 1.72-1.72v-10.42a1.72 1.72 0 0 0-1.72-1.72z"/></clipPath><clipPath id="clip-path-3"><path class="cls-1" d="M216.78 670.61a.58.58 0 0 1-.57-.57v-1.72a.57.57 0 1 1 1.15 0V670a.58.58 0 0 1-.58.61z"/></clipPath></defs><title>calendar_1</title><g id="Слой_2" data-name="Слой 2"><g id="Event"><g id="infoBlock"><g id="Date"><path class="cls-2" d="M218.68 673.07v7.47H208v-7.47zm-1.07 6.4v-2.13h-2.14v2.13zm0-3.2v-2.13h-2.14v2.13zm-3.2 3.2v-2.13h-2.14v2.13zm0-3.2v-2.13h-2.14v2.13zm-3.2 3.2v-2.13h-2.14v2.13zm0-3.2v-2.13h-2.14v2.13z"/><path class="cls-3" d="M209.89 670.61a.58.58 0 0 1-.57-.57v-1.72a.57.57 0 1 1 1.15 0V670a.58.58 0 0 1-.58.61z"/><path class="cls-4 cls-2" d="M0 0h1280v3009.07H0z"/><path class="cls-3" d="M219.16 681.59h-11.65a.58.58 0 0 1-.57-.57v-9h12.8v9a.58.58 0 0 1-.58.57zm-1.23-12.79v1.2a1.15 1.15 0 0 1-2.3 0v-1.2H211v1.2a1.15 1.15 0 0 1-2.3 0v-1.2h-1.14a1.72 1.72 0 0 0-1.72 1.72v10.42a1.72 1.72 0 0 0 1.72 1.72h11.48a1.72 1.72 0 0 0 1.72-1.72v-10.42a1.72 1.72 0 0 0-1.72-1.72z"/><path class="cls-3" d="M216.78 670.61a.58.58 0 0 1-.57-.57v-1.72a.57.57 0 1 1 1.15 0V670a.58.58 0 0 1-.58.61z"/><path class="cls-6 cls-2" d="M0 0h1280v3009.07H0z"/></g></g></g></g></svg>