<svg xmlns="http://www.w3.org/2000/svg" viewBox="0 0 43.93 43.93"><title>edu_icon4</title><path d="M16.48 22H9.61a1.37 1.37 0 1 1 0-2.75h6.86a1.37 1.37 0 0 1 0 2.75zM22 27.46H9.61a1.37 1.37 0 1 1 0-2.75H22a1.37 1.37 0 1 1 0 2.75zM22 33H9.61a1.37 1.37 0 1 1 0-2.75H22A1.37 1.37 0 1 1 22 33z" fill="#fff"/><path d="M37.07 43.93H6.86A6.87 6.87 0 0 1 0 37.07V13.73a6.87 6.87 0 0 1 6.86-6.87h16.48a1.37 1.37 0 1 1 0 2.75H6.86a4.12 4.12 0 0 0-4.12 4.12v23.34a4.12 4.12 0 0 0 4.12 4.12h30.21a4.12 4.12 0 0 0 4.12-4.12V13.73a4.12 4.12 0 0 0-4.12-4.12 1.37 1.37 0 0 1 0-2.75 6.87 6.87 0 0 1 6.86 6.86v23.35a6.87 6.87 0 0 1-6.86 6.86z" fill="#fff"/><path d="M30.37 33A1.37 1.37 0 0 1 29 31.58v-2.75a1.37 1.37 0 1 1 2.75 0v2.75A1.37 1.37 0 0 1 30.37 33z" fill="#fff"/><path d="M31.12 30.21h-1.37a1.83 1.83 0 0 1-1.83-1.83v-.19l-.61-1.49-1-1.74a1.37 1.37 0 0 1-.19-.7V4.12a4.12 4.12 0 0 1 8.24 0v20.14a1.37 1.37 0 0 1-.1.52l-.75 1.83-.51 1.53v.23a1.83 1.83 0 0 1-1.88 1.84zm-2.29-6.32l.89 1.51a1.26 1.26 0 0 1 .09.17l.61 1.49.48-1.41.68-1.65V4.12a1.37 1.37 0 1 0-2.75 0z" fill="#fff"/></svg>