<svg xmlns="http://www.w3.org/2000/svg" viewBox="0 0 35.7 43.93"><title>edu_icon3</title><path d="M31.58 38.84H4.12A4.12 4.12 0 0 1 0 34.72V4.12A4.12 4.12 0 0 1 4.12 0h27.46a4.12 4.12 0 0 1 4.12 4.12v30.6a4.12 4.12 0 0 1-4.12 4.12zM4.12 2.75a1.37 1.37 0 0 0-1.37 1.37v30.6a1.37 1.37 0 0 0 1.37 1.38h27.46A1.37 1.37 0 0 0 33 34.72V4.12a1.37 1.37 0 0 0-1.37-1.37z" fill="#fff"/><path d="M6.86 38.84a1.37 1.37 0 0 1-1.37-1.37V1.37a1.37 1.37 0 0 1 2.75 0v36.1a1.37 1.37 0 0 1-1.38 1.37z" fill="#fff"/><path d="M34.32 43.93H5.49A5.5 5.5 0 0 1 0 38.44v-5.15a1.37 1.37 0 1 1 2.75 0v5.15a2.75 2.75 0 0 0 2.75 2.75h28.82a1.37 1.37 0 1 1 0 2.75z" fill="#fff"/></svg>