<svg xmlns="http://www.w3.org/2000/svg" viewBox="0 0 43.93 43.93"><title>edu_icon2</title><g opacity=".7" fill="#fff"><path d="M37.08 32.82H6.86A6.79 6.79 0 0 1 0 26.12V9.44a6.79 6.79 0 0 1 6.86-6.71h30.22a6.79 6.79 0 0 1 6.86 6.71v16.68a6.79 6.79 0 0 1-6.86 6.7zM6.86 5.48a4 4 0 0 0-4.11 4v16.64a4 4 0 0 0 4.11 4h30.22a4 4 0 0 0 4.11-4V9.44a4.09 4.09 0 0 0-4.11-4z"/><path d="M21.79 41.16a1.37 1.37 0 0 1-1.37-1.37v-7.46a1.37 1.37 0 1 1 2.75 0v7.46a1.37 1.37 0 0 1-1.38 1.37zM22 5.37A1.37 1.37 0 0 1 20.59 4V1.37a1.37 1.37 0 1 1 2.75 0V4A1.37 1.37 0 0 1 22 5.37z"/><path d="M29 43.93a1.37 1.37 0 0 1-1-.4l-7.25-7.19a1.37 1.37 0 0 1 1.93-2L30 41.59a1.37 1.37 0 0 1-1 2.35z"/><path d="M14.46 43.93a1.37 1.37 0 0 1-1-2.35l7.25-7.19a1.37 1.37 0 0 1 1.93 2l-7.25 7.19a1.37 1.37 0 0 1-.93.35zM9.61 26.16a1.37 1.37 0 0 1-1-2.27L17 14.14a1.37 1.37 0 0 1 2-.14l7 6 7.32-8.58a1.37 1.37 0 1 1 2.09 1.78l-8.22 9.63a1.37 1.37 0 0 1-1.94.15l-7-6-7.56 8.72a1.37 1.37 0 0 1-1.08.46z"/></g></svg>