<svg xmlns="http://www.w3.org/2000/svg" viewBox="0 0 16 13.1"><title>info_twitter</title><path d="M0 11.61a6.71 6.71 0 0 0 4.78-1.36 3.41 3.41 0 0 1-3.05-2.31h1.38v-.08A3.36 3.36 0 0 1 1.3 6.7a3.25 3.25 0 0 1-.72-2.09A3 3 0 0 0 2 5 3.39 3.39 0 0 1 .68 3 3.27 3.27 0 0 1 1.05.61a9.49 9.49 0 0 0 6.79 3.44c0-.2 0-.38-.05-.55A3.31 3.31 0 0 1 13.38.92a.26.26 0 0 0 .3.07l1.6-.59.25-.12A3.06 3.06 0 0 1 14.3 2v.06c.27-.06.55-.11.82-.19a8.48 8.48 0 0 1 .88-.24c-.23.28-.44.56-.69.82s-.52.46-.78.7a.41.41 0 0 0-.12.26A9.69 9.69 0 0 1 13.8 7a9.56 9.56 0 0 1-2.27 3.52 8.8 8.8 0 0 1-4.33 2.33 9.43 9.43 0 0 1-5.46-.35c-.6-.22-1.16-.5-1.74-.8z" fill="#fff"/></svg>