<svg xmlns="http://www.w3.org/2000/svg" viewBox="0 0 16 16"><title>info_fb</title><path d="M16 8v7a.89.89 0 0 1-.31.74.68.68 0 0 1-.48.18h-3.15c-.33 0-.34 0-.34-.36v-5.54c0-.46 0-.5.52-.5h1.55c.31 0 .31 0 .33-.33 0-.54.07-1.09.08-1.63 0-.32 0-.32-.32-.33h-1.73c-.42 0-.43 0-.43-.41V5.4a.83.83 0 0 1 .93-.93h1.11c.35 0 .35 0 .36-.34s.07-.94.08-1.41 0-.36-.35-.37a16.09 16.09 0 0 0-1.82 0 2.75 2.75 0 0 0-2.69 2.87v1.73c0 .34 0 .34-.35.35H7.92c-.18 0-.27.06-.27.26v1.77c0 .19.08.26.26.26h1c.44 0 .45 0 .45.43v5.58c0 .37 0 .38-.37.38C6.28 16 3.59 16 .9 16a.94.94 0 0 1-.9-.9V1.22a3.33 3.33 0 0 1 0-.35A.89.89 0 0 1 .86 0a2.57 2.57 0 0 1 .31 0h14a.83.83 0 0 1 .83.88V8z" fill="#fff"/></svg>