<svg xmlns="http://www.w3.org/2000/svg" viewBox="0 0 16 16"><title>info_insta</title><path d="M8 12.43A4.43 4.43 0 1 1 12.43 8 4.43 4.43 0 0 1 8 12.43m0-7.61A3.18 3.18 0 1 0 11.18 8 3.18 3.18 0 0 0 8 4.82m5.29-1.16a.83.83 0 1 0-.83.83.83.83 0 0 0 .83-.83" fill="#fff"/><path d="M11.54 16H4.46A4.47 4.47 0 0 1 0 11.54V4.46A4.47 4.47 0 0 1 4.46 0h7.08A4.47 4.47 0 0 1 16 4.46v7.08A4.47 4.47 0 0 1 11.54 16M4.46 1.25a3.22 3.22 0 0 0-3.21 3.21v7.08a3.22 3.22 0 0 0 3.21 3.21h7.08a3.22 3.22 0 0 0 3.21-3.21V4.46a3.22 3.22 0 0 0-3.21-3.21z" fill="#fff"/></svg>