<svg xmlns="http://www.w3.org/2000/svg" viewBox="0 0 60 60"><defs><style>.cls-1{fill:none;stroke:#fff;stroke-miterlimit:10;stroke-width:4px}.cls-2{fill:#fff}</style></defs><title>insta</title><g id="Слой_2" data-name="Слой 2"><g id="Home"><g id="SocialBtnsBlock"><g id="InstagrammBtn"><circle cx="30" cy="30" r="28" class="cls-1"/><path d="M30 38.2a8.2 8.2 0 1 1 8.2-8.2 8.21 8.21 0 0 1-8.2 8.2m0-14.09A5.89 5.89 0 1 0 35.89 30 5.89 5.89 0 0 0 30 24.11m6.55 20.7h-13.1a8.27 8.27 0 0 1-8.26-8.26v-13.1a8.27 8.27 0 0 1 8.26-8.26h13.1a8.27 8.27 0 0 1 8.26 8.26v13.1a8.27 8.27 0 0 1-8.26 8.26M23.45 17.5a6 6 0 0 0-5.95 5.95v13.1a6 6 0 0 0 5.95 5.95h13.1a6 6 0 0 0 5.95-5.95v-13.1a6 6 0 0 0-5.95-5.95zM39.8 22a1.54 1.54 0 1 0-1.54 1.54A1.54 1.54 0 0 0 39.8 22" class="cls-2"/></g></g></g></g></svg>