<svg xmlns="http://www.w3.org/2000/svg" viewBox="0 0 32.95 43.93"><defs><style>.cls-1{fill:#f0512f}</style></defs><title>man</title><g id="Слой_2" data-name="Слой 2"><g id="Home"><g id="BlockOffer"><g id="Hover_InfoBlock"><path class="cls-1" d="M16.48 24.71a9 9 0 0 1-9-8.92V8.92a9 9 0 0 1 17.92 0v6.86a9 9 0 0 1-8.92 8.93zm0-22a6.24 6.24 0 0 0-6.29 6.18v6.86a6.29 6.29 0 0 0 12.58 0V8.92a6.24 6.24 0 0 0-6.29-6.17zm10.67 41.22H5.8a5.68 5.68 0 0 1-4.51-2.08 6 6 0 0 1-1.18-4.94l1.71-9.7a1.34 1.34 0 0 1 1.55-1.11 1.37 1.37 0 0 1 1.07 1.6l-1.71 9.7a3.29 3.29 0 0 0 .61 2.69 3.09 3.09 0 0 0 2.46 1.1h21.35a3.09 3.09 0 0 0 2.47-1.09 3.29 3.29 0 0 0 .61-2.69L28.5 27.7a1.37 1.37 0 0 1 1.07-1.6 1.34 1.34 0 0 1 1.55 1.11l1.71 9.7a6 6 0 0 1-1.18 4.94 5.68 5.68 0 0 1-4.5 2.08z"/><path class="cls-1" d="M3.14 28.83a1.33 1.33 0 0 1-1.2-.76 1.39 1.39 0 0 1 .6-1.84l9.24-4.74a1.31 1.31 0 0 1 1.79.62A1.39 1.39 0 0 1 13 24l-9.27 4.69a1.3 1.3 0 0 1-.59.14zm26.59 0a1.3 1.3 0 0 1-.59-.14L19.9 24a1.39 1.39 0 0 1-.6-1.84 1.31 1.31 0 0 1 1.79-.62l9.24 4.74a1.39 1.39 0 0 1 .6 1.84 1.33 1.33 0 0 1-1.2.71z"/></g></g></g></g></svg>