<svg xmlns="http://www.w3.org/2000/svg" viewBox="0 0 35 23.92"><defs><style>.cls-1{fill:none;stroke:#433e3d;stroke-linecap:round;stroke-linejoin:round;stroke-width:2px}</style></defs><title>people</title><g id="Слой_2" data-name="Слой 2"><path class="cls-1" d="M25 22.92c0-6.21-4.45-7.79-5.81-8.12a.1.1 0 0 1 0-.19 5.16 5.16 0 0 0 3.63-4.86 5.25 5.25 0 0 0-5.32-5.12 5.25 5.25 0 0 0-5.37 5.13 5.16 5.16 0 0 0 3.63 4.86.1.1 0 0 1 0 .19c-1.36.33-5.76 1.91-5.76 8.11m24-3.62c0-6.21-4.45-7.79-5.81-8.12a.1.1 0 0 1 0-.19 5.16 5.16 0 0 0 3.63-4.86A5.25 5.25 0 0 0 26.45 1a5.48 5.48 0 0 0-3.79 1.5M1 19.3c0-6.21 4.45-7.79 5.81-8.12a.1.1 0 0 0 0-.19 5.16 5.16 0 0 1-3.63-4.86A5.25 5.25 0 0 1 8.55 1a5.48 5.48 0 0 1 3.79 1.5" id="Home"/></g></svg>