<svg id="Слой_1" xmlns="http://www.w3.org/2000/svg" viewBox="0 0 16.4 16.4"><style>.st0{fill:#f34f30}</style><path id="Event" class="st0" d="M10.2 4.1l-.7.8-.8-.8.8-.8.7.8zm.7.7l-.8.8.8.8.8-.8-.8-.8zm.7 2.2l.8.8.7-.8-.8-.8-.7.8zm4.8-1.3c0 .3-.1.6-.4.7L6.4 16c-.4.4-1.1.4-1.6 0l-1.3-1.3.3-.4c.2-.2.3-.5.3-.8 0-.7-.6-1.3-1.3-1.3-.3 0-.6.1-.9.3l-.4.3-1.3-1.3c-.4-.4-.4-1.1 0-1.6L10 .3c.4-.4 1.1-.4 1.6 0l1.3 1.3-.3.4c-.2.2-.3.5-.3.8 0 .7.6 1.3 1.3 1.3.3 0 .6-.1.8-.3l.4-.3 1.3 1.3c.2.3.3.6.3.9zm-1.1 0c-.2-.3-.4-.5-.7-.8-.3.2-.7.3-1.1.3-1.3 0-2.3-1.1-2.3-2.3 0-.4.1-.7.3-1.1l-.7-.7L1 10.7l.7.8c.3-.2.7-.3 1.1-.3 1.3 0 2.3 1.1 2.3 2.3 0 .4-.1.8-.3 1.1l.7.7 9.8-9.6z"/></svg>