<svg xmlns="http://www.w3.org/2000/svg" viewBox="0 0 16.4 16.4"><defs><style>.cls-1{fill:#f34f30}</style></defs><g id="Layer_2" data-name="Layer 2"><path class="cls-1" d="M10.23 4.12l-.77.76-.77-.76.77-.76zm.68.68l-.77.76.77.76.77-.76zm.67 2.2l.77.76.77-.76-.76-.76zm4.82-1.3a1 1 0 0 1-.37.74l-9.6 9.63a1.11 1.11 0 0 1-1.57 0l-1.34-1.34.33-.37a1.23 1.23 0 0 0 .31-.84 1.31 1.31 0 0 0-1.3-1.31 1.4 1.4 0 0 0-.86.34l-.36.29-1.32-1.32a1.13 1.13 0 0 1 0-1.57L10 .32a1.12 1.12 0 0 1 1.57 0l1.32 1.32-.32.36a1.29 1.29 0 0 0-.3.83 1.31 1.31 0 0 0 1.3 1.31 1.28 1.28 0 0 0 .83-.3l.36-.29 1.32 1.33a1.09 1.09 0 0 1 .32.82zm-1.08 0a4.52 4.52 0 0 0-.66-.76 2.28 2.28 0 0 1-1.08.27 2.35 2.35 0 0 1-2.34-2.35 2.91 2.91 0 0 1 .28-1.08l-.7-.71-9.77 9.62.69.79a2.31 2.31 0 0 1 1.11-.3 2.35 2.35 0 0 1 2.35 2.35 2.31 2.31 0 0 1-.29 1.13l.68.69z" id="Event"/></g></svg>