<svg xmlns="http://www.w3.org/2000/svg" viewBox="0 0 60 60"><defs><style>.cls-1{fill:#fff;fill-rule:evenodd}.cls-2{fill:none;stroke:#fff;stroke-miterlimit:10;stroke-width:4px}</style></defs><title>tw</title><g id="Слой_2" data-name="Слой 2"><g id="Home"><g id="SocialBtnsBlock"><g id="TweetBtn"><path d="M46.47 21.38a10.91 10.91 0 0 1-3.46 1A6.71 6.71 0 0 0 45.73 19a11 11 0 0 1-3.83 1.5 6.39 6.39 0 0 0-4.57-2 6.14 6.14 0 0 0-6.05 6.21 4.87 4.87 0 0 0 .12 1.39 16.76 16.76 0 0 1-12.48-6.46 5.55 5.55 0 0 0-.86 3.17A6.41 6.41 0 0 0 20.78 28a8.59 8.59 0 0 1-2.72-.76v.13a6.11 6.11 0 0 0 4.82 6.08 6.12 6.12 0 0 1-1.61.25 3.34 3.34 0 0 1-1.11-.13 5.88 5.88 0 0 0 5.68 4.31 12.16 12.16 0 0 1-7.54 2.66 5.87 5.87 0 0 1-1.48-.13 17 17 0 0 0 9.26 2.79c11.24 0 17.29-9.5 17.29-17.74v-.76a12.91 12.91 0 0 0 3.09-3.29" class="cls-1"/><circle cx="30" cy="30" r="28" class="cls-2"/></g></g></g></g></svg>