<svg xmlns="http://www.w3.org/2000/svg" xmlns:xlink="http://www.w3.org/1999/xlink" viewBox="0 0 733.5 181.5"><defs><linearGradient id="Безымянный_градиент_8" x1="165.76" y1="16667.87" x2="729.49" y2="16663.78" gradientTransform="translate(0 -16578)" gradientUnits="userSpaceOnUse"><stop offset="0" stop-color="#ef4136"/><stop offset="0.16" stop-color="#e13d46"/><stop offset="0.49" stop-color="#c33464"/><stop offset="0.99" stop-color="#93278d"/><stop offset="1" stop-color="#92278f"/></linearGradient><linearGradient id="Безымянный_градиент_8-2" x1="165.74" y1="16668.68" x2="725" y2="16664.63" xlink:href="#Безымянный_градиент_8"/><linearGradient id="Безымянный_градиент_8-3" x1="165.09" y1="16669.18" x2="728.82" y2="16665.09" xlink:href="#Безымянный_градиент_8"/><linearGradient id="Безымянный_градиент_8-4" x1="165.72" y1="16669.65" x2="729.45" y2="16665.57" xlink:href="#Безымянный_градиент_8"/><linearGradient id="Безымянный_градиент_8-5" x1="165.37" y1="16671.24" x2="729.08" y2="16667.15" xlink:href="#Безымянный_градиент_8"/><linearGradient id="Безымянный_градиент_8-6" x1="168.87" y1="16671.1" x2="727.49" y2="16667.05" xlink:href="#Безымянный_градиент_8"/><linearGradient id="Безымянный_градиент_8-7" x1="169.1" y1="16671.7" x2="728.36" y2="16667.65" xlink:href="#Безымянный_градиент_8"/><linearGradient id="Безымянный_градиент_8-8" x1="-10.66" y1="16762.24" x2="131.15" y2="16570.86" xlink:href="#Безымянный_градиент_8"/></defs><title>bventure_logo</title><g id="Слой_2" data-name="Слой 2"><g id="Слой_1-2" data-name="Слой 1"><g id="_Группа_" data-name="&lt;Группа&gt;"><g id="_Группа_2" data-name="&lt;Группа&gt;"><path id="_Контур_" data-name="&lt;Контур&gt;" d="M204.8,136.4H194.4l-35-93.3h10l24.4,67.1c2.2,6.2,4.2,12.3,5.9,18.6,2.1-6.2,3.8-12.5,6-18.5L230,43h9.4Z" fill="url(#Безымянный_градиент_8)"/><path id="_Контур_2" data-name="&lt;Контур&gt;" d="M312.6,50.7H256.7V84.4H309v7.5H256.7v37h56.4v7.6H247.8V43.2h64.8Z" fill="url(#Безымянный_градиент_8-2)"/><path id="_Контур_3" data-name="&lt;Контур&gt;" d="M399.1,136.4h-9.8L345.8,73.7a152.43,152.43,0,0,1-12.3-19.9c.5,7.5.7,14.8.7,22.3v60.3h-8.7V43.1h9.8L379,106.4c4.3,6.3,8.5,12.8,12.2,19.5-.3-8.3-.7-16.4-.7-24.6V43.1H399v93.3Z" fill="url(#Безымянный_градиент_8-3)"/><path id="_Контур_4" data-name="&lt;Контур&gt;" d="M482.2,50.7H449.4v85.7h-8.9V50.7H407.7V43.1h74.5Z" fill="url(#Безымянный_градиент_8-4)"/><path id="_Контур_5" data-name="&lt;Контур&gt;" d="M562.7,101.4c0,24-11.8,37-35.9,37-24.5,0-36.8-12.8-36.8-37.2V43.1h8.9V98.9c0,19.9,5.6,32,28.1,32,22.2,0,26.9-12.8,26.9-32.1V43.1h8.9v58.3Z" fill="url(#Безымянный_градиент_8-5)"/><path id="_Составной_контур_" data-name="&lt;Составной контур&gt;" d="M622.9,43.1c16.5,0,29.1,7.3,29.1,25.2,0,12.2-6.8,20.3-18.2,23.1,11.8,2.1,15.6,8.7,16.4,21.1.3,4.1.3,19.8,4.5,24H644.6c-2.6-3.3-2.4-15.9-2.7-20.7-1.2-17.6-7.7-21-24.8-21H589.6v41.7h-8.9V43.2h42.2ZM589.6,87.6H616c13.2,0,27.3-2.2,27.3-18.9,0-14.3-11.1-18.1-23.2-18.1H589.6Z" fill="url(#Безымянный_градиент_8-6)"/><path id="_Контур_6" data-name="&lt;Контур&gt;" d="M733,50.7H677.1V84.4h52.3v7.5H677.1v37h56.4v7.6H668.2V43.2H733Z" fill="url(#Безымянный_градиент_8-7)"/></g><path id="_Составной_контур_2" data-name="&lt;Составной контур&gt;" d="M141.9,120.2l-.3-1-19.2-25-.3-.3-14.4-9,16-13.8.5-.9,5.6-35.9-.2-1L120.7,17l-.2-.2L104.3,3.6A3.9,3.9,0,0,0,97.8,1H2l.4,171.1A5.18,5.18,0,0,0,0,176.4a5.12,5.12,0,0,0,5.1,5.1,4.9,4.9,0,0,0,4.5-2.8l95.6-.4,1.1-.6.6-.9,28-24.5,1.3-.3-.1-.7.7.1.1-.9.3-.1-.2-.6Zm-2.8-.1-9.4-6.8v-.2a4,4,0,0,0-3.1-3.9l-2.2-8.3Zm-24.6,33.5-63,12.5-31.1-5.2-.5-64.6h81.5L122,111.1a4.66,4.66,0,0,0-.6,2,3.9,3.9,0,0,0,2.2,3.5L117.8,151A4.36,4.36,0,0,0,114.5,153.6ZM5.9,171.3l11.6-71.2.4,60.9-.1-.1L7.2,171.7A2.2,2.2,0,0,0,5.9,171.3Zm3.4,1.9,9.7-10,25.4,4.3L9.9,174.4A6.72,6.72,0,0,0,9.3,173.2ZM100.1,7.9l4.8,27.2L80.3,8.3l16.2-4A3.87,3.87,0,0,0,100.1,7.9Zm-18.8,5L40.5,18.1,77.2,9Zm2.5,2.3,22.6,24.9,5.3,10.6L92.1,76,70.4,83.4H20.5V28.3a3.93,3.93,0,0,0,3.5-4,3.19,3.19,0,0,0-.3-1.4Zm25.5,24.9,15.4-3.8L113.6,48.6ZM25.8,85.9H62.9L43.4,92.5Zm13.3,7.8H20l-.1-7.2Zm31.8-7.8H89.4l-36.2,6Zm7.6-2.6,14.2-4.8,7.7,4.8ZM121,148.9l5.2-30.9,4.1,15.6Zm7.3-32.8.3-.3,8.7,6.3-5.2,8.5Zm-4.5-7L106,96.3h14.4Zm-6.9-15.4H58.4L104.6,86ZM105.3,83.4l-9.1-5.7,20.9-5.1ZM96.5,75,113,53.1l8.1,16Zm25.8-9.2-7.5-14.7,11.8-12.9Zm4-32.5-18,4.4L102.8,7a4.62,4.62,0,0,0,.7-.7l15.2,12.4ZM89.6,3.2,78,6.1,75,3.2ZM75,6.8,37.9,16,71.6,3.5ZM65.1,3.2,19.4,20.1,6.3,3.2ZM17.2,21.4a3.94,3.94,0,0,0,.7,6.2V73.2L5.9,6.9Zm.1,63.2L5,160.5,4.6,14.2Zm-2.4,91.5,36.7-7.4,41.5,7ZM105,175h0l-46.2-7.7,55.7-11.1a3.36,3.36,0,0,0,1,1.6Zm6.5-5.7,6.3-10.3h.5a4,4,0,0,0,4-4v-.3l7.6-1.5Zm22.8-19.7-.2-.2-.3.3L122,152l9.2-15,3.3,12.5Zm1.3-6.1-2.5-9.4,5.4-8.9Z" fill="url(#Безымянный_градиент_8-8)"/></g></g></g></svg>