<svg xmlns="http://www.w3.org/2000/svg" viewBox="0 0 16 16"><title>info_fb</title><path d="M16,8c0,2.35,0,4.7,0,7a.89.89,0,0,1-.31.74.68.68,0,0,1-.48.18H12.06c-.33,0-.34,0-.34-.36,0-1.36,0-2.72,0-4.08,0-.49,0-1,0-1.46s0-.5.52-.5h1.55c.31,0,.31,0,.33-.33,0-.54.07-1.09.08-1.63,0-.32,0-.32-.32-.33H12.15c-.42,0-.43,0-.43-.41s0-.95,0-1.42a.83.83,0,0,1,.93-.93h1.11c.35,0,.35,0,.36-.34s.07-.94.08-1.41,0-.36-.35-.37a16.09,16.09,0,0,0-1.82,0A2.75,2.75,0,0,0,9.34,5.22c0,.58,0,1.15,0,1.73,0,.34,0,.34-.35.35H7.92c-.18,0-.27.06-.27.26q0,.89,0,1.77c0,.19.08.26.26.26h1c.44,0,.45,0,.45.43q0,1.55,0,3.1c0,.83,0,1.66,0,2.48,0,.37,0,.38-.37.38C6.28,16,3.59,16,.9,16a.94.94,0,0,1-.9-.9c0-.6,0-1.21,0-1.82q0-6,0-12.06A3.33,3.33,0,0,1,0,.87.89.89,0,0,1,.86,0a2.57,2.57,0,0,1,.31,0h14A.83.83,0,0,1,16,.88c0,.83,0,1.66,0,2.48Q16,5.69,16,8Z" style="fill:#fff"/></svg>