<svg xmlns="http://www.w3.org/2000/svg" viewBox="0 0 60 60"><defs><style>.cls-1{fill:none;stroke:#fff;stroke-miterlimit:10;stroke-width:4px;}.cls-2{fill:#fff;fill-rule:evenodd;}</style></defs><title>linked</title><g id="Слой_2" data-name="Слой 2"><g id="Home"><g id="SocialBtnsBlock"><g id="LinkedInBtn"><circle cx="30" cy="30" r="28" class="cls-1"/><path d="M39 39.07h-4V32.5c0-1.59-.42-2.67-1.84-2.67a2.07 2.07 0 0 0-2 1.44 2.68 2.68 0 0 0-.13 1v6.85h-4.1V27.03H31v1.71a3.79 3.79 0 0 1 3.48-2C37.1 26.73 39 28.42 39 32v7zM22.92 25.39a2 2 0 1 1 .05-4.08 2 2 0 1 1 0 4.08zM25 39.07h-4V27h4zM38.13 17H21.88A4.87 4.87 0 0 0 17 21.88v16.25A4.87 4.87 0 0 0 21.88 43h16.25A4.87 4.87 0 0 0 43 38.13V21.88A4.87 4.87 0 0 0 38.13 17z" class="cls-2"/></g></g></g></g></svg>