<svg xmlns="http://www.w3.org/2000/svg" viewBox="0 0 35 23.92"><defs><style>.cls-1{fill:none;stroke:#433e3d;stroke-linecap:round;stroke-linejoin:round;stroke-width:2px;}</style></defs><title>people</title><g id="Слой_2" data-name="Слой 2"><g id="Home"><path class="cls-1" d="M25,22.92c0-6.21-4.45-7.79-5.81-8.12a.1.1,0,0,1,0-.19,5.16,5.16,0,0,0,3.63-4.86A5.25,5.25,0,0,0,17.5,4.63a5.25,5.25,0,0,0-5.37,5.13,5.16,5.16,0,0,0,3.63,4.86.1.1,0,0,1,0,.19C14.4,15.14,10,16.72,10,22.92"/><path class="cls-1" d="M34,19.3c0-6.21-4.45-7.79-5.81-8.12a.1.1,0,0,1,0-.19,5.16,5.16,0,0,0,3.63-4.86A5.25,5.25,0,0,0,26.45,1a5.48,5.48,0,0,0-3.79,1.5"/><path class="cls-1" d="M1,19.3c0-6.21,4.45-7.79,5.81-8.12a.1.1,0,0,0,0-.19A5.16,5.16,0,0,1,3.18,6.13,5.25,5.25,0,0,1,8.55,1a5.48,5.48,0,0,1,3.79,1.5"/></g></g></svg>