<svg xmlns="http://www.w3.org/2000/svg" viewBox="0 0 33.34 35"><defs><style>.cls-1{fill:none;stroke:#433e3d;stroke-miterlimit:10;stroke-width:2px;}</style></defs><title>price_1</title><g id="Слой_2" data-name="Слой 2"><g id="Home"><ellipse class="cls-1" cx="12.26" cy="8.28" rx="11.26" ry="7.28"/><path class="cls-1" d="M1,9.07v5.25c0,4,5,7.28,11.26,7.28s11.26-3.26,11.26-7.28V9.07"/><path class="cls-1" d="M16.74,27.37a16.63,16.63,0,0,1-4.48.6C6,28,1,24.7,1,20.68a5.29,5.29,0,0,1,1.18-3.25"/><path class="cls-1" d="M1,21.47v5.25C1,30.74,6,34,12.26,34s11.26-3.26,11.26-7.28"/><path class="cls-1" d="M23.35,7.31c5.13.68,9,3.62,9,7.14,0,4-5,7.28-11.26,7.28A16.48,16.48,0,0,1,16.21,21"/><path class="cls-1" d="M9.82,20.48c0,4,5,7.28,11.26,7.28s11.26-3.26,11.26-7.28V15.23"/></g></g></svg>