<?xml version="1.0" encoding="UTF-8"?><!DOCTYPE svg PUBLIC "-//W3C//DTD SVG 1.1//EN" "http://www.w3.org/Graphics/SVG/1.1/DTD/svg11.dtd"><svg xmlns="http://www.w3.org/2000/svg"><symbol id="fb_icon" viewBox="0 0 116 116"><title>fb_icon</title><circle cx="58" cy="58" r="56" fill="none" stroke="#fff" stroke-miterlimit="10" stroke-width="4"/><path d="M72.7 58h-8v29.67H51.31V58h-5.2V48h5.19v-6.35c0-8.34 3.47-13.3 13.3-13.3h10v10h-5.82c-3.83 0-4.08 1.43-4.08 4.09v5.61h9.1z" fill="#fff"/></symbol><symbol id="header-logo" viewBox="0 0 177.45 20.2"><title>header-logo</title><path d="M61.9.61L55 20h4.7l1-3.29h7.5L69.36 20h4.7L66.9.61zm.1 12.33l2.49-7.85L67 12.94zM0 4.12h4v12H0v3.69h12.44V16.1H8.71V4.12h3.73V.43H0v3.69zM40.79 0H40a7.76 7.76 0 0 0-5.88 2.24A8.1 8.1 0 0 0 28 0h-.83c-5 0-8 3.07-8 8.54v11.25h4.42v-11C23.64 5.85 25 4 27.21 4H28c2.35 0 3.79 1.85 3.79 4.81v11h4.56v-11c0-3 1.4-4.82 3.65-4.82h.83c2.35 0 3.79 1.85 3.79 4.81v11H49V8.56C49 3.09 45.9 0 40.79 0zM103.26 9.02H90.6v3.46h8.14v3.34H84.39V4.72h18.87V.61H79.87v19.35h23.4l-.01-.01V9.02zM173.3.02v15.66h-8.52V.02h-4.15v19.81h16.82V.02h-4.15zM154.35 7.2c0-4-2.9-6.8-7.6-6.8h-13v19.38h4.7v-5.47h7.91l2.93 5.47h5.36l-3.51-6.58a6.63 6.63 0 0 0 3.21-6zm-5 .09c0 1.91-1 3-2.65 3h-8.3V4.44h8.3a2.54 2.54 0 0 1 2.65 2.85zM122.75.43v11c0 3-1.36 4.81-3.57 4.81h-.83c-2.35 0-3.79-1.85-3.79-4.81v-11h-4.42v11.23c0 5.48 3.1 8.54 8.21 8.54h.83c5 0 8-3.07 8-8.54V.43z"/></symbol><symbol id="info_fb" viewBox="0 0 16 16"><title>info_fb</title><path d="M16 8v7a.89.89 0 0 1-.31.74.68.68 0 0 1-.48.18h-3.15c-.33 0-.34 0-.34-.36v-4.08-1.46c0-.46 0-.5.52-.5h1.55c.31 0 .31 0 .33-.33 0-.54.07-1.09.08-1.63 0-.32 0-.32-.32-.33h-1.73c-.42 0-.43 0-.43-.41V5.4a.83.83 0 0 1 .93-.93h1.11c.35 0 .35 0 .36-.34s.07-.94.08-1.41 0-.36-.35-.37a16.09 16.09 0 0 0-1.82 0 2.75 2.75 0 0 0-2.69 2.87v1.73c0 .34 0 .34-.35.35H7.92c-.18 0-.27.06-.27.26v1.77c0 .19.08.26.26.26h1c.44 0 .45 0 .45.43v5.58c0 .37 0 .38-.37.38C6.28 16 3.59 16 .9 16a.94.94 0 0 1-.9-.9v-1.82V1.22a3.33 3.33 0 0 1 0-.35A.89.89 0 0 1 .86 0a2.57 2.57 0 0 1 .31 0h14a.83.83 0 0 1 .83.88V8z" fill="#fff"/></symbol><symbol id="info_insta" viewBox="0 0 16 16"><title>info_insta</title><path d="M8 12.43A4.43 4.43 0 1 1 12.43 8 4.43 4.43 0 0 1 8 12.43m0-7.61A3.18 3.18 0 1 0 11.18 8 3.18 3.18 0 0 0 8 4.82M13.29 3.66a.83.83 0 1 0-.83.83.83.83 0 0 0 .83-.83" fill="#fff"/><path d="M11.54 16H4.46A4.47 4.47 0 0 1 0 11.54V4.46A4.47 4.47 0 0 1 4.46 0h7.08A4.47 4.47 0 0 1 16 4.46v7.08A4.47 4.47 0 0 1 11.54 16M4.46 1.25a3.22 3.22 0 0 0-3.21 3.21v7.08a3.22 3.22 0 0 0 3.21 3.21h7.08a3.22 3.22 0 0 0 3.21-3.21V4.46a3.22 3.22 0 0 0-3.21-3.21z" fill="#fff"/></symbol><symbol id="info_twitter" viewBox="0 0 16 13.1"><title>info_twitter</title><path d="M0 11.61a6.71 6.71 0 0 0 4.78-1.36 3.41 3.41 0 0 1-3.05-2.31h1.38v-.08A3.36 3.36 0 0 1 1.3 6.7a3.25 3.25 0 0 1-.72-2.09A3 3 0 0 0 2 5 3.39 3.39 0 0 1 .68 3 3.27 3.27 0 0 1 1.05.61a9.49 9.49 0 0 0 6.79 3.44c0-.2 0-.38-.05-.55A3.31 3.31 0 0 1 13.38.92a.26.26 0 0 0 .3.07l1.6-.59.25-.12A3.06 3.06 0 0 1 14.3 2v.06c.27-.06.55-.11.82-.19a8.48 8.48 0 0 1 .88-.24c-.23.28-.44.56-.69.82s-.52.46-.78.7a.41.41 0 0 0-.12.26A9.69 9.69 0 0 1 13.8 7a9.56 9.56 0 0 1-2.27 3.52 8.8 8.8 0 0 1-4.33 2.33 9.43 9.43 0 0 1-5.46-.35c-.6-.22-1.16-.5-1.74-.8z" fill="#fff"/></symbol><symbol id="instagram_icon" viewBox="0 0 116 116"><title>instagram_icon</title><rect x="70.3" y="38.67" width="7.03" height="7.03" rx="1.76" ry="1.76" fill="#fff"/><path d="M58 48.12a9.81 9.81 0 0 0-5.11 1.46 4.89 4.89 0 0 1 1.46-.24 5.09 5.09 0 1 1-4.76 3.54A9.77 9.77 0 0 0 48.12 58 9.88 9.88 0 1 0 58 48.12z" fill="#fff"/><path d="M58 42.19A15.81 15.81 0 1 0 73.81 58 15.83 15.83 0 0 0 58 42.19zm0 4A11.86 11.86 0 1 1 46.14 58 11.86 11.86 0 0 1 58 46.14z" fill="#fff"/><path d="M80.3 49.89H67a12.16 12.16 0 1 1-18.09 0H35.7v-8.36a5.84 5.84 0 0 1 5.83-5.83h32.94a5.83 5.83 0 0 1 5.83 5.83zm-5.83-18.24H41.53a9.88 9.88 0 0 0-9.88 9.88v32.94a9.88 9.88 0 0 0 9.88 9.88h32.94a9.88 9.88 0 0 0 9.88-9.88V41.53a9.88 9.88 0 0 0-9.88-9.88z" fill="#fff"/><circle cx="58" cy="58" r="56" fill="none" stroke="#fff" stroke-miterlimit="10" stroke-width="4"/></symbol><symbol id="linkedin_icon" viewBox="0 0 116 116"><title>linkedin_icon</title><circle cx="58" cy="58" r="56" fill="none" stroke="#fff" stroke-miterlimit="10" stroke-width="4"/><path d="M76.08 76.14h-8.15V63c0-3.18-.84-5.34-3.68-5.34a4.14 4.14 0 0 0-3.91 2.87 5.36 5.36 0 0 0-.26 1.91v13.7h-8.19V52H60v3.41a7.57 7.57 0 0 1 7-3.91c5.17 0 9 3.38 9 10.63v14zM43.84 48.79A4.07 4.07 0 0 1 39.51 45v-.29c0-2.32 1.76-4.08 4.44-4.08a4.1 4.1 0 1 1 0 8.17zm4.24 27.35H40V52h8zM74.25 32h-32.5A9.75 9.75 0 0 0 32 41.75v32.5A9.75 9.75 0 0 0 41.75 84h32.5A9.75 9.75 0 0 0 84 74.25v-32.5A9.75 9.75 0 0 0 74.25 32z" fill="#fff"/></symbol><symbol id="logo-big" viewBox="0 0 380 43.18"><title>logo-big</title><path fill="#fff" d="M0 8.78h8.6v25.66H0v7.9h26.64v-7.9h-7.98V8.78h8V.88H0v7.9zM132.61 1.25l-14.8 41.45h10.06l2.25-7h16.11l2.37 7h10.06L143.27 1.25zm.12 26.41l5.33-16.82 5.5 16.82zM87.34 0h-1.78C80.21 0 75.92 1.66 73 4.79 70 1.66 65.54 0 60 0h-1.73C47.61 0 41.16 6.57 41.16 18.29v24h9.47V18.88c0-6.39 2.9-10.3 7.64-10.3H60c5 0 8.11 4 8.11 10.3v23.45h9.77V18.88c0-6.39 2.9-10.3 7.64-10.3h1.78c5 0 8.11 4 8.11 10.3v23.45h9.51v-24C104.92 6.57 98.29 0 87.34 0zM371.12.09v33.45h-18.26V.09H344v42.33l36 .02V.09h-8.88zM330.51 15.45c0-8.58-6.22-14.57-16.28-14.57H286.4v41.45h10.06V30.61h16.94l6.27 11.72h11.49l-7.52-14.09c4.36-2.61 6.87-7.11 6.87-12.79zM314.23 22h-17.76V9.47h17.76c3.55 0 5.68 2.31 5.68 6.1 0 4.09-2.19 6.43-5.68 6.43zM262.85 24.33c0 6.39-2.9 10.3-7.64 10.3h-1.78c-5 0-8.11-4-8.11-10.3V.88h-9.47v24c0 11.72 6.63 18.3 17.58 18.3h1.78c10.66 0 17.11-6.57 17.11-18.3v-24h-9.47zM171 42.7H221.12V19.32H194v7.4h17.44v7.15H180.7v-23.8h40.42V1.25H171V42.7z"/></symbol><symbol id="menu-icon" viewBox="0 0 20 12"><title>menu-icon</title><path d="M20 11H0m20-5H0m20-5H0" fill="none" stroke="#000" stroke-miterlimit="10" stroke-width="2"/></symbol><symbol id="search_icon" viewBox="0 0 17.52 17.48"><title>search_icon</title><path d="M12.52 11h-.79l-.28-.28A6.22 6.22 0 0 0 13 6.52a6.33 6.33 0 0 0-1.89-4.62A6.21 6.21 0 0 0 6.52 0 6.28 6.28 0 0 0 1.9 1.9 6.29 6.29 0 0 0 0 6.52a6.21 6.21 0 0 0 1.9 4.59A6.32 6.32 0 0 0 6.52 13a6.23 6.23 0 0 0 4.2-1.6l.28.28v.8l5 5L17.52 16zM9.7 9.7A4.34 4.34 0 0 1 6.52 11a4.34 4.34 0 0 1-3.19-1.3A4.34 4.34 0 0 1 2 6.52a4.34 4.34 0 0 1 1.33-3.19A4.34 4.34 0 0 1 6.52 2 4.34 4.34 0 0 1 9.7 3.33 4.34 4.34 0 0 1 11 6.52 4.34 4.34 0 0 1 9.7 9.7z"/></symbol><symbol id="twitter_icon" viewBox="0 0 116 116"><title>twitter_icon</title><path d="M90.94 40.77a21.83 21.83 0 0 1-6.92 2A13.42 13.42 0 0 0 89.46 36a22.1 22.1 0 0 1-7.66 3 12.78 12.78 0 0 0-9.14-4 12.28 12.28 0 0 0-12.11 12.36 9.73 9.73 0 0 0 .25 2.79 33.51 33.51 0 0 1-25-12.92 11.09 11.09 0 0 0-1.73 6.33A12.81 12.81 0 0 0 39.51 54a17.18 17.18 0 0 1-5.44-1.52v.25a12.22 12.22 0 0 0 9.64 12.16 12.23 12.23 0 0 1-3.21.51 6.68 6.68 0 0 1-2.22-.25 11.75 11.75 0 0 0 11.36 8.62 24.32 24.32 0 0 1-15 5.28 11.74 11.74 0 0 1-3-.25 34 34 0 0 0 18.53 5.57c22.48 0 34.59-19 34.59-35.48v-1.53a25.83 25.83 0 0 0 6.18-6.59" fill="#fff"/><circle cx="58" cy="58" r="56" fill="none" stroke="#fff" stroke-miterlimit="10" stroke-width="4"/></symbol></svg>