<svg xmlns="http://www.w3.org/2000/svg" viewBox="0 0 176.22 176.2"><defs><style>.cls-1{fill:#3c5a98;}</style></defs><title>FBL</title><g id="Layer_2" data-name="Layer 2"><path class="cls-1" d="M176.15 88.3c0 25.88-.05 51.76.06 77.65a9.82 9.82 0 0 1-3.44 8.13 7.49 7.49 0 0 1-5.27 2h-34.67c-3.61 0-3.73-.15-3.74-4v-44.93-16.12s0-5.47 5.71-5.48 11.39 0 17.09 0c3.46 0 3.43-.11 3.61-3.59.3-6 .73-12 .92-18 .11-3.48-.07-3.57-3.53-3.6-6.35-.06-12.7 0-19 0-4.67 0-4.7 0-4.74-4.49V60.24c.07-6.76 3.34-10.08 10.23-10.28 4.07-.12 8.14 0 12.21 0 3.81 0 3.8-.08 4-3.71.3-5.18.72-10.35.84-15.54.08-3.54-.41-4-3.89-4.05-6.67-.11-13.4-.6-20 .05-17 1.66-29.27 12.52-29.64 30.78-.13 6.35 0 12.7 0 19 0 3.71-.14 3.79-3.9 3.85s-7.81.07-11.72 0c-2 0-3 .69-2.95 2.83q.1 9.77 0 19.53c0 2.09.84 2.91 2.91 2.87 3.58-.08 7.16 0 10.74 0 4.89 0 4.92 0 4.93 4.79v61.53c0 4.1-.1 4.2-4 4.21-29.63 0-59.25-.1-88.88.12C5 176.24-.26 171.33 0 166.33c.36-6.65.09-13.34.09-20Q.1 79.89.1 13.48a36.64 36.64 0 0 1 0-3.9C.73 4 4 .74 9.48.07A28.29 28.29 0 0 1 12.9 0h153.83c5.72.23 9.36 3.86 9.41 9.63.08 9.11 0 18.23 0 27.35q.01 25.68.01 51.32z" id="Layer_1-2" data-name="Layer 1"/></g></svg>