<svg xmlns="http://www.w3.org/2000/svg" viewBox="0 0 215.23 176.22"><defs><style>.cls-1{fill:#41abe1;}</style></defs><g id="Layer_2" data-name="Layer 2"><path id="Layer_1-2" d="M.21 156.24c23.51 2.1 44.72-3.74 64.25-18.25-20.2-2.2-33.83-12.07-41.18-31.17h18.56l.24-1a45.15 45.15 0 0 1-24.6-15.73A43.78 43.78 0 0 1 7.8 62c6.07 2.92 12 5 18.64 4.89-8.89-7.09-15-15.91-17.28-27a44 44 0 0 1 5-31.67c24.2 28.08 54.19 43.75 91.31 46.34-.26-2.75-.56-5.08-.7-7.42-1.88-30.26 26.53-53.38 55.85-45.56A44.16 44.16 0 0 1 180 12.41a3.47 3.47 0 0 0 4.08 1c7.17-2.7 14.38-5.3 21.57-8 1.15-.43 2.23-1 3.42-1.59-.41 6.09-6.58 14.49-16.73 23l.15.79c3.7-.83 7.43-1.52 11.08-2.52A114.11 114.11 0 0 1 215.23 22c-3.08 3.7-6 7.6-9.3 11.05s-7.06 6.22-10.46 9.47a5.51 5.51 0 0 0-1.67 3.56 130.28 130.28 0 0 1-8.23 47.74 128.61 128.61 0 0 1-30.5 47.34 118.44 118.44 0 0 1-58.17 31.73c-24.93 5.53-49.53 4.3-73.49-4.7-8-3-15.63-7.14-23.42-10.76z" class="cls-1" data-name="Layer 1"/></g></svg>