<svg xmlns="http://www.w3.org/2000/svg" viewBox="0 0 103.16 58.08"><title>360icon</title><path d="M51.56,52.42C22.65,52.42,0,45.92,0,37.62c0-3,2.8-5.75,8.33-8.14a.75.75,0,0,1,.59,1.38C4.07,33,1.5,35.3,1.5,37.62,1.5,44,21.62,50.92,51.56,50.92S101.66,44,101.66,37.62c0-2.21-2.4-4.34-7.33-6.51a.75.75,0,1,1,.6-1.37c5.61,2.47,8.23,5,8.23,7.88C103.16,45.92,80.49,52.42,51.56,52.42Z" style="fill:#fff"/><path d="M44.62,58.08a.75.75,0,0,1-.44-.14l-9.62-7,9.62-7a.75.75,0,1,1,.88,1.21l-8,5.79,7.95,5.75a.75.75,0,0,1-.44,1.36Z" style="fill:#fff"/><path d="M57.28,58.08a.75.75,0,0,1-.44-1.36l8-5.79-7.95-5.75A.75.75,0,0,1,57.72,44l9.62,7-9.62,7A.75.75,0,0,1,57.28,58.08Z" style="fill:#fff"/><path d="M36,16.15a6.53,6.53,0,0,1-1.72,4.59,8,8,0,0,1-4.6,2.39v.12A9.07,9.07,0,0,1,35,25.5a6.48,6.48,0,0,1,1.85,4.85,7.72,7.72,0,0,1-2.8,6.37Q31.29,39,26,39a17.24,17.24,0,0,1-7.8-1.66v-2A16.26,16.26,0,0,0,22,36.71a17,17,0,0,0,3.94.5q4.43,0,6.66-1.8a6.14,6.14,0,0,0,2.23-5.06,5.1,5.1,0,0,0-2.28-4.47q-2.28-1.56-6.69-1.56H22.7V22.39h3.21a8.91,8.91,0,0,0,5.79-1.74A5.74,5.74,0,0,0,33.84,16,4.89,4.89,0,0,0,32.1,12a6.78,6.78,0,0,0-4.54-1.47,12.38,12.38,0,0,0-4,.61,18.13,18.13,0,0,0-4.05,2.1l-1-1.34a12.94,12.94,0,0,1,4.11-2.26,14.83,14.83,0,0,1,4.87-.83,9.26,9.26,0,0,1,6.26,1.92A6.77,6.77,0,0,1,36,16.15Zm6.44,9.93A26.08,26.08,0,0,1,44,16.46a12,12,0,0,1,4.41-5.79A13.4,13.4,0,0,1,58.73,9.25V11a10.21,10.21,0,0,0-3.53-.54A9.19,9.19,0,0,0,47.49,14q-2.76,3.57-3.1,10.39h.26a10.41,10.41,0,0,1,3.49-3,9,9,0,0,1,4.15-1,8.63,8.63,0,0,1,6.43,2.35A8.82,8.82,0,0,1,61,29.29a10,10,0,0,1-2.44,7.09A8.58,8.58,0,0,1,52,39a8.35,8.35,0,0,1-7-3.4Q42.42,32.18,42.42,26.08ZM52,37.22a6.47,6.47,0,0,0,5.12-2.07A8.63,8.63,0,0,0,59,29.25,7.29,7.29,0,0,0,57.16,24a6.48,6.48,0,0,0-4.91-1.89,8.19,8.19,0,0,0-3.8.9,7.55,7.55,0,0,0-2.8,2.4,5.29,5.29,0,0,0-1,3.06,9.74,9.74,0,0,0,1,4.28A8.36,8.36,0,0,0,48.29,36,6.32,6.32,0,0,0,52,37.22ZM84.41,23.84q0,7.72-2.36,11.43A7.88,7.88,0,0,1,74.92,39a7.73,7.73,0,0,1-7-3.82q-2.39-3.82-2.39-11.32,0-7.66,2.32-11.35a7.76,7.76,0,0,1,7.05-3.69A7.86,7.86,0,0,1,82,12.61Q84.41,16.43,84.41,23.84Zm-16.69,0q0,6.82,1.79,10.08a6.17,6.17,0,0,0,10.94-.11q1.74-3.37,1.74-10T80.44,14a5.8,5.8,0,0,0-5.53-3.37A5.74,5.74,0,0,0,69.42,14Q67.72,17.34,67.72,23.84Z" style="fill:#fff"/><path d="M90.71,9.5a4.75,4.75,0,1,1,4.75-4.75A4.76,4.76,0,0,1,90.71,9.5Zm0-8A3.25,3.25,0,1,0,94,4.75,3.25,3.25,0,0,0,90.71,1.5Z" style="fill:#fff"/></svg>