<svg xmlns="http://www.w3.org/2000/svg" viewBox="0 0 553.36 49.24"><title>academy_logo</title><path d="M50.71,43.67C49,44.54,45.1,45.46,40,45.46c-14.37,0-21.76-8.94-21.76-20.78C18.28,10.5,28.39,2.61,41,2.61A24.5,24.5,0,0,1,51.2,4.46l-1.91,7.46a20.3,20.3,0,0,0-7.89-1.54c-7.46,0-13.26,4.5-13.26,13.75,0,8.32,4.93,13.56,13.32,13.56a23.48,23.48,0,0,0,7.83-1.36Z" style="fill:#fff"/><path d="M93.07,23.63c0,13.63-8.26,21.89-20.41,21.89-12.33,0-19.54-9.31-19.54-21.15,0-12.45,8-21.76,20.22-21.76C86.1,2.61,93.07,12.17,93.07,23.63Zm-30,.56c0,8.14,3.82,13.87,10.11,13.87s10-6,10-14.12c0-7.46-3.58-13.87-10-13.87S63,16.11,63,24.19Z" style="fill:#fff"/><path d="M99.24,3.84A83.84,83.84,0,0,1,111.94,3c7.89,0,13,1.42,17,4.44,4.32,3.21,7,8.32,7,15.66,0,8-2.9,13.44-6.91,16.83-4.38,3.64-11,5.36-19.17,5.36a81.37,81.37,0,0,1-10.67-.62Zm9.43,33.91a17.31,17.31,0,0,0,3.27.18C120.45,38,126,33.31,126,23.39c.06-8.63-5-13.19-13.07-13.19a19.56,19.56,0,0,0-4.25.37Z" style="fill:#fff"/><path d="M151.58,3.29V44.84h-9.43V3.29Z" style="fill:#fff"/><path d="M159.72,44.84V3.29h11l8.63,15.23a120.48,120.48,0,0,1,6.78,14.24h.18a154.22,154.22,0,0,1-.8-17.32V3.29h8.63V44.84h-9.86l-8.88-16a154.52,154.52,0,0,1-7.21-14.67l-.18.06c.25,5.49.37,11.34.37,18.13V44.84Z" style="fill:#fff"/><path d="M237,42.93a46.5,46.5,0,0,1-13.87,2.34c-7.58,0-13.07-1.91-16.89-5.61s-5.92-9-5.86-15.11c.06-13.81,10.11-21.7,23.74-21.7a28.62,28.62,0,0,1,11.53,2l-2,7.52A23,23,0,0,0,224,10.63c-7.83,0-13.75,4.44-13.75,13.44,0,8.57,5.36,13.63,13.07,13.63a12.59,12.59,0,0,0,4.62-.62V28.38H221.5V21H237Z" style="fill:#fff"/><path d="M266.45,34.18l-3,10.67h-9.74l12.7-41.56h12.33l12.89,41.56H281.56l-3.21-10.67Zm10.54-7-2.59-8.82c-.74-2.47-1.48-5.55-2.1-8h-.12c-.62,2.47-1.23,5.61-1.91,8l-2.47,8.82Z" style="fill:#fff"/><path d="M326.2,43.67c-1.73.86-5.61,1.79-10.67,1.79-14.37,0-21.76-8.94-21.76-20.78,0-14.18,10.11-22.07,22.69-22.07a24.5,24.5,0,0,1,10.23,1.85l-1.91,7.46a20.3,20.3,0,0,0-7.89-1.54c-7.46,0-13.26,4.5-13.26,13.75,0,8.32,4.93,13.56,13.32,13.56a23.48,23.48,0,0,0,7.83-1.36Z" style="fill:#fff"/><path d="M342.66,34.18l-3,10.67H330l12.7-41.56H355l12.89,41.56H357.77l-3.21-10.67Zm10.54-7-2.59-8.82c-.74-2.47-1.48-5.55-2.1-8h-.12c-.62,2.47-1.23,5.61-1.91,8L344,27.15Z" style="fill:#fff"/><path d="M373.43,3.84A83.83,83.83,0,0,1,386.13,3c7.89,0,13,1.42,17,4.44,4.32,3.21,7,8.32,7,15.66,0,8-2.9,13.44-6.91,16.83-4.38,3.64-11,5.36-19.17,5.36a81.37,81.37,0,0,1-10.67-.62Zm9.43,33.91a17.31,17.31,0,0,0,3.27.18c8.51.06,14.06-4.62,14.06-14.55.06-8.63-5-13.19-13.07-13.19a19.56,19.56,0,0,0-4.25.37Z" style="fill:#fff"/><path d="M441.07,27.27H425.78v9.86h17.08v7.71H416.34V3.29H442V11H425.78v8.63h15.29Z" style="fill:#fff"/><path d="M484.41,28.94c-.18-5-.37-11-.37-17.08h-.18c-1.3,5.3-3,11.22-4.62,16.09l-5.06,16.22h-7.34L462.4,28.07c-1.36-4.87-2.77-10.79-3.76-16.22h-.12c-.25,5.61-.43,12-.74,17.2L457,44.84h-8.69L451,3.29h12.52l4.07,13.87c1.3,4.81,2.59,10,3.52,14.86h.18c1.17-4.81,2.59-10.3,3.95-14.92l4.44-13.81h12.27l2.28,41.56H485Z" style="fill:#fff"/><path d="M511,44.84v-17L497.92,3.29h10.73l4.25,10c1.3,3,2.16,5.24,3.21,8h.12c.92-2.59,1.91-5,3.14-8l4.19-10h10.54L520.42,27.52V44.84Z" style="fill:#fff"/><path d="M0,49.24V.12H12.63V5.3H6.78V44.06h5.86v5.18Z" style="fill:#26a9e1"/><path d="M553.36,0V49.18H540.79V44h5.85V5.18h-5.85V0Z" style="fill:#26a9e1"/></svg>