<svg xmlns="http://www.w3.org/2000/svg" viewBox="0 0 79.33 79.33"><title>academy_icon2</title><path d="M77,38.32v37a3,3,0,0,1-3,3H5.31a3,3,0,0,1-3-3v-37L1,37.86V25.18a9.51,9.51,0,0,1,9.51-9.51H68.82a9.51,9.51,0,0,1,9.51,9.51V37.86Z" style="fill:none;stroke:#f0512f;stroke-linecap:round;stroke-miterlimit:10;stroke-width:2px"/><rect x="22.33" y="11.67" width="10.67" height="4" style="fill:none;stroke:#f0512f;stroke-linecap:round;stroke-miterlimit:10;stroke-width:2px"/><rect x="46.33" y="11.67" width="10.67" height="4" style="fill:none;stroke:#f0512f;stroke-linecap:round;stroke-miterlimit:10;stroke-width:2px"/><path d="M49,8.26v3.41h5.33V8.85A7.85,7.85,0,0,0,46.48,1H32.85A7.85,7.85,0,0,0,25,8.85v2.82h5.33V8.26a2.08,2.08,0,0,1,2.88-1.93,16.9,16.9,0,0,0,12.91,0A2.08,2.08,0,0,1,49,8.26Z" style="fill:none;stroke:#f0512f;stroke-linecap:round;stroke-miterlimit:10;stroke-width:2px"/><rect x="57" y="66.33" width="13.33" height="5.33" style="fill:none;stroke:#f0512f;stroke-linecap:round;stroke-miterlimit:10;stroke-width:2px"/><polygon points="41 58.33 38.33 58.33 34.33 54.33 34.33 50.33 45 50.33 45 54.33 41 58.33" style="fill:none;stroke:#f0512f;stroke-linecap:round;stroke-miterlimit:10;stroke-width:2px"/><rect x="30.33" y="34.33" width="18.67" height="16" style="fill:none;stroke:#f0512f;stroke-linecap:round;stroke-miterlimit:10;stroke-width:2px"/><rect x="34.33" y="15.67" width="10.67" height="18.67" style="fill:none;stroke:#f0512f;stroke-linecap:round;stroke-miterlimit:10;stroke-width:2px"/><path d="M1,37.86l8,2.75a82.19,82.19,0,0,0,21.36,4.28V34.33H49V44.87a91.15,91.15,0,0,0,21.36-4.27l8-2.75" style="fill:none;stroke:#f0512f;stroke-linecap:round;stroke-miterlimit:10;stroke-width:2px"/><line x1="39.67" y1="43.67" x2="39.67" y2="46.33" style="fill:none;stroke:#f0512f;stroke-linecap:round;stroke-miterlimit:10;stroke-width:2px"/><rect x="37" y="38.33" width="5.33" height="5.33" style="fill:none;stroke:#f0512f;stroke-linecap:round;stroke-miterlimit:10;stroke-width:2px"/></svg>