<svg xmlns="http://www.w3.org/2000/svg" viewBox="0 0 76.52 79.88"><title>academy_icon3</title><rect x="1" y="18.46" width="74.52" height="9.4" rx="4.7" ry="4.7" style="fill:none;stroke:#f0512f;stroke-miterlimit:10;stroke-width:2px"/><path d="M64.11,18.46H11.74l3.14-7.21c0-.27,1.21-3.05,1.27-3.31,1-4.16,5.65-7.82,9.68-6.37L35.95,5.2a7.48,7.48,0,0,0,4.88.06l8.88-3.88a7.26,7.26,0,0,1,8.05,2.27A33.82,33.82,0,0,1,61,11.24Z" style="fill:none;stroke:#f0512f;stroke-linecap:round;stroke-linejoin:round;stroke-width:2px"/><ellipse cx="26.92" cy="41.28" rx="7.17" ry="7.23" style="fill:none;stroke:#f0512f;stroke-linecap:round;stroke-linejoin:round;stroke-width:2px"/><ellipse cx="48.85" cy="41.28" rx="7.17" ry="7.23" style="fill:none;stroke:#f0512f;stroke-linecap:round;stroke-linejoin:round;stroke-width:2px"/><path d="M41.68,40.92a5.56,5.56,0,0,0-7.59,0" style="fill:none;stroke:#f0512f;stroke-linecap:round;stroke-linejoin:round;stroke-width:2px"/><path d="M60.31,54.72a3.18,3.18,0,0,1-2.74-1.32c-1.76-2.5.42-4.6,3.84-3.95a7.41,7.41,0,0,1,4.38,3.06c2.92,3.88-1,9.21-5.83,8.22a18.22,18.22,0,0,1-7.11-3.3C44.84,51.57,38.6,60,38.6,60s-6.24-8.42-14.26-2.55a18.22,18.22,0,0,1-7.11,3.3c-4.85,1-8.75-4.34-5.83-8.22a6.84,6.84,0,0,1,4.38-3.06c3.61-.54,4.75,2.5,3.84,3.88a3.54,3.54,0,0,1-2.74,1.38" style="fill:none;stroke:#f0512f;stroke-linecap:round;stroke-linejoin:round;stroke-width:2px"/><path d="M10.81,57.4a5.73,5.73,0,0,0,6.42,3.33,18.22,18.22,0,0,0,7.11-3.3C32.36,51.57,38.6,60,38.6,60s6.24-8.42,14.26-2.55A18.22,18.22,0,0,0,60,60.73a6,6,0,0,0,6.38-3.25C59,74.72,38.6,65.24,38.6,65.24s-20.42,9.48-27.74-7.76Z" style="fill:none;stroke:#f0512f;stroke-linecap:round;stroke-linejoin:round;stroke-width:2px"/><path d="M21.14,73.51H56.05a0,0,0,0,1,0,0v3.62a1.75,1.75,0,0,1-1.75,1.75H22.89a1.75,1.75,0,0,1-1.75-1.75V73.51A0,0,0,0,1,21.14,73.51Z" style="fill:none;stroke:#f0512f;stroke-miterlimit:10;stroke-width:2px"/><path d="M63.47,18.46a5.31,5.31,0,0,0-2-.41H15.77a5.31,5.31,0,0,0-2,.41Z" style="fill:none;stroke:#f0512f;stroke-linecap:round;stroke-linejoin:round;stroke-width:2px"/><path d="M10.4,27.86V68.14a5.39,5.39,0,0,0,5.37,5.37H61.43a5.39,5.39,0,0,0,5.37-5.37V27.86Z" style="fill:none;stroke:#f0512f;stroke-linecap:round;stroke-linejoin:round;stroke-width:2px"/></svg>