<svg xmlns="http://www.w3.org/2000/svg" viewBox="0 0 43.93 43.93"><title>accelerometer</title><path d="M22,38.44a4.12,4.12,0,1,1,4.12-4.12A4.12,4.12,0,0,1,22,38.44ZM22,33a1.37,1.37,0,1,0,1.37,1.37A1.37,1.37,0,0,0,22,33Z" style="fill:#433e3d"/><path d="M22,43.93a22,22,0,1,1,22-22A22,22,0,0,1,22,43.93ZM22,2.75A19.22,19.22,0,1,0,41.19,22,19.24,19.24,0,0,0,22,2.75Z" style="fill:#433e3d"/><path d="M37.07,23.34A1.37,1.37,0,0,1,35.7,22,13.73,13.73,0,0,0,8.24,22a1.37,1.37,0,1,1-2.75,0,16.48,16.48,0,0,1,33,0A1.37,1.37,0,0,1,37.07,23.34Z" style="fill:#433e3d"/><path d="M22.59,33a1.4,1.4,0,0,1-.31,0,1.37,1.37,0,0,1-1-1.65L25.32,13.7a1.37,1.37,0,0,1,2.68.62L23.92,32A1.37,1.37,0,0,1,22.59,33Z" style="fill:#433e3d"/></svg>