<svg xmlns="http://www.w3.org/2000/svg" viewBox="0 0 27.53 36"><title>audio</title><g id="Слой_2" data-name="Слой 2"><g id="Home"><g id="_Organizui" data-name="!!!!Organizui"><g id="InfoTabs"><path d="M20.12,36H7.41A7.37,7.37,0,0,1,0,28.59V7.41A7.37,7.37,0,0,1,7.41,0H20.12a7.37,7.37,0,0,1,7.41,7.41V28.59A7.37,7.37,0,0,1,20.12,36ZM7.41,2.12A5.24,5.24,0,0,0,2.12,7.41V28.59a5.24,5.24,0,0,0,5.29,5.29H20.12a5.24,5.24,0,0,0,5.29-5.29V7.41a5.24,5.24,0,0,0-5.29-5.29Zm6.35,21.18a9.53,9.53,0,1,1,9.53-9.53A9.49,9.49,0,0,1,13.76,23.29Zm0-16.94a7.41,7.41,0,1,0,7.41,7.41A7.37,7.37,0,0,0,13.76,6.35Zm0,25.73a3.49,3.49,0,1,1,3.49-3.49A3.53,3.53,0,0,1,13.76,32.08Zm0-4.87a1.38,1.38,0,1,0,1.38,1.38A1.4,1.4,0,0,0,13.76,27.21Zm0-14.93a1.48,1.48,0,1,1-1.48,1.48A1.45,1.45,0,0,1,13.76,12.28Z" fill="#433e3d"/></g></g></g></g></svg>