<svg xmlns="http://www.w3.org/2000/svg" viewBox="0 0 43.93 41.19"><title>bag</title><path d="M42.56,41.19H1.37A1.37,1.37,0,0,1,0,39.82V8.24A1.37,1.37,0,0,1,1.37,6.86H42.56a1.37,1.37,0,0,1,1.37,1.37V39.82A1.37,1.37,0,0,1,42.56,41.19ZM2.75,38.44H41.19V9.61H2.75Z" style="fill:#433e3d"/><path d="M42.56,20.59H1.37a1.37,1.37,0,0,1,0-2.75H42.56a1.37,1.37,0,1,1,0,2.75Z" style="fill:#433e3d"/><path d="M28.83,9.61a1.37,1.37,0,0,1-1.37-1.37,5.49,5.49,0,1,0-11,0,1.37,1.37,0,0,1-2.75,0,8.24,8.24,0,0,1,16.48,0A1.37,1.37,0,0,1,28.83,9.61Z" style="fill:#433e3d"/><path d="M22,24.71a5.5,5.5,0,0,1-5.49-5.49,1.37,1.37,0,1,1,2.75,0,2.75,2.75,0,0,0,5.49,0,1.37,1.37,0,1,1,2.75,0A5.5,5.5,0,0,1,22,24.71Z" style="fill:#433e3d"/></svg>