<svg xmlns="http://www.w3.org/2000/svg" viewBox="0 0 134.71 40"><title>bban_logo</title><g id="Слой_2" data-name="Слой 2"><g id="Home"><path d="M2.83,36.5a1.12,1.12,0,0,1,0,.3.94.94,0,0,1-.11.25.87.87,0,0,1-.17.2,1,1,0,0,1-.23.15,1.24,1.24,0,0,1-.28.09,1.74,1.74,0,0,1-.35,0H.7a.18.18,0,0,1-.1,0,.16.16,0,0,1-.05-.14V34A.16.16,0,0,1,.6,33.9a.18.18,0,0,1,.1,0h.79a1.7,1.7,0,0,1,.52.07.87.87,0,0,1,.33.19.75.75,0,0,1,.19.29,1.08,1.08,0,0,1,.06.38,1,1,0,0,1,0,.25.83.83,0,0,1-.09.22.8.8,0,0,1-.15.18.82.82,0,0,1-.21.14.87.87,0,0,1,.51.3.92.92,0,0,1,.15.28A1,1,0,0,1,2.83,36.5ZM2.22,34.8a.82.82,0,0,0,0-.26.5.5,0,0,0-.13-.2.58.58,0,0,0-.23-.13,1.24,1.24,0,0,0-.37,0H.89v1.31h.63a.85.85,0,0,0,.33-.06.59.59,0,0,0,.21-.15.62.62,0,0,0,.12-.22A.84.84,0,0,0,2.22,34.8Zm.24,1.72a.82.82,0,0,0-.06-.32A.6.6,0,0,0,2.23,36,.75.75,0,0,0,2,35.83a1.48,1.48,0,0,0-.41,0H.89v1.43h.8a1,1,0,0,0,.31,0A.71.71,0,0,0,2.24,37a.63.63,0,0,0,.16-.22A.69.69,0,0,0,2.46,36.53Z" fill="#c30b33"/><path d="M5.68,36.05a.16.16,0,0,1-.05.14.18.18,0,0,1-.1,0H3.77a1.84,1.84,0,0,0,0,.43A.85.85,0,0,0,4,37a.7.7,0,0,0,.28.21,1.09,1.09,0,0,0,.42.07,1.48,1.48,0,0,0,.32,0l.25-.07.17-.07.09,0h0l0,0v0a.52.52,0,0,1,0,.07.27.27,0,0,1,0,0v.06l0,0-.09,0-.19.07L5,37.54a1.91,1.91,0,0,1-.34,0,1.45,1.45,0,0,1-.53-.09,1,1,0,0,1-.39-.26,1.16,1.16,0,0,1-.24-.43,2,2,0,0,1-.08-.6,1.89,1.89,0,0,1,.08-.58,1.25,1.25,0,0,1,.24-.44,1,1,0,0,1,.38-.27,1.22,1.22,0,0,1,.49-.09,1.15,1.15,0,0,1,.49.1.94.94,0,0,1,.34.26,1,1,0,0,1,.19.38,1.64,1.64,0,0,1,.06.45ZM5.33,36a.92.92,0,0,0-.19-.64.71.71,0,0,0-.57-.23.74.74,0,0,0-.59.26.84.84,0,0,0-.15.28,1.19,1.19,0,0,0-.06.33Z" fill="#c30b33"/><path d="M6.79,37.47a.06.06,0,0,1,0,0l0,0H6.49l0,0a.07.07,0,0,1,0,0V33.65a.07.07,0,0,1,0,0l0,0h.27l0,0a.06.06,0,0,1,0,0Z" fill="#c30b33"/><path d="M9.53,37.47a.06.06,0,0,1,0,0l0,0H9.3l-.05,0a.05.05,0,0,1,0,0v-.29a1.3,1.3,0,0,1-.38.29,1,1,0,0,1-.43.1,1.17,1.17,0,0,1-.36-.05.77.77,0,0,1-.27-.15.66.66,0,0,1-.17-.24.78.78,0,0,1-.06-.31.71.71,0,0,1,.34-.63A1.21,1.21,0,0,1,8.28,36a2.26,2.26,0,0,1,.5-.05H9.2v-.22a1.11,1.11,0,0,0,0-.29.5.5,0,0,0-.11-.21.47.47,0,0,0-.2-.13.91.91,0,0,0-.3,0,1.06,1.06,0,0,0-.31,0L8,35.22l-.17.09-.09,0h0l0,0v0a.36.36,0,0,1,0-.06.41.41,0,0,1,0-.09.15.15,0,0,1,0-.07L7.85,35l.21-.09.25-.07.27,0a1.34,1.34,0,0,1,.44.06.72.72,0,0,1,.29.18.69.69,0,0,1,.16.29,1.48,1.48,0,0,1,0,.4ZM9.2,36.26H8.73a1.55,1.55,0,0,0-.36,0,.75.75,0,0,0-.25.11.45.45,0,0,0-.15.17.5.5,0,0,0,0,.23.46.46,0,0,0,.14.35.55.55,0,0,0,.4.13.72.72,0,0,0,.38-.1,1.66,1.66,0,0,0,.37-.32Z" fill="#c30b33"/><path d="M11.89,35a.67.67,0,0,1,0,.07.18.18,0,0,1,0,0l0,0h-.09l-.08,0-.1,0h-.12a.37.37,0,0,0-.15,0,.6.6,0,0,0-.15.1,1.36,1.36,0,0,0-.17.19l-.2.29v1.73a.06.06,0,0,1,0,0l0,0H10.5l0,0a.07.07,0,0,1,0,0V34.9a.07.07,0,0,1,0,0l0,0h.25l0,0a.07.07,0,0,1,0,0v.41A2.23,2.23,0,0,1,11,35a1,1,0,0,1,.18-.15.54.54,0,0,1,.17-.08l.17,0h.09l.1,0,.1,0,.06,0,0,0V35S11.89,35,11.89,35Z" fill="#c30b33"/><path d="M14.54,37.47a.07.07,0,0,1,0,0l0,0h-.26l0,0a.07.07,0,0,1,0,0v-.36a1.59,1.59,0,0,1-.43.36.9.9,0,0,1-.42.11,1,1,0,0,1-.42-.08.75.75,0,0,1-.28-.23,1,1,0,0,1-.15-.34,2,2,0,0,1,0-.46V34.9a.07.07,0,0,1,0,0l0,0h.27l0,0a.06.06,0,0,1,0,0v1.52a1.67,1.67,0,0,0,0,.39.76.76,0,0,0,.11.26.5.5,0,0,0,.19.16.58.58,0,0,0,.27.06.67.67,0,0,0,.39-.14,2.23,2.23,0,0,0,.41-.41V34.9a.07.07,0,0,1,0,0l0,0h.27l0,0a.06.06,0,0,1,0,0Z" fill="#c30b33"/><path d="M17,36.78a.78.78,0,0,1-.07.33.69.69,0,0,1-.19.25.88.88,0,0,1-.3.16,1.32,1.32,0,0,1-.39.05l-.25,0-.22-.05-.16-.07-.1-.07a.17.17,0,0,1,0-.07.37.37,0,0,1,0-.11.35.35,0,0,1,0-.07v0l0,0h0l.09,0,.15.09.21.09a1,1,0,0,0,.52,0,.57.57,0,0,0,.19-.08.39.39,0,0,0,.12-.15.47.47,0,0,0,0-.21.34.34,0,0,0-.06-.2.54.54,0,0,0-.15-.14l-.21-.11-.24-.1-.24-.11a.92.92,0,0,1-.21-.14.63.63,0,0,1-.21-.49.7.7,0,0,1,.05-.26.64.64,0,0,1,.16-.23.8.8,0,0,1,.27-.16,1.12,1.12,0,0,1,.39-.06l.19,0,.17,0,.13.06.09.05,0,0v.07a.53.53,0,0,1,0,.06.41.41,0,0,1,0,.06v0l0,0h0l-.07,0-.12-.07-.18-.07a.81.81,0,0,0-.24,0,.8.8,0,0,0-.23,0,.46.46,0,0,0-.17.09.36.36,0,0,0-.1.13.42.42,0,0,0,0,.17.37.37,0,0,0,.06.21.53.53,0,0,0,.15.15l.21.11.24.1.24.11a1,1,0,0,1,.21.14.64.64,0,0,1,.15.2A.62.62,0,0,1,17,36.78Z" fill="#c30b33"/><path d="M18.12,34a.26.26,0,0,1,0,.18.25.25,0,0,1-.18,0,.24.24,0,0,1-.17,0,.38.38,0,0,1,0-.37.25.25,0,0,1,.18,0,.24.24,0,0,1,.17,0A.26.26,0,0,1,18.12,34Zm-.05,3.43a.06.06,0,0,1,0,0l0,0h-.27l0,0a.07.07,0,0,1,0,0V34.9a.07.07,0,0,1,0,0l0,0H18l0,0a.06.06,0,0,1,0,0Z" fill="#c30b33"/><path d="M20.8,37.47a.06.06,0,0,1,0,0l0,0h-.16l-.05,0a.05.05,0,0,1,0,0v-.29a1.3,1.3,0,0,1-.38.29,1,1,0,0,1-.43.1,1.17,1.17,0,0,1-.36-.05.77.77,0,0,1-.27-.15.66.66,0,0,1-.17-.24.78.78,0,0,1-.06-.31.71.71,0,0,1,.34-.63,1.21,1.21,0,0,1,.39-.16,2.26,2.26,0,0,1,.5-.05h.41v-.22a1.11,1.11,0,0,0,0-.29.5.5,0,0,0-.11-.21.47.47,0,0,0-.2-.13.91.91,0,0,0-.3,0,1.06,1.06,0,0,0-.31,0l-.24.09-.17.09-.09,0h0l0,0v0a.36.36,0,0,1,0-.06.41.41,0,0,1,0-.09.15.15,0,0,1,0-.07l.13-.08.21-.09.25-.07.27,0a1.34,1.34,0,0,1,.44.06.72.72,0,0,1,.29.18.69.69,0,0,1,.16.29,1.48,1.48,0,0,1,0,.4Zm-.34-1.21H20a1.55,1.55,0,0,0-.36,0,.75.75,0,0,0-.25.11.45.45,0,0,0-.15.17.5.5,0,0,0,0,.23.46.46,0,0,0,.14.35.55.55,0,0,0,.4.13.72.72,0,0,0,.38-.1,1.66,1.66,0,0,0,.37-.32Z" fill="#c30b33"/><path d="M23.82,37.47a.06.06,0,0,1,0,0l0,0h-.27l0,0a.06.06,0,0,1,0,0V35.95a1.65,1.65,0,0,0,0-.39.77.77,0,0,0-.11-.25.5.5,0,0,0-.19-.16.59.59,0,0,0-.27-.06.67.67,0,0,0-.39.14,2.12,2.12,0,0,0-.41.41v1.84a.06.06,0,0,1,0,0l0,0h-.27l0,0a.07.07,0,0,1,0,0V34.9a.07.07,0,0,1,0,0l0,0H22l0,0a.07.07,0,0,1,0,0v.36a1.58,1.58,0,0,1,.43-.36.91.91,0,0,1,.42-.11,1,1,0,0,1,.42.08.75.75,0,0,1,.28.23,1,1,0,0,1,.15.34,2,2,0,0,1,0,.46Z" fill="#c30b33"/><path d="M28.41,36.5a1.12,1.12,0,0,1,0,.3.94.94,0,0,1-.11.25.87.87,0,0,1-.17.2,1,1,0,0,1-.23.15,1.24,1.24,0,0,1-.28.09,1.74,1.74,0,0,1-.35,0h-.95a.18.18,0,0,1-.1,0,.16.16,0,0,1-.05-.14V34a.16.16,0,0,1,.05-.14.18.18,0,0,1,.1,0h.79a1.7,1.7,0,0,1,.52.07.87.87,0,0,1,.33.19.75.75,0,0,1,.19.29,1.08,1.08,0,0,1,.06.38,1,1,0,0,1,0,.25.83.83,0,0,1-.09.22.8.8,0,0,1-.15.18.82.82,0,0,1-.21.14.87.87,0,0,1,.51.3.92.92,0,0,1,.15.28A1,1,0,0,1,28.41,36.5Zm-.61-1.69a.82.82,0,0,0,0-.26.5.5,0,0,0-.13-.2.58.58,0,0,0-.23-.13,1.24,1.24,0,0,0-.37,0h-.57v1.31h.63a.85.85,0,0,0,.33-.06.59.59,0,0,0,.21-.15.62.62,0,0,0,.12-.22A.84.84,0,0,0,27.81,34.8ZM28,36.53a.82.82,0,0,0-.06-.32.6.6,0,0,0-.17-.23.75.75,0,0,0-.28-.14,1.48,1.48,0,0,0-.41,0h-.66v1.43h.8a1,1,0,0,0,.31,0,.71.71,0,0,0,.24-.13.63.63,0,0,0,.16-.22A.69.69,0,0,0,28,36.53Z" fill="#c30b33"/><path d="M31.24,37.47a.07.07,0,0,1,0,0l0,0h-.26l0,0a.07.07,0,0,1,0,0v-.36a1.59,1.59,0,0,1-.43.36.9.9,0,0,1-.42.11,1,1,0,0,1-.42-.08.75.75,0,0,1-.28-.23,1,1,0,0,1-.15-.34,2,2,0,0,1,0-.46V34.9a.07.07,0,0,1,0,0l0,0h.27l0,0a.06.06,0,0,1,0,0v1.52a1.67,1.67,0,0,0,0,.39.76.76,0,0,0,.11.26.5.5,0,0,0,.19.16.58.58,0,0,0,.27.06.67.67,0,0,0,.39-.14,2.23,2.23,0,0,0,.41-.41V34.9a.07.07,0,0,1,0,0l0,0h.27l0,0a.06.06,0,0,1,0,0Z" fill="#c30b33"/><path d="M33.69,36.78a.78.78,0,0,1-.07.33.69.69,0,0,1-.19.25.88.88,0,0,1-.3.16,1.32,1.32,0,0,1-.39.05l-.25,0-.22-.05-.16-.07-.1-.07a.17.17,0,0,1,0-.07.37.37,0,0,1,0-.11.35.35,0,0,1,0-.07v0l0,0h0l.09,0,.15.09.21.09a1,1,0,0,0,.52,0,.57.57,0,0,0,.19-.08.39.39,0,0,0,.12-.15.47.47,0,0,0,0-.21.34.34,0,0,0-.06-.2.54.54,0,0,0-.15-.14l-.21-.11-.24-.1-.24-.11a.92.92,0,0,1-.21-.14.63.63,0,0,1-.21-.49.7.7,0,0,1,.05-.26.64.64,0,0,1,.16-.23.8.8,0,0,1,.27-.16,1.12,1.12,0,0,1,.39-.06l.19,0,.17,0,.13.06.09.05,0,0v.07a.53.53,0,0,1,0,.06.41.41,0,0,1,0,.06v0l0,0h0l-.07,0-.12-.07-.18-.07a.81.81,0,0,0-.24,0,.8.8,0,0,0-.23,0,.46.46,0,0,0-.17.09.36.36,0,0,0-.1.13.42.42,0,0,0,0,.17.37.37,0,0,0,.06.21.53.53,0,0,0,.15.15l.21.11.24.1.24.11a1,1,0,0,1,.21.14.64.64,0,0,1,.15.2A.62.62,0,0,1,33.69,36.78Z" fill="#c30b33"/><path d="M34.82,34a.26.26,0,0,1,0,.18.25.25,0,0,1-.18,0,.24.24,0,0,1-.17,0,.38.38,0,0,1,0-.37.25.25,0,0,1,.18,0,.24.24,0,0,1,.17,0A.26.26,0,0,1,34.82,34Zm-.05,3.43a.06.06,0,0,1,0,0l0,0h-.27l0,0a.07.07,0,0,1,0,0V34.9a.07.07,0,0,1,0,0l0,0h.27l0,0a.06.06,0,0,1,0,0Z" fill="#c30b33"/><path d="M37.79,37.47a.06.06,0,0,1,0,0l0,0h-.27l0,0a.06.06,0,0,1,0,0V35.95a1.65,1.65,0,0,0,0-.39.77.77,0,0,0-.11-.25.5.5,0,0,0-.19-.16.59.59,0,0,0-.27-.06.67.67,0,0,0-.39.14,2.12,2.12,0,0,0-.41.41v1.84a.06.06,0,0,1,0,0l0,0h-.27l0,0a.07.07,0,0,1,0,0V34.9a.07.07,0,0,1,0,0l0,0H36l0,0a.07.07,0,0,1,0,0v.36a1.58,1.58,0,0,1,.43-.36.91.91,0,0,1,.42-.11,1,1,0,0,1,.42.08.75.75,0,0,1,.28.23,1,1,0,0,1,.15.34,2,2,0,0,1,0,.46Z" fill="#c30b33"/><path d="M40.82,36.05a.16.16,0,0,1-.05.14.18.18,0,0,1-.1,0H38.91a1.84,1.84,0,0,0,0,.43.85.85,0,0,0,.15.33.7.7,0,0,0,.28.21,1.09,1.09,0,0,0,.42.07,1.48,1.48,0,0,0,.32,0l.25-.07.17-.07.09,0h0l0,0v0a.52.52,0,0,1,0,.07.27.27,0,0,1,0,0v.06l0,0-.09,0-.19.07-.28.06a1.91,1.91,0,0,1-.34,0,1.45,1.45,0,0,1-.53-.09,1,1,0,0,1-.39-.26,1.16,1.16,0,0,1-.24-.43,2,2,0,0,1-.08-.6,1.89,1.89,0,0,1,.08-.58,1.25,1.25,0,0,1,.24-.44,1,1,0,0,1,.38-.27,1.22,1.22,0,0,1,.49-.09,1.15,1.15,0,0,1,.49.1.94.94,0,0,1,.34.26,1,1,0,0,1,.19.38,1.64,1.64,0,0,1,.06.45Zm-.35-.1a.92.92,0,0,0-.19-.64.71.71,0,0,0-.57-.23.74.74,0,0,0-.59.26.84.84,0,0,0-.15.28,1.19,1.19,0,0,0-.06.33Z" fill="#c30b33"/><path d="M43.1,36.78a.78.78,0,0,1-.07.33.69.69,0,0,1-.19.25.88.88,0,0,1-.3.16,1.32,1.32,0,0,1-.39.05l-.25,0-.22-.05-.16-.07-.1-.07a.17.17,0,0,1,0-.07.37.37,0,0,1,0-.11.35.35,0,0,1,0-.07v0l0,0h0l.09,0,.15.09.21.09a1,1,0,0,0,.52,0,.57.57,0,0,0,.19-.08.39.39,0,0,0,.12-.15.47.47,0,0,0,0-.21.34.34,0,0,0-.06-.2.54.54,0,0,0-.15-.14l-.21-.11-.24-.1-.24-.11a.92.92,0,0,1-.21-.14.63.63,0,0,1-.21-.49.7.7,0,0,1,.05-.26.64.64,0,0,1,.16-.23.8.8,0,0,1,.27-.16,1.12,1.12,0,0,1,.39-.06l.19,0,.17,0,.13.06.09.05,0,0v.07a.53.53,0,0,1,0,.06.41.41,0,0,1,0,.06v0l0,0h0l-.07,0-.12-.07-.18-.07a.81.81,0,0,0-.24,0,.8.8,0,0,0-.23,0,.46.46,0,0,0-.17.09.36.36,0,0,0-.1.13.42.42,0,0,0,0,.17.37.37,0,0,0,.06.21.53.53,0,0,0,.15.15l.21.11.24.1.24.11a1,1,0,0,1,.21.14.64.64,0,0,1,.15.2A.62.62,0,0,1,43.1,36.78Z" fill="#c30b33"/><path d="M45.35,36.78a.78.78,0,0,1-.07.33.69.69,0,0,1-.19.25.88.88,0,0,1-.3.16,1.32,1.32,0,0,1-.39.05l-.25,0-.22-.05-.16-.07-.1-.07a.17.17,0,0,1,0-.07.37.37,0,0,1,0-.11.35.35,0,0,1,0-.07v0l0,0h0l.09,0,.15.09.21.09a1,1,0,0,0,.52,0,.57.57,0,0,0,.19-.08A.39.39,0,0,0,45,37a.47.47,0,0,0,0-.21.34.34,0,0,0-.06-.2.54.54,0,0,0-.15-.14l-.21-.11-.24-.1-.24-.11A.92.92,0,0,1,43.9,36a.63.63,0,0,1-.21-.49.7.7,0,0,1,.05-.26A.64.64,0,0,1,43.9,35a.8.8,0,0,1,.27-.16,1.12,1.12,0,0,1,.39-.06l.19,0,.17,0,.13.06.09.05,0,0v.07a.53.53,0,0,1,0,.06.41.41,0,0,1,0,.06v0l0,0h0l-.07,0L45,35.18l-.18-.07a.81.81,0,0,0-.24,0,.8.8,0,0,0-.23,0,.46.46,0,0,0-.17.09.36.36,0,0,0-.1.13.42.42,0,0,0,0,.17.37.37,0,0,0,.06.21.53.53,0,0,0,.15.15l.21.11.24.1.24.11a1,1,0,0,1,.21.14.64.64,0,0,1,.15.2A.62.62,0,0,1,45.35,36.78Z" fill="#c30b33"/><path d="M50.06,37.41a.17.17,0,0,1,0,.07.05.05,0,0,1,0,0l-.06,0h-.25l0,0,0,0-.35-1H47.74l-.34,1,0,0,0,0-.05,0h-.19l-.06,0a.05.05,0,0,1,0,0,.17.17,0,0,1,0-.07l1.28-3.49,0,0,0,0h.31l0,0,0,0Zm-1.52-3.18h0l-.69,2h1.4Z" fill="#c30b33"/><path d="M52.74,37.47a.06.06,0,0,1,0,0l0,0h-.27l0,0a.06.06,0,0,1,0,0V35.95a1.65,1.65,0,0,0,0-.39.77.77,0,0,0-.11-.25.5.5,0,0,0-.19-.16.59.59,0,0,0-.27-.06.67.67,0,0,0-.39.14,2.12,2.12,0,0,0-.41.41v1.84a.06.06,0,0,1,0,0l0,0H50.7l0,0a.07.07,0,0,1,0,0V34.9a.07.07,0,0,1,0,0l0,0H51l0,0a.07.07,0,0,1,0,0v.36a1.58,1.58,0,0,1,.43-.36.91.91,0,0,1,.42-.11,1,1,0,0,1,.42.08.75.75,0,0,1,.28.23,1,1,0,0,1,.15.34,2,2,0,0,1,0,.46Z" fill="#c30b33"/><path d="M55.73,35a.18.18,0,0,1,0,.11.08.08,0,0,1-.07,0h-.41a.68.68,0,0,1,.17.26,1,1,0,0,1,0,.3,1,1,0,0,1-.07.39.79.79,0,0,1-.2.29.87.87,0,0,1-.3.18,1.16,1.16,0,0,1-.39.06,1.1,1.1,0,0,1-.33,0,.73.73,0,0,1-.24-.12.5.5,0,0,0-.09.13.38.38,0,0,0,0,.17.22.22,0,0,0,.1.18.48.48,0,0,0,.27.08l.69,0a1.43,1.43,0,0,1,.33,0,.84.84,0,0,1,.27.13.62.62,0,0,1,.18.21.57.57,0,0,1,.07.29.79.79,0,0,1-.07.33.74.74,0,0,1-.22.27,1.11,1.11,0,0,1-.37.19,1.86,1.86,0,0,1-.54.07,2.17,2.17,0,0,1-.51-.05,1.06,1.06,0,0,1-.35-.14.56.56,0,0,1-.2-.22.6.6,0,0,1-.06-.27.74.74,0,0,1,0-.19.64.64,0,0,1,.07-.17.86.86,0,0,1,.12-.15l.16-.15a.53.53,0,0,1-.21-.18.4.4,0,0,1-.07-.22.68.68,0,0,1,.07-.31,1.1,1.1,0,0,1,.16-.24.86.86,0,0,1-.13-.24.91.91,0,0,1,0-.31,1,1,0,0,1,.07-.39.83.83,0,0,1,.2-.29.86.86,0,0,1,.3-.18,1.12,1.12,0,0,1,.39-.06h.21l.18,0h.76a.07.07,0,0,1,.07,0A.22.22,0,0,1,55.73,35Zm-.36,2.73a.32.32,0,0,0-.15-.29.78.78,0,0,0-.41-.11l-.75,0-.17.15a.79.79,0,0,0-.1.14.46.46,0,0,0-.05.13.59.59,0,0,0,0,.13.34.34,0,0,0,.21.32,1.31,1.31,0,0,0,.59.11,1.45,1.45,0,0,0,.4,0,.78.78,0,0,0,.26-.12.45.45,0,0,0,.14-.18A.52.52,0,0,0,55.37,37.72Zm-.27-2a.63.63,0,0,0-.16-.46.61.61,0,0,0-.46-.16.64.64,0,0,0-.26.05.52.52,0,0,0-.19.14.59.59,0,0,0-.11.2.8.8,0,0,0,0,.25.61.61,0,0,0,.16.45.6.6,0,0,0,.45.16.66.66,0,0,0,.27-.05.52.52,0,0,0,.19-.14.58.58,0,0,0,.11-.2A.79.79,0,0,0,55.1,35.7Z" fill="#c30b33"/><path d="M58.45,36.05a.16.16,0,0,1-.05.14.18.18,0,0,1-.1,0H56.54a1.84,1.84,0,0,0,0,.43.85.85,0,0,0,.15.33.7.7,0,0,0,.28.21,1.09,1.09,0,0,0,.42.07,1.48,1.48,0,0,0,.32,0l.25-.07.17-.07.09,0h0l0,0v0a.52.52,0,0,1,0,.07.27.27,0,0,1,0,0v.06l0,0-.09,0-.19.07-.28.06a1.91,1.91,0,0,1-.34,0,1.45,1.45,0,0,1-.53-.09,1,1,0,0,1-.39-.26,1.16,1.16,0,0,1-.24-.43,2,2,0,0,1-.08-.6,1.89,1.89,0,0,1,.08-.58,1.25,1.25,0,0,1,.24-.44,1,1,0,0,1,.38-.27,1.22,1.22,0,0,1,.49-.09,1.15,1.15,0,0,1,.49.1.94.94,0,0,1,.34.26,1,1,0,0,1,.19.38,1.64,1.64,0,0,1,.06.45ZM58.1,36a.92.92,0,0,0-.19-.64.71.71,0,0,0-.57-.23.74.74,0,0,0-.59.26.84.84,0,0,0-.15.28,1.19,1.19,0,0,0-.06.33Z" fill="#c30b33"/><path d="M59.56,37.47a.06.06,0,0,1,0,0l0,0h-.27l0,0a.07.07,0,0,1,0,0V33.65a.07.07,0,0,1,0,0l0,0h.27l0,0a.06.06,0,0,1,0,0Z" fill="#c30b33"/><path d="M62,36.78a.78.78,0,0,1-.07.33.69.69,0,0,1-.19.25.88.88,0,0,1-.3.16,1.32,1.32,0,0,1-.39.05l-.25,0-.22-.05-.16-.07-.1-.07a.17.17,0,0,1,0-.07.37.37,0,0,1,0-.11.35.35,0,0,1,0-.07v0l0,0h0l.09,0,.15.09.21.09a1,1,0,0,0,.52,0,.57.57,0,0,0,.19-.08.39.39,0,0,0,.12-.15.47.47,0,0,0,0-.21.34.34,0,0,0-.06-.2.54.54,0,0,0-.15-.14l-.21-.11-.24-.1-.24-.11a.92.92,0,0,1-.21-.14.63.63,0,0,1-.21-.49.7.7,0,0,1,.05-.26.64.64,0,0,1,.16-.23.8.8,0,0,1,.27-.16,1.12,1.12,0,0,1,.39-.06l.19,0,.17,0,.13.06.09.05,0,0v.07a.53.53,0,0,1,0,.06.41.41,0,0,1,0,.06v0l0,0h0l-.07,0-.12-.07-.18-.07a.81.81,0,0,0-.24,0,.8.8,0,0,0-.23,0,.46.46,0,0,0-.17.09.36.36,0,0,0-.1.13.42.42,0,0,0,0,.17.37.37,0,0,0,.06.21.53.53,0,0,0,.15.15l.21.11.24.1.24.11a1,1,0,0,1,.21.14.64.64,0,0,1,.15.2A.62.62,0,0,1,62,36.78Z" fill="#c30b33"/><path d="M66.76,37.36a.2.2,0,0,1,0,.08l0,.06-.05,0h-.23l-.09,0-.09-.09-.1-.15-1.29-2.29-.19-.34-.19-.34h0q0,.21,0,.42v2.8a.06.06,0,0,1,0,0l0,0h-.27l0,0a.06.06,0,0,1,0,0V34a.16.16,0,0,1,.05-.14.18.18,0,0,1,.1,0h.25l.08,0,.07.08.08.13,1,1.75.18.32.16.3.16.29.15.29h0q0-.24,0-.5V33.93a.06.06,0,0,1,0,0l0,0h.27l0,0a.05.05,0,0,1,0,0Z" fill="#c30b33"/><path d="M69.86,36.05a.16.16,0,0,1-.05.14.18.18,0,0,1-.1,0H67.95a1.84,1.84,0,0,0,0,.43.85.85,0,0,0,.15.33.7.7,0,0,0,.28.21,1.09,1.09,0,0,0,.42.07,1.48,1.48,0,0,0,.32,0l.25-.07.17-.07.09,0h0l0,0v0a.52.52,0,0,1,0,.07.27.27,0,0,1,0,0v.06l0,0-.09,0-.19.07-.28.06a1.91,1.91,0,0,1-.34,0,1.45,1.45,0,0,1-.53-.09,1,1,0,0,1-.39-.26,1.16,1.16,0,0,1-.24-.43,2,2,0,0,1-.08-.6,1.89,1.89,0,0,1,.08-.58,1.25,1.25,0,0,1,.24-.44,1,1,0,0,1,.38-.27,1.22,1.22,0,0,1,.49-.09,1.15,1.15,0,0,1,.49.1.94.94,0,0,1,.34.26,1,1,0,0,1,.19.38,1.64,1.64,0,0,1,.06.45Zm-.35-.1a.92.92,0,0,0-.19-.64.71.71,0,0,0-.57-.23.74.74,0,0,0-.59.26.84.84,0,0,0-.15.28,1.19,1.19,0,0,0-.06.33Z" fill="#c30b33"/><path d="M71.84,37.32a.4.4,0,0,1,0,.1.13.13,0,0,1,0,.06l-.06,0-.09,0-.11,0h-.12a.9.9,0,0,1-.32-.05.52.52,0,0,1-.22-.15.64.64,0,0,1-.12-.26,1.6,1.6,0,0,1,0-.37v-1.6h-.38a.07.07,0,0,1-.06,0,.2.2,0,0,1,0-.11.33.33,0,0,1,0-.06l0,0,0,0h.42v-.63a.07.07,0,0,1,0,0l0,0H71l0,0a.06.06,0,0,1,0,0v.63h.74l0,0,0,0a.29.29,0,0,1,0,.06.19.19,0,0,1,0,.11.07.07,0,0,1-.06,0H71v1.55a.94.94,0,0,0,.08.44.32.32,0,0,0,.3.15h.12l.1,0,.07,0h.08l0,0v0A.33.33,0,0,1,71.84,37.32Z" fill="#c30b33"/><path d="M75.91,34.9V35l-.79,2.5,0,0,0,0h-.34l0,0,0,0-.59-2v0l-.56,2,0,0,0,0h-.33l0,0,0,0L72.23,35V34.9a.06.06,0,0,1,0,0l0,0h.28l0,0v0l.68,2.24v0l.62-2.24,0,0,0,0h.27l0,0v0l.66,2.24v0l.67-2.24,0,0,0,0h.27l0,0A.08.08,0,0,1,75.91,34.9Z" fill="#c30b33"/><path d="M78.78,36.16a1.92,1.92,0,0,1-.08.56,1.28,1.28,0,0,1-.24.45,1.08,1.08,0,0,1-.39.3,1.32,1.32,0,0,1-.55.11,1.34,1.34,0,0,1-.53-.09,1,1,0,0,1-.38-.27,1.15,1.15,0,0,1-.23-.43,2,2,0,0,1-.08-.57,2,2,0,0,1,.08-.56,1.26,1.26,0,0,1,.24-.45A1.08,1.08,0,0,1,77,34.9a1.34,1.34,0,0,1,.55-.1,1.36,1.36,0,0,1,.53.09,1,1,0,0,1,.38.27,1.19,1.19,0,0,1,.23.43A2,2,0,0,1,78.78,36.16Zm-.36,0a2,2,0,0,0,0-.42,1,1,0,0,0-.14-.35.71.71,0,0,0-.27-.24.87.87,0,0,0-.42-.09.89.89,0,0,0-.4.08.74.74,0,0,0-.27.23,1,1,0,0,0-.16.34,1.7,1.7,0,0,0-.05.43,2,2,0,0,0,0,.42,1,1,0,0,0,.14.35.7.7,0,0,0,.27.24,1,1,0,0,0,.81,0,.73.73,0,0,0,.27-.23,1,1,0,0,0,.16-.34A1.74,1.74,0,0,0,78.42,36.19Z" fill="#c30b33"/><path d="M81,35a.67.67,0,0,1,0,.07.18.18,0,0,1,0,0l0,0h-.09l-.08,0-.1,0h-.12a.37.37,0,0,0-.15,0,.6.6,0,0,0-.15.1,1.36,1.36,0,0,0-.17.19l-.2.29v1.73a.06.06,0,0,1,0,0l0,0h-.27l0,0a.07.07,0,0,1,0,0V34.9a.07.07,0,0,1,0,0l0,0h.25l0,0a.07.07,0,0,1,0,0v.41a2.23,2.23,0,0,1,.2-.26,1,1,0,0,1,.18-.15.54.54,0,0,1,.17-.08l.17,0h.09l.1,0,.1,0,.06,0,0,0V35S81,35,81,35Z" fill="#c30b33"/><path d="M83.49,37.46a.07.07,0,0,1,0,0l0,0-.05,0h-.25l0,0,0,0L81.87,36v1.46a.06.06,0,0,1,0,0l0,0h-.27l0,0a.07.07,0,0,1,0,0V33.65a.07.07,0,0,1,0,0l0,0h.27l0,0a.06.06,0,0,1,0,0V36L83,34.91l0,0,.05,0h.29l0,0a0,0,0,0,1,0,0,.1.1,0,0,1,0,.06l-.06.07-1,1,1.14,1.36.05.07A.08.08,0,0,1,83.49,37.46Z" fill="#c30b33"/><path d="M17.2,19.88a7.11,7.11,0,0,1-.35,2.29,6.13,6.13,0,0,1-1,1.82,6.22,6.22,0,0,1-1.47,1.36,8.58,8.58,0,0,1-1.88.94,11.59,11.59,0,0,1-2.19.54,17.62,17.62,0,0,1-2.6.17H1.43a1.5,1.5,0,0,1-1-.36A1.47,1.47,0,0,1,0,25.48V4.78A1.47,1.47,0,0,1,.41,3.61a1.5,1.5,0,0,1,1-.36h6a16,16,0,0,1,3.7.37,7.29,7.29,0,0,1,2.55,1.11,4.92,4.92,0,0,1,1.59,1.88,6.09,6.09,0,0,1,.55,2.68,5.81,5.81,0,0,1-.22,1.62,4.87,4.87,0,0,1-.64,1.39,4.77,4.77,0,0,1-1,1.1,5.26,5.26,0,0,1-1.4.77,6.28,6.28,0,0,1,1.86.64A5.27,5.27,0,0,1,15.83,16a5.52,5.52,0,0,1,1,1.7A6.15,6.15,0,0,1,17.2,19.88ZM11,9.88a3.53,3.53,0,0,0-.22-1.28,2.32,2.32,0,0,0-.66-.95A3,3,0,0,0,9,7.07a6.39,6.39,0,0,0-1.79-.2H4.74V13h2.7a4.63,4.63,0,0,0,1.67-.25,2.89,2.89,0,0,0,1-.68,2.76,2.76,0,0,0,.61-1A3.68,3.68,0,0,0,11,9.88ZM12.19,20a3.77,3.77,0,0,0-.28-1.48,2.83,2.83,0,0,0-.81-1.09,3.73,3.73,0,0,0-1.36-.68,8,8,0,0,0-2.15-.24H4.74v6.75H8.22a5.87,5.87,0,0,0,1.7-.21,3.47,3.47,0,0,0,1.19-.62,2.86,2.86,0,0,0,.79-1A3.31,3.31,0,0,0,12.19,20Z" fill="#c30b33"/><path d="M37.9,19.88a7.11,7.11,0,0,1-.35,2.29,6.13,6.13,0,0,1-1,1.82,6.22,6.22,0,0,1-1.47,1.36,8.58,8.58,0,0,1-1.88.94,11.59,11.59,0,0,1-2.19.54,17.62,17.62,0,0,1-2.6.17H22.13a1.5,1.5,0,0,1-1-.36,1.47,1.47,0,0,1-.41-1.17V4.78a1.47,1.47,0,0,1,.41-1.17,1.5,1.5,0,0,1,1-.36h6a16,16,0,0,1,3.7.37,7.29,7.29,0,0,1,2.55,1.11,4.92,4.92,0,0,1,1.59,1.88,6.09,6.09,0,0,1,.55,2.68,5.81,5.81,0,0,1-.22,1.62,4.87,4.87,0,0,1-.64,1.39,4.77,4.77,0,0,1-1,1.1,5.26,5.26,0,0,1-1.4.77,6.28,6.28,0,0,1,1.86.64A5.27,5.27,0,0,1,36.53,16a5.52,5.52,0,0,1,1,1.7A6.15,6.15,0,0,1,37.9,19.88Zm-6.24-10a3.53,3.53,0,0,0-.22-1.28,2.32,2.32,0,0,0-.66-.95,3,3,0,0,0-1.11-.58,6.39,6.39,0,0,0-1.79-.2H25.44V13h2.7a4.63,4.63,0,0,0,1.67-.25,2.89,2.89,0,0,0,1-.68,2.76,2.76,0,0,0,.61-1A3.68,3.68,0,0,0,31.66,9.88ZM32.89,20a3.77,3.77,0,0,0-.28-1.48,2.83,2.83,0,0,0-.81-1.09,3.73,3.73,0,0,0-1.36-.68,8,8,0,0,0-2.15-.24H25.44v6.75h3.49a5.87,5.87,0,0,0,1.7-.21,3.47,3.47,0,0,0,1.19-.62,2.86,2.86,0,0,0,.79-1A3.31,3.31,0,0,0,32.89,20Z" fill="#c30b33"/><path d="M60.81,25.21a6.44,6.44,0,0,1,.28,1,.63.63,0,0,1-.15.58,1.2,1.2,0,0,1-.72.24q-.51,0-1.41,0t-1.46,0a3.62,3.62,0,0,1-.8-.11.73.73,0,0,1-.39-.23,1.26,1.26,0,0,1-.18-.39l-1.6-4.77H45.47L44,26.23a1.48,1.48,0,0,1-.19.43.78.78,0,0,1-.39.28,2.83,2.83,0,0,1-.75.14q-.49,0-1.28,0A12.16,12.16,0,0,1,40,27.06a1,1,0,0,1-.66-.27.72.72,0,0,1-.13-.6,6,6,0,0,1,.28-1L46.85,4.1a1.84,1.84,0,0,1,.26-.5.91.91,0,0,1,.47-.29,3.71,3.71,0,0,1,.89-.13q.57,0,1.5,0t1.73,0a4.62,4.62,0,0,1,1,.13,1,1,0,0,1,.51.3,1.78,1.78,0,0,1,.27.55ZM49.91,7.79h0L46.53,17.88h6.74Z" fill="#c30b33"/><path d="M83.37,25.32a1.84,1.84,0,0,1-.15.75,1.59,1.59,0,0,1-.39.55,1.52,1.52,0,0,1-.59.32,2.42,2.42,0,0,1-.69.1H79.5a4.22,4.22,0,0,1-1.11-.13,2.21,2.21,0,0,1-.86-.47,4.1,4.1,0,0,1-.76-.92q-.37-.58-.83-1.5L70,12.93q-.51-1-1-2.14T68,8.56h0q.07,1.32.11,2.63t0,2.71V26.33a.57.57,0,0,1-.1.33.75.75,0,0,1-.35.25,2.76,2.76,0,0,1-.67.16,8.63,8.63,0,0,1-1.08.06,8.45,8.45,0,0,1-1.06-.06,2.61,2.61,0,0,1-.66-.16.68.68,0,0,1-.33-.25.61.61,0,0,1-.09-.33V5a1.61,1.61,0,0,1,.5-1.29,1.84,1.84,0,0,1,1.24-.43h2.59a5,5,0,0,1,1.17.12,2.44,2.44,0,0,1,.85.39,3.07,3.07,0,0,1,.71.76,9.82,9.82,0,0,1,.68,1.2l4.63,8.68L77,16q.39.76.76,1.52l.72,1.5q.35.73.68,1.47h0q-.06-1.28-.08-2.68t0-2.66V4a.54.54,0,0,1,.11-.33.88.88,0,0,1,.37-.26,2.41,2.41,0,0,1,.68-.16,10.39,10.39,0,0,1,1.08,0,10,10,0,0,1,1,0,2.06,2.06,0,0,1,.65.16.75.75,0,0,1,.32.26.61.61,0,0,1,.09.33Z" fill="#c30b33"/><path d="M99.34,40a2.47,2.47,0,0,1-2.2-1.33A28.49,28.49,0,0,1,109.24.28a2.47,2.47,0,0,1,2.29,4.39,23.51,23.51,0,0,0-10,31.71A2.48,2.48,0,0,1,99.34,40Z" fill="#c30b33"/><path d="M105.13,23.28a2.48,2.48,0,0,1-2.37-3.2A21,21,0,0,1,129,6.08a2.47,2.47,0,0,1-1.44,4.73A16.09,16.09,0,0,0,107.5,21.52,2.48,2.48,0,0,1,105.13,23.28Z" fill="#c30b33"/><path d="M132.24,23.63a2.47,2.47,0,0,1-2-1.07,8.67,8.67,0,0,0-12-2.21,2.47,2.47,0,0,1-2.81-4.07,13.63,13.63,0,0,1,18.93,3.48,2.47,2.47,0,0,1-2,3.88Z" fill="#c30b33"/></g></g></svg>