<svg xmlns="http://www.w3.org/2000/svg" viewBox="0 0 148.46 40"><title>belbiz_logo</title><g id="Слой_2" data-name="Слой 2"><g id="Home"><path d="M22.76,20l.51,0,.56.08A11.46,11.46,0,0,1,30,22.78a8.34,8.34,0,0,1,2.83,6.8A8.71,8.71,0,0,1,29.3,37q-3.57,2.66-9.84,2.65h-.94c-.32,0-.65,0-1-.05l-1,0-.94,0-.88,0-.83,0H0V37.37H2.48a2.8,2.8,0,0,0,1.26-.25q.5-.25.51-1.72V7.79q0-1.47-.51-1.72a2.81,2.81,0,0,0-1.26-.25H0V3.69H12.11a3.8,3.8,0,0,0,.63-.05l.63,0,.63,0,.91,0,1,0a8.4,8.4,0,0,1,.91-.05h.91q6.68-.1,9.66,1.74a9.07,9.07,0,0,1,3.89,4.12,8.89,8.89,0,0,1,.38,1.42,7.79,7.79,0,0,1,.13,1.36A6.24,6.24,0,0,1,29.2,17.5a11.63,11.63,0,0,1-5.64,2.22l-.4,0-.4,0Zm-5.51-1.47q.35,0,1.14-.08A5,5,0,0,0,20,18a5,5,0,0,0,2.12-1.74,6.35,6.35,0,0,0,1-3.82v-.3a7.28,7.28,0,0,0-1.47-4.25q-1.42-1.92-4.91-1.92a8.1,8.1,0,0,0-2.5.35,5.73,5.73,0,0,0-2,1.21v11ZM12.19,36a7.66,7.66,0,0,0,2,1.14,8,8,0,0,0,2.93.48,5.39,5.39,0,0,0,4.1-1.44A8.29,8.29,0,0,0,23.16,33a11.21,11.21,0,0,0,.51-2.4q.1-1.14.1-1.74t-.08-1.59a9.42,9.42,0,0,0-.38-1.95,7.77,7.77,0,0,0-2-3.08,6.33,6.33,0,0,0-4.58-1.42H12.19Z" fill="#818081"/><path d="M42,26v2.58a11,11,0,0,0,1.14,5.66,6.36,6.36,0,0,0,2.5,2.48,4.46,4.46,0,0,0,1.47.51,8.6,8.6,0,0,0,1.21.1,6.64,6.64,0,0,0,3.89-1.16A15.11,15.11,0,0,0,55.45,33l1.36,1a14.08,14.08,0,0,1-4,4.22A10.84,10.84,0,0,1,46.35,40a11.9,11.9,0,0,1-8.09-3.06q-3.49-3.06-3.49-8.87,0-6.07,3.57-9.51a11.61,11.61,0,0,1,8.32-3.44A12.85,12.85,0,0,1,48,15.2a13.68,13.68,0,0,1,1.42.23,9.77,9.77,0,0,1,4.85,2.93q2.23,2.33,2.48,7.64Zm8-1.72v-.91a13.72,13.72,0,0,0-.78-4.4,2.87,2.87,0,0,0-3-2,3,3,0,0,0-2.83,1.64,10.79,10.79,0,0,0-1.21,3.62,9.91,9.91,0,0,0-.15,1l-.1,1Z" fill="#818081"/><path d="M57.88,3Q59,2.78,60,2.53L62,2q1.11-.35,2.25-.81T66.73.15V36.36q0,1,.41,1.21a1.88,1.88,0,0,0,.86.2h1.57v1.72H57.67V37.78h1.57a1.89,1.89,0,0,0,.86-.2q.4-.2.4-1.21V6q0-1.16-.4-1.37a2,2,0,0,0-.91-.2H57.88Z" fill="#818081"/><path d="M96.05,17.14A13.28,13.28,0,0,1,99.7,15.5a12.68,12.68,0,0,1,3-.38,8.63,8.63,0,0,1,1.31.1q.66.1,1.31.25a11.18,11.18,0,0,1,5.26,3.64q2.38,2.78,2.38,8.14v.48a2.5,2.5,0,0,1-.05.48,13.84,13.84,0,0,1-3.39,8.12A10.39,10.39,0,0,1,101.11,40a20.15,20.15,0,0,1-3.57-.35,9.25,9.25,0,0,1-4.07-2.07l-2.63,1.92h-1V5.31a1.11,1.11,0,0,0-.25-.68q-.25-.33-1.16-.33H87.26V2.83l.86-.18c.27-.05.52-.11.76-.18l1.21-.3,1.11-.3a21,21,0,0,0,2.17-.76L96.05,0Zm0,18.91a4.17,4.17,0,0,0,1.52,1.59,3.93,3.93,0,0,0,2.07.58h.3a5.52,5.52,0,0,0,4-2.58q1.79-2.43,1.8-8.44c0-.34,0-.69,0-1.06s0-.74-.08-1.11a12.19,12.19,0,0,0-1.39-4.85A4.37,4.37,0,0,0,100,18h-.46a10.08,10.08,0,0,0-1.87.38,6.48,6.48,0,0,0-1.62.73Z" fill="#818081"/><path d="M116.79,21a1.76,1.76,0,0,0-.3-1.21,1.16,1.16,0,0,0-.66-.35h-1.67V18a23.32,23.32,0,0,0,2.35-.46q1.24-.3,2.5-.71,1-.35,2-.78t2-.88V36.36q0,1,.41,1.21a1.88,1.88,0,0,0,.86.2h1.57v1.72H114V37.78h1.57a1.89,1.89,0,0,0,.86-.2q.4-.2.41-1.21ZM122,9.25a3.6,3.6,0,0,1-5.11,0,3.55,3.55,0,0,1-1-2.58A3.65,3.65,0,0,1,122,4.17a3.5,3.5,0,0,1,1,2.5,3.55,3.55,0,0,1-1,2.58" fill="#818081"/><path d="M129.85,22.3l.35-6.57h18.25V17.6L135.67,37.77h2.28a13.87,13.87,0,0,0,2-.18,14.12,14.12,0,0,0,2.4-.58,12.12,12.12,0,0,0,2.28-1,7.1,7.1,0,0,0,1.92-1.52l.1-1.57h1.82l-.35,6.52H128.49V37.67l13-20.23h-1.62a11.46,11.46,0,0,0-1.44.1,12.22,12.22,0,0,0-1.54.3A14.49,14.49,0,0,0,133.67,19a5,5,0,0,0-2.15,1.85l-.05,1.42Z" fill="#818081"/><path d="M85.76,33.37a6.54,6.54,0,1,1-6.54-6.54,6.54,6.54,0,0,1,6.54,6.54" fill="#e5a923"/></g></g></svg>