<svg xmlns="http://www.w3.org/2000/svg" viewBox="0 0 28.5 30.83"><title>brains</title><g id="Слой_2" data-name="Слой 2"><g id="Layer_1" data-name="Layer 1"><path d="M.5,11.08a9.16,9.16,0,0,1,4.73-8A5.14,5.14,0,0,1,9.67.5a5.08,5.08,0,0,1,.8.06,3.24,3.24,0,0,1,2.7,3.21V27.62a2.44,2.44,0,0,1-1.34,2.23,5.07,5.07,0,0,1-2.16.48A5.15,5.15,0,0,1,4.85,27a4,4,0,0,1-1.77-5.1,4,4,0,0,1-1.49-6.49A9.12,9.12,0,0,1,.5,11.08Z" fill="none" stroke="#000" stroke-miterlimit="10"/><path d="M4.34,18a5,5,0,0,1,5,5" fill="none" stroke="#000" stroke-linecap="round" stroke-linejoin="round"/><path d="M9.34,8.13a2.5,2.5,0,0,1-2.5,2.5" fill="none" stroke="#000" stroke-linecap="round" stroke-linejoin="round"/><path d="M.5,18.09a3.91,3.91,0,0,1,3.91-3.91" fill="none" stroke="#000" stroke-linecap="round" stroke-linejoin="round"/><path d="M8.88,30.29a4.56,4.56,0,0,1-4-5.08" fill="none" stroke="#000" stroke-linecap="round" stroke-linejoin="round"/><path d="M27.94,11.08a9.16,9.16,0,0,0-4.73-8A5.14,5.14,0,0,0,18.77.5a5.08,5.08,0,0,0-.8.06,3.24,3.24,0,0,0-2.7,3.21V27.62a2.44,2.44,0,0,0,1.34,2.23,5.07,5.07,0,0,0,2.16.48A5.15,5.15,0,0,0,23.59,27a4,4,0,0,0,1.77-5.1,4,4,0,0,0,1.49-6.49A9.12,9.12,0,0,0,27.94,11.08Z" fill="none" stroke="#000" stroke-linecap="round" stroke-linejoin="round"/><path d="M19.19,2.06a8.81,8.81,0,0,1,0,17.63" fill="none" stroke="#000" stroke-linecap="round" stroke-linejoin="round"/><path d="M24.19,13.13a5,5,0,0,1-5-5" fill="none" stroke="#000" stroke-linecap="round" stroke-linejoin="round"/><path d="M17.94,26.81a2.5,2.5,0,0,1,2.5-2.5" fill="none" stroke="#000" stroke-linecap="round" stroke-linejoin="round"/><path d="M19.52,30.29a4.56,4.56,0,0,0,4-5.08" fill="none" stroke="#000" stroke-linecap="round" stroke-linejoin="round"/></g></g></svg>