<?xml version="1.0" encoding="utf-8"?>
<!-- Generator: Adobe Illustrator 20.0.0, SVG Export Plug-In . SVG Version: 6.00 Build 0)  -->
<svg version="1.1" id="Слой_1" xmlns="http://www.w3.org/2000/svg" xmlns:xlink="http://www.w3.org/1999/xlink" x="0px" y="0px"
	 viewBox="0 0 14.9 14.9" style="enable-background:new 0 0 14.9 14.9;" xml:space="preserve">
<style type="text/css">
	.st0{fill:#F34F30;}
</style>
<path id="Event" class="st0" d="M12.8,5.3v7.5H2.1V5.3H12.8z M11.7,11.7V9.6H9.6v2.1L11.7,11.7z M11.7,8.5V6.4H9.6v2.1L11.7,8.5z
	 M8.5,11.7V9.6H6.4v2.1L8.5,11.7z M8.5,8.5V6.4H6.4v2.1L8.5,8.5z M5.3,11.7V9.6H3.2v2.1L5.3,11.7z M5.3,8.5V6.4H3.2v2.1L5.3,8.5z
	 M4.6,2.3V0.6C4.6,0.3,4.3,0,4,0C3.7,0,3.4,0.3,3.4,0.6v1.7c0,0.3,0.3,0.6,0.6,0.6C4.3,2.9,4.6,2.6,4.6,2.3z M13.3,13.9H1.6
	c-0.3,0-0.6-0.3-0.6-0.6v-9h12.8v9C13.9,13.6,13.6,13.9,13.3,13.9L13.3,13.9z M12.1,1.1v1.2c0,0.6-0.5,1.2-1.2,1.2
	c-0.6,0-1.1-0.5-1.1-1.2V1.1H5.2v1.2c0,0.6-0.5,1.1-1.2,1.1c-0.6,0-1.1-0.5-1.1-1.1V1.1H1.7C0.8,1.1,0,1.8,0,2.8v10.4
	c0,0.9,0.8,1.7,1.7,1.7c0,0,0,0,0,0h11.5c0.9,0,1.7-0.8,1.7-1.7c0,0,0,0,0,0V2.8c0-0.9-0.8-1.7-1.7-1.7l0,0L12.1,1.1z M11.5,2.3V0.6
	c0-0.3-0.3-0.6-0.6-0.6s-0.6,0.3-0.6,0.6v1.7c0,0.3,0.3,0.6,0.6,0.6S11.5,2.6,11.5,2.3C11.5,2.3,11.5,2.3,11.5,2.3z"/>
</svg>
