<svg xmlns="http://www.w3.org/2000/svg" viewBox="0 0 107.67 40"><title>cf_logo</title><g id="Слой_2" data-name="Слой 2"><g id="Home"><path d="M33.16,16.43a10.71,10.71,0,0,1-4.27.72c-5.75,0-8.71-3.58-8.71-8.31,0-5.67,4-8.83,9.08-8.83a9.8,9.8,0,0,1,4.09.74l-.76,3a8.12,8.12,0,0,0-3.16-.62c-3,0-5.3,1.8-5.3,5.5,0,3.33,2,5.43,5.33,5.43a9.4,9.4,0,0,0,3.13-.54Zm16.94-8c0,5.45-3.31,8.76-8.16,8.76s-7.82-3.72-7.82-8.46c0-5,3.18-8.71,8.09-8.71C47.31,0,50.1,3.82,50.1,8.41Zm-12,.22c0,3.26,1.53,5.55,4,5.55s4-2.42,4-5.65c0-3-1.43-5.55-4-5.55S38.09,5.4,38.09,8.63ZM52.57.49A33.56,33.56,0,0,1,57.65.15c3.16,0,5.2.57,6.81,1.78a7.35,7.35,0,0,1,2.81,6.26,8.43,8.43,0,0,1-2.76,6.73c-1.75,1.46-4.42,2.15-7.67,2.15a32.56,32.56,0,0,1-4.27-.25Zm3.77,13.57a6.92,6.92,0,0,0,1.31.07c3.4,0,5.62-1.85,5.62-5.82C63.3,4.86,61.27,3,58,3a7.82,7.82,0,0,0-1.7.15ZM73.51.27V16.9H69.73V.27ZM76.76,16.9V.27h4.39l3.45,6.09a48.21,48.21,0,0,1,2.71,5.7h.07a61.71,61.71,0,0,1-.32-6.93V.27h3.45V16.9H86.58L83,10.48a61.75,61.75,0,0,1-2.89-5.87l-.07,0c.1,2.2.15,4.54.15,7.25v5Zm30.9-.76a18.6,18.6,0,0,1-5.55.94c-3,0-5.23-.76-6.76-2.24a8,8,0,0,1-2.34-6c0-5.52,4-8.68,9.5-8.68a11.45,11.45,0,0,1,4.61.81l-.79,3a9.21,9.21,0,0,0-3.87-.72C99.33,3.21,97,5,97,8.58,97,12,99.11,14,102.19,14a5,5,0,0,0,1.85-.25V10.31h-2.57V7.37h6.19Zm-86.72,7H31.11v3.08H24.72V30h6v3.06h-6v6.68H20.95Zm22.89,9.59H37.72v3.95h6.83v3.08H33.95V23.13H44.21v3.08H37.72v3.45h6.12Zm3.4,3.16a9.59,9.59,0,0,0,4.17,1c1.73,0,2.64-.72,2.64-1.8s-.79-1.63-2.79-2.34c-2.76-1-4.56-2.49-4.56-4.91,0-2.84,2.37-5,6.29-5a10.18,10.18,0,0,1,4.24.84l-.84,3a7.9,7.9,0,0,0-3.48-.79c-1.63,0-2.42.74-2.42,1.6,0,1.06.94,1.53,3.08,2.34,2.93,1.09,4.32,2.61,4.32,5,0,2.79-2.15,5.15-6.71,5.15a10.88,10.88,0,0,1-4.71-1Zm16.4-9.59H59.18V23.13H72v3.16H67.42V39.75H63.64Z" fill="#f9dd29"/><path d="M8.44,14h.08a5.13,5.13,0,0,0,5.3-5.42c-.06-3.28-2.14-5.48-5.3-5.48H8.44A5.14,5.14,0,0,0,3.22,8.59,5.12,5.12,0,0,0,8.44,14Z" fill="#ffed00"/><path d="M4.35,22.77A106.91,106.91,0,0,1,0,39.69l.61-.05L6,39.15a82.5,82.5,0,0,0,7.51-17l-6.34.41Z" fill="#ffed00"/><path d="M8.69,8.59c0-1.85-.1-3.67-.25-5.47h.08c3.16,0,5.24,2.2,5.3,5.48A5.13,5.13,0,0,1,8.52,14H8.44C8.59,12.22,8.69,10.42,8.69,8.59Zm-8.08,31L6,39.15a82.5,82.5,0,0,0,7.51-17l-6.34.41A63.24,63.24,0,0,1,.61,39.63Z" fill="#f9dd29"/><path d="M8.44,3.12c.15,1.81.25,3.63.25,5.47S8.59,12.22,8.44,14A5.12,5.12,0,0,1,3.22,8.59,5.14,5.14,0,0,1,8.44,3.12ZM4.35,22.77A106.91,106.91,0,0,1,0,39.69l.61-.05a63.24,63.24,0,0,0,6.52-17Z" fill="#f1ca14"/><path d="M7.3,3.24A5.39,5.39,0,0,0,7,4.85a5.42,5.42,0,0,0,1.65,3.9c0-.05,0-.1,0-.15,0-1.85-.1-3.67-.25-5.47A6,6,0,0,0,7.3,3.24Z" fill="#f9dd29"/><path d="M8.52,3.11H8.44c.15,1.81.25,3.63.25,5.47,0,.05,0,.1,0,.15a5.42,5.42,0,0,0,4.91,1.43,6.21,6.21,0,0,0,.22-1.59C13.76,5.32,11.68,3.11,8.52,3.11Z" fill="#f8ea3b"/><path d="M101.48,7.38h6.19v5.41a18.69,18.69,0,0,1-7.22,1.45,18.67,18.67,0,0,1-6.37-1.13A8.69,8.69,0,0,1,93,8.78c0-5.53,4-8.68,9.5-8.68a11.46,11.46,0,0,1,4.61.81l-.79,3a9.22,9.22,0,0,0-3.87-.72C99.33,3.21,97,5,97,8.58,97,12,99.11,14,102.19,14a5,5,0,0,0,1.85-.25V10.31h-2.57ZM90.53.27H87.07V5.13c0,1.24,0,2.42.07,3.56a18.82,18.82,0,0,0,3.39,2.68Z" fill="#f8ea3b"/><path d="M80.21,14.54V16.9H76.76V15.5A18.59,18.59,0,0,1,80.21,14.54ZM72,23.13H67.57A18.59,18.59,0,0,0,66,39.76h1.38V26.29H72Zm13.19-8.82,1.43,2.58h3.95V15.6A18.63,18.63,0,0,0,85.15,14.31Z" fill="#f8ea3b"/><path d="M25.38,4.81A18.82,18.82,0,0,1,23,2.15,9.46,9.46,0,0,1,29.26,0a9.79,9.79,0,0,1,4.09.74l-.76,3a8.11,8.11,0,0,0-3.16-.62A5.17,5.17,0,0,0,25.38,4.81Zm12.78,5a9.47,9.47,0,0,1-.07-1.17c0-3.23,1.48-5.65,4-5.65s3.82,2.26,4,5a18.74,18.74,0,0,0,3.63-2.25A7.4,7.4,0,0,0,42.21,0c-4.91,0-8.09,3.72-8.09,8.71,0,.23,0,.45.05.68a18.8,18.8,0,0,0,3.92.42ZM52.57,3A18.79,18.79,0,0,0,54.4.28c-.66.06-1.29.12-1.83.21Z" fill="#f8ea3b"/></g></g></svg>