<?xml version="1.0" encoding="utf-8"?>
<!-- Generator: Adobe Illustrator 20.0.0, SVG Export Plug-In . SVG Version: 6.00 Build 0)  -->
<svg version="1.1" id="Слой_1" xmlns="http://www.w3.org/2000/svg" xmlns:xlink="http://www.w3.org/1999/xlink" x="0px" y="0px"
	 viewBox="0 0 14.9 14.9" style="enable-background:new 0 0 14.9 14.9;" xml:space="preserve">
<style type="text/css">
	.st0{fill:#F34F30;}
</style>
<path id="Event" class="st0" d="M7.6,2.4H6.8L6.5,7.5L6.6,8l3.8,3.4l0.6-0.6L7.9,7.4L7.6,2.4z M7.5,13.7c-3.4,0-6.2-2.8-6.2-6.2
	C1.3,4,4,1.2,7.5,1.3c3.4,0,6.2,2.8,6.2,6.2S10.9,13.7,7.5,13.7C7.5,13.7,7.5,13.7,7.5,13.7z M7.5,0C3.3,0,0,3.3,0,7.5
	s3.3,7.5,7.5,7.5s7.5-3.3,7.5-7.5S11.6,0,7.5,0C7.5,0,7.5,0,7.5,0z"/>
</svg>
