<svg xmlns="http://www.w3.org/2000/svg" viewBox="0 0 248.22 92.22"><defs><style>.cls-1{fill:#ffde17;}.cls-2{fill:#fff200;}.cls-3{fill:#ffc907;}.cls-4{fill:#f9ed32;}</style></defs><title>CodingFestLogo</title><g id="Layer_2" data-name="Layer 2"><g id="Home"><path class="cls-1" d="M76.44,37.87c-1.59.8-5.17,1.65-9.84,1.65-13.25,0-20.07-8.24-20.07-19.16C46.53,7.28,55.86,0,67.46,0A22.6,22.6,0,0,1,76.9,1.71L75.13,8.59a18.72,18.72,0,0,0-7.28-1.42c-6.88,0-12.22,4.15-12.22,12.68,0,7.68,4.55,12.51,12.28,12.51a21.66,21.66,0,0,0,7.22-1.25ZM115.5,19.39c0,12.57-7.62,20.19-18.82,20.19-11.37,0-18-8.59-18-19.5C78.66,8.59,86,0,97.31,0,109.08,0,115.5,8.81,115.5,19.39Zm-27.69.51c0,7.51,3.53,12.79,9.33,12.79s9.21-5.57,9.21-13c0-6.88-3.3-12.79-9.27-12.79S87.81,12.45,87.81,19.9ZM121.19,1.14A77.37,77.37,0,0,1,132.9.34c7.28,0,12,1.31,15.69,4.09,4,3,6.48,7.68,6.48,14.44,0,7.33-2.67,12.4-6.37,15.52-4,3.35-10.18,4.95-17.68,4.95a75.06,75.06,0,0,1-9.84-.57Zm8.7,31.27a15.94,15.94,0,0,0,3,.17c7.85.06,13-4.26,13-13.42.06-8-4.61-12.17-12.05-12.17a18,18,0,0,0-3.92.34ZM169.47.63V39h-8.7V.63ZM177,39V.63h10.12l8,14a111.15,111.15,0,0,1,6.25,13.13h.17a142.26,142.26,0,0,1-.74-16V.63h8V39h-9.1l-8.19-14.78a142.36,142.36,0,0,1-6.65-13.53l-.17.06c.23,5.06.34,10.46.34,16.72V39Zm71.25-1.76a42.89,42.89,0,0,1-12.79,2.16c-7,0-12.05-1.76-15.58-5.17s-5.46-8.3-5.4-13.93c.06-12.74,9.33-20,21.89-20A26.4,26.4,0,0,1,247,2.1L245.15,9a21.24,21.24,0,0,0-8.93-1.65c-7.22,0-12.68,4.09-12.68,12.4,0,7.9,4.95,12.57,12.05,12.57a11.6,11.6,0,0,0,4.26-.57v-8h-5.91V17h14.27ZM48.3,53.32H71.72v7.11H57v8.76H70.76v7.05H57V91.65H48.3Zm52.77,22.12H87v9.1h15.75v7.11H78.26V53.32h23.65v7.11H87v8h14.1Zm7.85,7.28a22.11,22.11,0,0,0,9.61,2.39c4,0,6.08-1.65,6.08-4.15s-1.82-3.75-6.43-5.4c-6.37-2.22-10.52-5.74-10.52-11.32,0-6.54,5.46-11.54,14.5-11.54a23.47,23.47,0,0,1,9.78,1.93l-1.93,7a18.22,18.22,0,0,0-8-1.82c-3.75,0-5.57,1.71-5.57,3.7,0,2.44,2.16,3.53,7.11,5.4,6.77,2.5,10,6,10,11.43,0,6.43-4.95,11.88-15.47,11.88a25.08,25.08,0,0,1-10.86-2.33ZM146.72,60.6H136.43V53.32h29.45V60.6H155.42v31h-8.7Z"/><path class="cls-2" d="M19.46,32.29l.18,0c7.42,0,12.22-5.36,12.22-12.5-.14-7.55-4.94-12.63-12.22-12.63l-.19,0c-7.17.09-12,5.27-12,12.62A11.81,11.81,0,0,0,19.46,32.29Z"/><path class="cls-2" d="M10,52.5a246.47,246.47,0,0,1-10,39l1.4-.13,12.34-1.11C20.32,79.55,26.5,65.13,31,51.12l-14.61,1Z"/><path class="cls-1" d="M20,19.81c0-4.25-.22-8.45-.58-12.62l.19,0c7.28,0,12.08,5.08,12.22,12.63,0,7.14-4.81,12.5-12.22,12.5l-.18,0C19.81,28.17,20,24,20,19.81ZM1.4,91.37l12.34-1.11C20.32,79.55,26.5,65.13,31,51.12l-14.61,1A145.79,145.79,0,0,1,1.4,91.37Z"/><path class="cls-3" d="M19.45,7.19c.35,4.16.58,8.36.58,12.62s-.22,8.36-.57,12.48a11.81,11.81,0,0,1-12-12.48C7.41,12.46,12.28,7.29,19.45,7.19ZM10,52.5a246.47,246.47,0,0,1-10,39l1.4-.13a145.79,145.79,0,0,0,15-39.29Z"/><path class="cls-1" d="M16.84,7.47a12.42,12.42,0,0,0-.62,3.71,12.5,12.5,0,0,0,3.8,9c0-.12,0-.24,0-.36,0-4.25-.22-8.45-.58-12.62A13.94,13.94,0,0,0,16.84,7.47Z"/><path class="cls-4" d="M19.64,7.18l-.19,0c.35,4.16.58,8.36.58,12.62,0,.12,0,.24,0,.36a12.5,12.5,0,0,0,11.33,3.31,14.31,14.31,0,0,0,.51-3.66C31.72,12.26,26.92,7.18,19.64,7.18Z"/><path class="cls-4" d="M233.94,17h14.27V29.47a43.08,43.08,0,0,1-16.66,3.33,43,43,0,0,1-14.68-2.61,20,20,0,0,1-2.44-9.95c.06-12.74,9.33-20,21.89-20A26.41,26.41,0,0,1,247,2.1L245.15,9a21.25,21.25,0,0,0-8.93-1.65c-7.22,0-12.68,4.1-12.68,12.4,0,7.9,4.95,12.57,12.06,12.57a11.61,11.61,0,0,0,4.26-.57v-8h-5.91ZM208.7.63h-8v11.2c0,2.86,0,5.57.16,8.21a43.4,43.4,0,0,0,7.81,6.18Z"/><path class="cls-4" d="M184.93,33.51V39h-8V35.74A42.85,42.85,0,0,1,184.93,33.51Zm-19,19.81h-10.1a42.87,42.87,0,0,0-3.55,38.33h3.18v-31h10.46ZM196.3,33l3.3,6h9.1V36A43,43,0,0,0,196.3,33Z"/><path class="cls-4" d="M58.51,11.09A43.4,43.4,0,0,1,53,5,21.81,21.81,0,0,1,67.46,0,22.57,22.57,0,0,1,76.9,1.71L75.13,8.59a18.7,18.7,0,0,0-7.28-1.42A11.92,11.92,0,0,0,58.51,11.09ZM88,22.59a21.83,21.83,0,0,1-.16-2.69c0-7.45,3.41-13,9.27-13,5.6,0,8.81,5.21,9.19,11.53a43.19,43.19,0,0,0,8.37-5.19C112.59,5.62,106.68,0,97.31,0,86,0,78.65,8.59,78.65,20.07c0,.54.09,1,.12,1.57a43.35,43.35,0,0,0,9,1ZM121.19,6.84A43.31,43.31,0,0,0,125.41.65c-1.52.13-3,.28-4.23.49Z"/></g></g></svg>