<svg xmlns="http://www.w3.org/2000/svg" viewBox="0 0 36 28.06"><title>equipment</title><g id="Слой_2" data-name="Слой 2"><g id="Home"><g id="_Organizui" data-name="!!!!Organizui"><g id="InfoTabs"><path d="M18,3.49a.68.68,0,0,1,.64.64.64.64,0,1,1-1.27,0A.68.68,0,0,1,18,3.49ZM34.41,0H1.59A1.63,1.63,0,0,0,0,1.59V24.88a3.12,3.12,0,0,0,3.18,3.18H32.82A3.12,3.12,0,0,0,36,24.88V1.59A1.56,1.56,0,0,0,34.41,0Zm-.53,24.88a1,1,0,0,1-1.06,1.06H3.18a1,1,0,0,1-1.06-1.06V23.82H9.74a1.08,1.08,0,0,0,.85.53H25.41a.84.84,0,0,0,.85-.53h7.62v1.06ZM2.12,21.71V2.12H33.88V21.71Z" fill="#433e3d"/></g></g></g></g></svg>