<svg xmlns="http://www.w3.org/2000/svg" viewBox="0 0 57.38 57.38"><title>falcon-10</title><path d="M36.32,34c14.8-15.47,18.9-26.76,20-31.22A1.4,1.4,0,0,0,54.63,1c-4.46,1.11-15.75,5.22-31.22,20-8.27-1.71-17.75,5.51-21.63,8.87a2.26,2.26,0,0,0-.12,3.31L12.9,44.48,24.13,55.72a2.26,2.26,0,0,0,3.31-.12C30.81,51.71,38,42.23,36.32,34Z" style="fill:none;stroke:#fff;stroke-miterlimit:10;stroke-width:2px"/><circle cx="37.88" cy="19.5" r="2.33" transform="translate(-2.69 32.5) rotate(-45)" style="fill:none;stroke:#fff;stroke-miterlimit:10;stroke-width:2px"/><circle cx="24.05" cy="33.33" r="2.33" transform="translate(-16.53 26.77) rotate(-45)" style="fill:none;stroke:#fff;stroke-miterlimit:10;stroke-width:2px"/><circle cx="30.93" cy="26.45" r="2.33" transform="translate(-9.64 29.62) rotate(-45)" style="fill:none;stroke:#fff;stroke-miterlimit:10;stroke-width:2px"/><line x1="9.95" y1="47.43" x2="4.29" y2="53.08" style="fill:none;stroke:#fff;stroke-linecap:round;stroke-miterlimit:10;stroke-width:2px"/><line x1="13.28" y1="50.22" x2="9.8" y2="53.71" style="fill:none;stroke:#fff;stroke-linecap:round;stroke-miterlimit:10;stroke-width:2px"/><line x1="7.16" y1="44.09" x2="3.67" y2="47.58" style="fill:none;stroke:#fff;stroke-linecap:round;stroke-miterlimit:10;stroke-width:2px"/></svg>