<svg xmlns="http://www.w3.org/2000/svg" viewBox="0 0 55.5 54.69"><title>find-outsource</title><path d="M43,29.31h.55a4,4,0,0,1,4,4v22.9a0,0,0,0,1,0,0h-6A2.63,2.63,0,0,1,39,53.62V33.35A4,4,0,0,1,43,29.31Z" transform="translate(104.12 42.43) rotate(135)" style="fill:none;stroke-miterlimit:10;stroke-width:2px"/><path d="M7.13,2.88H9.48A3.14,3.14,0,0,1,12.63,6v7.72a0,0,0,0,1,0,0H4a0,0,0,0,1,0,0V6A3.14,3.14,0,0,1,7.13,2.88Z" transform="translate(20.05 8.31) rotate(135)" style="fill:none;stroke-miterlimit:10;stroke-width:2px"/><line x1="12.14" y1="12.16" x2="22.5" y2="22.52" style="fill:none;stroke-miterlimit:10;stroke-width:2px"/><path d="M53.43,10.64l-4,4.05a5.84,5.84,0,0,1-8.26-8.27l4.15-4.15a15,15,0,0,0-5.93-1.21A15.11,15.11,0,0,0,24.66,20L4.87,39.74A7.91,7.91,0,0,0,16.06,50.93L36,31A15.13,15.13,0,0,0,54.5,16.22,15,15,0,0,0,53.43,10.64Z" style="fill:none;stroke-linejoin:round;stroke-width:2px"/><circle cx="10.95" cy="45.08" r="2.29" style="fill:none;stroke-miterlimit:10;stroke-width:2px"/></svg>
