<svg xmlns="http://www.w3.org/2000/svg" viewBox="0 0 122.12 40.04"><title>gew_logo</title><g id="Слой_2" data-name="Слой 2"><g id="Home"><path d="M74.81,2.68c0-.26-.1-.38-.3-.38s-.3.12-.3.38V8a.3.3,0,0,0,.3.3h1.86a.28.28,0,1,0,0-.55H74.81ZM71.88,6.43H69.4l1.23-3.35h0ZM69.2,7h2.87L72.47,8c.06.16.12.27.33.27a.24.24,0,0,0,.27-.23A.82.82,0,0,0,73,7.83l-1.9-5.1c-.07-.19-.17-.43-.47-.43s-.4.24-.47.43l-1.9,5.1a.82.82,0,0,0-.06.25.24.24,0,0,0,.27.23c.21,0,.26-.12.33-.27ZM64.35,5.38h1.05a1.2,1.2,0,0,1,1.35,1.17c0,.76-.51,1.16-1.34,1.16H64.35Zm0-2.48h.89a1,1,0,0,1,1.06,1,1,1,0,0,1-1.08,1h-.87Zm-.6,5c0,.21.1.32.37.32h1.36a1.67,1.67,0,0,0,1.88-1.69,1.4,1.4,0,0,0-1.3-1.49v0a1.2,1.2,0,0,0,.84-1.24,1.49,1.49,0,0,0-1.71-1.48H64.12c-.27,0-.37.11-.37.31Zm-3.9-.18C58.47,7.77,58,6.41,58,5.31s.47-2.46,1.86-2.46,1.86,1.35,1.86,2.46-.47,2.46-1.86,2.46M57.35,5.31c0,1.5.84,3,2.51,3s2.51-1.5,2.51-3-.84-3-2.51-3-2.51,1.5-2.51,3M54.92,2.68c0-.26-.1-.38-.3-.38s-.3.12-.3.38V8a.3.3,0,0,0,.3.3h1.86a.28.28,0,1,0,0-.55H54.92ZM51.37,4.93a.28.28,0,1,0,0,.55h1c0,1.19-.47,2.28-1.76,2.28s-2-1.12-2-2.46c0-1.14.58-2.46,2-2.46,1,0,1.42.67,1.69.67a.28.28,0,0,0,.29-.32c0-.24-.85-.9-2-.9-1.74,0-2.57,1.54-2.57,3s.75,3,2.59,3c1.3,0,2.41-.63,2.41-2.92,0-.24-.1-.46-.51-.46Z" fill="#fff"/><path d="M22.91.16a20.69,20.69,0,0,1,4.45,1l-2,5.58a14.42,14.42,0,0,0-3.14-.7Z" fill="#eed0d5"/><path d="M22.91.16a20.79,20.79,0,0,1,4.46,1L25.32,6.77a14.51,14.51,0,0,0-3.14-.7Z" fill="none" stroke="#eed0d5" stroke-miterlimit="3.86" stroke-width="0.04"/><path d="M27.37,1.19l.64.24L25.78,6.93l-.45-.16Z" fill="#fff"/><path d="M28,1.42l1,.41L26.47,7.21l-.68-.28Z" fill="#b3d8e9"/><path d="M28,1.42l1,.41L26.46,7.22l-.69-.28Z" fill="none" stroke="#b3d8e9" stroke-miterlimit="3.86" stroke-width="0.04"/><path d="M29,1.83a20.49,20.49,0,0,1,4.5,2.76L29.65,9.15a14.37,14.37,0,0,0-3.18-1.93Z" fill="#b3d8e9"/><path d="M29,1.83a20.55,20.55,0,0,1,4.51,2.76L29.65,9.15a14.36,14.36,0,0,0-3.18-1.94Z" fill="none" stroke="#b3d8e9" stroke-miterlimit="3.86" stroke-width="0.04"/><path d="M37.15,8.42l.45.65L32.54,12.3l-.32-.45Z" fill="#720854"/><path d="M37.15,8.41l.45.65L32.54,12.3l-.32-.46Z" fill="none" stroke="#720854" stroke-miterlimit="3.86" stroke-width="0.04"/><path d="M37.6,9.07a19.76,19.76,0,0,1,2,3.86L34,15a13.81,13.81,0,0,0-1.41-2.72Z" fill="#fff"/><path d="M37.61,9.06a19.73,19.73,0,0,1,2,3.86L34,15a13.83,13.83,0,0,0-1.42-2.72Z" fill="none" stroke="#fff" stroke-miterlimit="3.86" stroke-width="0.04"/><path d="M39.62,12.93a19.44,19.44,0,0,1,.62,1.88L34.4,16.35A13.91,13.91,0,0,0,34,15Z" fill="#c1c8ce"/><path d="M39.62,12.93a19.54,19.54,0,0,1,.62,1.89l-5.85,1.54A13.69,13.69,0,0,0,34,15Z" fill="none" stroke="#c1c8ce" stroke-miterlimit="3.86" stroke-width="0.04"/><path d="M40.94,20.38a19.57,19.57,0,0,1-.66,4.72l-5.89-1.51a13.67,13.67,0,0,0,.49-3.4V20l6.07,0c0,.15,0,.29,0,.44" fill="#e9e9e9"/><path d="M40.94,20.38a19.64,19.64,0,0,1-.67,4.73l-5.9-1.52a13.72,13.72,0,0,0,.49-3.4V20l6.08,0C40.95,20.09,40.94,20.23,40.94,20.38Z" fill="none" stroke="#e9e9e9" stroke-miterlimit="3.86" stroke-width="0.04"/><path d="M40.27,25.11a19.55,19.55,0,0,1-1.17,3.21l-5.56-2.48a13.71,13.71,0,0,0,.84-2.25Z" fill="#f6e932"/><path d="M40.28,25.11a19.66,19.66,0,0,1-1.17,3.22l-5.57-2.48a13.71,13.71,0,0,0,.84-2.25Z" fill="none" stroke="#f6e932" stroke-miterlimit="3.86" stroke-width="0.04"/><path d="M39.1,28.33A19.76,19.76,0,0,1,38,30.38l-5.24-3.1a14.06,14.06,0,0,0,.79-1.43Z" fill="#dbda23"/><path d="M39.1,28.33A19.91,19.91,0,0,1,38,30.39l-5.25-3.11a13.88,13.88,0,0,0,.79-1.44Z" fill="none" stroke="#dbda23" stroke-miterlimit="3.86" stroke-width="0.04"/><path d="M25.71,39.36l-.58.14-1.42-5.93.4-.09Z" fill="#72441e"/><path d="M25.71,39.36l-.58.14-1.43-5.94.4-.09Z" fill="none" stroke="#72441e" stroke-miterlimit="3.86" stroke-width="0.04"/><path d="M17.71,39.83a20.72,20.72,0,0,1-3.51-.78l1.92-5.85a14.45,14.45,0,0,0,2.43.55Z" fill="#a2acb3"/><path d="M17.71,39.84a20.88,20.88,0,0,1-3.52-.78l1.93-5.86a14.5,14.5,0,0,0,2.43.55Z" fill="none" stroke="#a2acb3" stroke-miterlimit="3.86" stroke-width="0.04"/><path d="M14.2,39.05q-.91-.29-1.79-.65l2.48-5.66q.6.26,1.23.46Z" fill="#a91a1d"/><path d="M14.2,39.06q-.92-.29-1.79-.66l2.48-5.66q.6.26,1.24.46Z" fill="none" stroke="#a91a1d" stroke-miterlimit="3.86" stroke-width="0.04"/><path d="M9,36.58l3.53-5.11a14.38,14.38,0,0,0,2.34,1.27L12.41,38.4A20.54,20.54,0,0,1,9,36.58" fill="#cd6351"/><path d="M9,36.58l3.54-5.11a14.33,14.33,0,0,0,2.35,1.27L12.41,38.4A20.54,20.54,0,0,1,9,36.58Z" fill="none" stroke="#cd6351" stroke-miterlimit="3.86" stroke-width="0.04"/><path d="M9,36.58l-.74-.52L12,31.11l.51.36Z" fill="#b05d26"/><path d="M9,36.58l-.74-.52,3.77-5,.51.36Z" fill="none" stroke="#b05d26" stroke-miterlimit="3.86" stroke-width="0.04"/><path d="M8.26,36.06a20.52,20.52,0,0,1-2.1-1.76l4.41-4.41A14.26,14.26,0,0,0,12,31.11Z" fill="#dbda23"/><path d="M8.26,36.06A20.6,20.6,0,0,1,6.15,34.3l4.42-4.41A14.3,14.3,0,0,0,12,31.11Z" fill="none" stroke="#dbda23" stroke-miterlimit="3.86" stroke-width="0.04"/><path d="M6.15,34.29A20,20,0,0,1,1.72,28L7.5,25.54a14,14,0,0,0,3.07,4.35Z" fill="#c4211a"/><path d="M6.15,34.3A20.07,20.07,0,0,1,1.71,28L7.5,25.53a14,14,0,0,0,3.07,4.35Z" fill="none" stroke="#c4211a" stroke-miterlimit="3.86" stroke-width="0.04"/><path d="M1.72,28l-.25-.57,5.86-2.28.17.4Z" fill="#a72822"/><path d="M1.71,28l-.25-.58,5.87-2.29.17.4Z" fill="none" stroke="#a72822" stroke-miterlimit="3.86" stroke-width="0.04"/><path d="M1.47,27.41A19.5,19.5,0,0,1,.42,24L6.6,22.76a13.69,13.69,0,0,0,.73,2.37Z" fill="#f6e7ba"/><path d="M1.47,27.42A19.51,19.51,0,0,1,.42,24L6.6,22.75a13.66,13.66,0,0,0,.73,2.38Z" fill="none" stroke="#f6e7ba" stroke-miterlimit="3.86" stroke-width="0.04"/><path d="M0,19.65a19.9,19.9,0,0,1,.19-2.39l6.21.85a13.68,13.68,0,0,0-.12,1.58q0,.31,0,.62L0,20.43q0-.39,0-.78" fill="#c7871b"/><path d="M0,19.66a19.81,19.81,0,0,1,.19-2.4l6.22.85a13.74,13.74,0,0,0-.12,1.58q0,.31,0,.62L0,20.44C0,20.18,0,19.92,0,19.66Z" fill="none" stroke="#c7871b" stroke-miterlimit="3.86" stroke-width="0.04"/><path d="M.22,17.26A19.48,19.48,0,0,1,1,13.77L7,15.69a13.66,13.66,0,0,0-.55,2.42Z" fill="#c4211a"/><path d="M.21,17.26A19.48,19.48,0,0,1,1,13.77L7,15.68a13.65,13.65,0,0,0-.55,2.42Z" fill="none" stroke="#c4211a" stroke-miterlimit="3.86" stroke-width="0.04"/><path d="M2.51,10.45q.43-.78.93-1.51l5.18,3.37q-.34.51-.64,1.05Z" fill="#e6bb9f"/><path d="M2.51,10.45q.43-.78.93-1.51l5.19,3.38c-.23.34-.44.69-.64,1.05Z" fill="none" stroke="#e6bb9f" stroke-miterlimit="3.86" stroke-width="0.04"/><path d="M3.45,8.94c.25-.36.5-.71.77-1.05l4.94,3.69q-.28.36-.53.74Z" fill="#e1a7bc"/><path d="M3.44,8.93q.37-.54.77-1.06l4.94,3.7q-.28.36-.53.74Z" fill="none" stroke="#e1a7bc" stroke-miterlimit="3.86" stroke-width="0.04"/><path d="M4.22,7.88A20.39,20.39,0,0,1,7.88,4.26L11.68,9a14.19,14.19,0,0,0-2.52,2.54Z" fill="#e1a7bc"/><path d="M4.22,7.88A20.42,20.42,0,0,1,7.88,4.26L11.69,9a14.21,14.21,0,0,0-2.53,2.55Z" fill="none" stroke="#e1a7bc" stroke-miterlimit="3.86" stroke-width="0.04"/><path d="M7.89,4.26q.78-.6,1.62-1.12l3.3,5.09q-.58.37-1.12.79Z" fill="#eecfdc"/><path d="M7.88,4.26q.79-.6,1.63-1.12l3.31,5.1c-.39.25-.77.51-1.13.8Z" fill="none" stroke="#eecfdc" stroke-miterlimit="3.86" stroke-width="0.04"/><path d="M9.52,3.13l.69-.41L13.3,7.93l-.48.29Z" fill="#9183b5"/><path d="M9.51,3.13l.69-.41,3.1,5.22-.48.29Z" fill="none" stroke="#9183b5" stroke-miterlimit="3.86" stroke-width="0.04"/><path d="M10.22,2.72l.71-.39L13.8,7.66l-.49.27Z" fill="#847289"/><path d="M10.21,2.72l.71-.39L13.8,7.66l-.49.27Z" fill="none" stroke="#847289" stroke-miterlimit="3.86" stroke-width="0.04"/><path d="M10.93,2.33q.83-.43,1.71-.79L15,7.09q-.61.25-1.19.56Z" fill="#fff"/><path d="M10.93,2.33q.83-.43,1.71-.79L15,7.1q-.61.25-1.19.56Z" fill="none" stroke="#fff" stroke-miterlimit="3.86" stroke-width="0.04"/><path d="M12.65,1.54q.48-.2,1-.37l2,5.66L15,7.09Z" fill="#606eb0"/><path d="M12.64,1.54c.32-.13.65-.26,1-.37l2.06,5.66L15,7.1Z" fill="none" stroke="#606eb0" stroke-miterlimit="3.86" stroke-width="0.04"/><path d="M13.63,1.17a20.71,20.71,0,0,1,4.22-1l.78,5.92a14.45,14.45,0,0,0-3,.72Z" fill="#96a0cf"/><path d="M13.63,1.17a20.78,20.78,0,0,1,4.23-1l.78,5.93a14.45,14.45,0,0,0-3,.72Z" fill="none" stroke="#96a0cf" stroke-miterlimit="3.86" stroke-width="0.04"/><path d="M22.91.16l-.73,5.9Q21.52,6,20.85,6h-.53l-.06-6h.59q1,0,2.05.14" fill="#9183b5"/><path d="M22.91.16l-.73,5.91C21.74,6,21.3,6,20.85,6h-.53l-.06-6h.59Q21.9,0,22.91.16Z" fill="none" stroke="#9183b5" stroke-miterlimit="3.86" stroke-width="0.04"/><path d="M20.26,0l.06,6-.67,0-.35-6,1,0" fill="#5f5c9d"/><path d="M20.26,0l.06,6-.67,0-.35-6Z" fill="none" stroke="#5f5c9d" stroke-miterlimit="3.86" stroke-width="0.04"/><path d="M17.86.18l.87-.09L19.25,6l-.61.07Z" fill="#606eb0"/><path d="M17.86.18l.88-.09.52,6-.61.07Z" fill="none" stroke="#606eb0" stroke-miterlimit="3.86" stroke-width="0.04"/><path d="M19.3.06l.35,6-.39,0L18.74.09l.55,0" fill="#4969a5"/><path d="M19.3.05l.35,6-.39,0-.52-6Z" fill="none" stroke="#4969a5" stroke-miterlimit="3.86" stroke-width="0.04"/><path d="M2.51,10.45,8,13.37l-.12.22L2.34,10.77l.17-.31" fill="#f6e7ba"/><path d="M2.51,10.45,8,13.38l-.12.22L2.33,10.76Z" fill="none" stroke="#f6e7ba" stroke-miterlimit="3.86" stroke-width="0.04"/><path d="M1,13.77q.17-.51.37-1L7.23,15c-.09.23-.17.46-.25.7Z" fill="#e09b1b"/><path d="M1,13.77q.17-.51.37-1L7.24,15q-.13.35-.25.7Z" fill="none" stroke="#e09b1b" stroke-miterlimit="3.86" stroke-width="0.04"/><path d="M7.24,15,1.41,12.76a19.7,19.7,0,0,1,.92-2l5.53,2.82A13.66,13.66,0,0,0,7.24,15" fill="#c7871b"/><path d="M7.24,15,1.41,12.76a20,20,0,0,1,.92-2L7.87,13.6A13.91,13.91,0,0,0,7.24,15Z" fill="none" stroke="#c7871b" stroke-miterlimit="3.86" stroke-width="0.04"/><path d="M17.72,39.83l.84-6.08a14.76,14.76,0,0,0,1.77.14q.7,0,1.38,0l.55,6.08Q21.2,40,20.11,40a21.19,21.19,0,0,1-2.39-.18" fill="#4c3316"/><path d="M17.71,39.84l.84-6.08a14.82,14.82,0,0,0,1.77.14c.47,0,.93,0,1.38,0l.55,6.09a21.32,21.32,0,0,1-2.16.07A21.07,21.07,0,0,1,17.71,39.84Z" fill="none" stroke="#4c3316" stroke-miterlimit="3.86" stroke-width="0.04"/><path d="M25.13,39.5a20.74,20.74,0,0,1-2.86.44l-.55-6.08a14.62,14.62,0,0,0,2-.29Z" fill="#72441e"/><path d="M25.13,39.5a20.85,20.85,0,0,1-2.87.44l-.55-6.09a14.57,14.57,0,0,0,2-.29Z" fill="none" stroke="#72441e" stroke-miterlimit="3.86" stroke-width="0.04"/><path d="M33.51,4.6a20.37,20.37,0,0,1,2.06,1.91l-4.46,4a14.23,14.23,0,0,0-1.45-1.35Z" fill="#b3d8e9"/><path d="M33.51,4.59a20.25,20.25,0,0,1,2.07,1.92l-4.47,4a14.37,14.37,0,0,0-1.46-1.35Z" fill="none" stroke="#b3d8e9" stroke-miterlimit="3.86" stroke-width="0.04"/><path d="M37.14,8.41l-4.92,3.42a14,14,0,0,0-1.11-1.34l4.46-4a20.18,20.18,0,0,1,1.57,1.9" fill="#940065"/><path d="M37.15,8.41l-4.93,3.43a14,14,0,0,0-1.11-1.34l4.47-4A20.27,20.27,0,0,1,37.15,8.41Z" fill="none" stroke="#940065" stroke-miterlimit="3.86" stroke-width="0.04"/><path d="M.42,24q-.17-.85-.27-1.72l6.25-.69c0,.4.11.8.19,1.19Z" fill="#fff"/><path d="M.42,24q-.17-.85-.27-1.72l6.26-.7q.07.61.2,1.2Z" fill="none" stroke="#fff" stroke-miterlimit="3.86" stroke-width="0.04"/><path d="M0,20.44l6.28-.13q0,.63.09,1.24l-6.25.69Q0,21.35,0,20.44" fill="#e09b1b"/><path d="M0,20.44l6.29-.13q0,.63.09,1.25l-6.26.69Q0,21.35,0,20.44Z" fill="none" stroke="#e09b1b" stroke-miterlimit="3.86" stroke-width="0.04"/><path d="M38,30.39a20.07,20.07,0,0,1-2.48,3.21L31,29.51a14.06,14.06,0,0,0,1.75-2.23Z" fill="#f6e932"/><path d="M38,30.39a20.1,20.1,0,0,1-2.48,3.21L31,29.51a14.07,14.07,0,0,0,1.76-2.23Z" fill="none" stroke="#f6e932" stroke-miterlimit="3.86" stroke-width="0.04"/><path d="M25.72,39.35l-1.6-5.89a14.35,14.35,0,0,0,6.86-4L35.5,33.6a20.54,20.54,0,0,1-9.78,5.76" fill="#e9e9e9"/><path d="M25.71,39.36l-1.6-5.89a14.36,14.36,0,0,0,6.87-4l4.52,4.08A20.56,20.56,0,0,1,25.71,39.36Z" fill="none" stroke="#e9e9e9" stroke-miterlimit="3.86" stroke-width="0.04"/><path d="M34.76,18.17l6-.78a19.58,19.58,0,0,1,.18,2.55l-6.07,0a13.78,13.78,0,0,0-.11-1.8" fill="#7d9dac"/><path d="M34.75,18.16l6-.78a19.71,19.71,0,0,1,.18,2.56l-6.08,0A13.87,13.87,0,0,0,34.75,18.16Z" fill="none" stroke="#7d9dac" stroke-miterlimit="3.86" stroke-width="0.04"/><path d="M40.24,14.82a19.44,19.44,0,0,1,.52,2.55l-6,.78a13.56,13.56,0,0,0-.36-1.8Z" fill="#0090c2"/><path d="M40.25,14.82a19.54,19.54,0,0,1,.52,2.56l-6,.78a13.34,13.34,0,0,0-.36-1.8Z" fill="none" stroke="#0090c2" stroke-miterlimit="3.86" stroke-width="0.04"/><path d="M119.1,12.87h1.1a1.28,1.28,0,1,1,0,2.56h-1.1Zm0,3.11h1a1.8,1.8,0,0,0,2-1.88,1.73,1.73,0,0,0-1.83-1.78h-1.42c-.29,0-.37.12-.37.32V17.9c0,.26.1.38.3.38s.3-.12.3-.38Zm-2.23-3.32c0-.26-.1-.38-.3-.38s-.3.12-.3.38V17.9c0,.26.1.38.3.38s.3-.12.3-.38Zm-6.09,2.82H114V17.9c0,.26.1.38.3.38s.3-.12.3-.38V12.65c0-.26-.1-.38-.3-.38s-.3.12-.3.38v2.27h-3.25V12.65c0-.26-.1-.38-.3-.38s-.3.12-.3.38V17.9c0,.26.1.38.3.38s.3-.12.3-.38Zm-3.71,2.81A1.8,1.8,0,0,0,109,16.41c0-1.89-2.81-1.36-2.81-2.66a1,1,0,0,1,1.07-.92c.63,0,.83.42,1.14.42a.3.3,0,0,0,.25-.32c0-.28-.71-.65-1.34-.65a1.59,1.59,0,0,0-1.71,1.51c0,1.8,2.81,1.24,2.81,2.66A1.33,1.33,0,0,1,107,17.73a2,2,0,0,1-1-.31l-.28-.14a.29.29,0,0,0-.28.29c0,.32.65.71,1.63.71m-5.52-5.41h1c.82,0,1.23.39,1.23,1.16s-.44,1.06-1.23,1.06h-1Zm0,2.74,2.37,2.54a.36.36,0,0,0,.27.13.25.25,0,0,0,.27-.25.29.29,0,0,0-.12-.26l-2-2.18h.55a1.56,1.56,0,0,0,1.58-1.67,1.63,1.63,0,0,0-1.79-1.6h-1.3c-.29,0-.37.12-.37.32V17.9c0,.26.1.38.3.38s.3-.12.3-.38Zm-6.66.61a2.22,2.22,0,0,0,4.43,0V12.65c0-.26-.1-.38-.3-.38s-.3.12-.3.38v3.5a1.62,1.62,0,0,1-3.24,0v-3.5c0-.26-.1-.38-.3-.38s-.3.12-.3.38Zm-3.38-.66h1.65a.28.28,0,1,0,0-.55H91.52V12.87h1.72a.28.28,0,1,0,0-.55h-2c-.27,0-.37.11-.37.32v5.28c0,.21.1.32.37.32h2a.28.28,0,1,0,0-.55H91.52Zm-6.08-2.19h0l3.21,4.7c.1.14.17.22.32.22s.28-.07.28-.37V12.65c0-.26-.1-.38-.3-.38s-.3.12-.3.38v4.48h0l-3.17-4.64a.41.41,0,0,0-.35-.22c-.17,0-.3.12-.3.35V17.9c0,.26.1.38.3.38s.3-.12.3-.38Zm-4,2.19h1.65a.28.28,0,1,0,0-.55H81.42V12.87h1.72a.28.28,0,1,0,0-.55h-2c-.27,0-.37.11-.37.32v5.28c0,.21.1.32.37.32h2a.28.28,0,1,0,0-.55H81.41ZM76.6,12.87h1c.82,0,1.23.39,1.23,1.16s-.44,1.06-1.23,1.06h-1Zm0,2.74L79,18.15a.36.36,0,0,0,.27.13A.25.25,0,0,0,79.5,18a.29.29,0,0,0-.12-.26l-2-2.18h.55a1.56,1.56,0,0,0,1.58-1.67,1.63,1.63,0,0,0-1.79-1.6h-1.3c-.29,0-.37.12-.37.32V17.9c0,.26.1.38.3.38s.3-.12.3-.38Zm-4.78-2.74h1.1a1.28,1.28,0,1,1,0,2.56h-1.1Zm0,3.11h1a1.8,1.8,0,0,0,2-1.88A1.73,1.73,0,0,0,73,12.32H71.6c-.29,0-.37.12-.37.32V17.9c0,.26.1.38.3.38s.3-.12.3-.38Zm-4-.42h1.65a.28.28,0,1,0,0-.55H67.82V12.87h1.72a.28.28,0,1,0,0-.55h-2c-.27,0-.37.11-.37.32v5.28c0,.21.1.32.37.32h2a.28.28,0,1,0,0-.55H67.81ZM63,12.87h1c.82,0,1.23.39,1.23,1.16s-.44,1.06-1.23,1.06H63Zm0,2.74,2.37,2.54a.36.36,0,0,0,.27.13A.25.25,0,0,0,65.9,18a.29.29,0,0,0-.12-.26l-2-2.18h.55a1.56,1.56,0,0,0,1.58-1.67,1.63,1.63,0,0,0-1.79-1.6h-1.3c-.29,0-.37.12-.37.32V17.9c0,.26.1.38.3.38s.3-.12.3-.38Zm-3.15-2.74H61a.28.28,0,1,0,0-.55H58.11a.28.28,0,1,0,0,.55h1.15v5c0,.26.1.38.3.38s.3-.12.3-.38Zm-7,.5h0l3.21,4.7c.1.14.17.22.32.22s.28-.07.28-.37V12.65c0-.26-.1-.38-.3-.38s-.3.12-.3.38v4.48h0L52.9,12.49a.41.41,0,0,0-.35-.22c-.17,0-.3.12-.3.35V17.9c0,.26.1.38.3.38s.3-.12.3-.38Zm-4,2.19h1.65a.28.28,0,1,0,0-.55H48.84V12.87h1.72a.28.28,0,1,0,0-.55h-2c-.27,0-.37.11-.37.32v5.28c0,.21.1.32.37.32h2a.28.28,0,1,0,0-.55H48.83Z" fill="#fff"/><path d="M64.16,25.34,67,28.05a.51.51,0,0,0,.36.2.26.26,0,0,0,.27-.26.4.4,0,0,0-.13-.27l-2.79-2.66,2.59-2.33a.28.28,0,0,0,.13-.26.24.24,0,0,0-.26-.25.54.54,0,0,0-.36.2l-2.65,2.38v-2.2c0-.26-.1-.38-.3-.38s-.3.12-.3.38v5.25c0,.26.1.38.3.38s.3-.12.3-.38Zm-4,.19h1.65a.28.28,0,1,0,0-.55H60.15V22.84h1.72a.28.28,0,1,0,0-.55h-2c-.27,0-.36.11-.36.32v5.28c0,.21.1.32.36.32h2a.28.28,0,1,0,0-.55H60.14Zm-4,0h1.65a.28.28,0,1,0,0-.55H56.13V22.84h1.72a.28.28,0,1,0,0-.55h-2c-.27,0-.36.11-.36.32v5.28c0,.21.1.32.36.32h2a.28.28,0,1,0,0-.55H56.12Zm-6.79,2h0l-.8-5a.31.31,0,0,0-.32-.3.24.24,0,0,0-.27.25,3.87,3.87,0,0,0,.1.61l.84,4.82a.43.43,0,0,0,.44.33.42.42,0,0,0,.45-.33l1.32-4.74h0l1.29,4.74a.42.42,0,0,0,.45.33.43.43,0,0,0,.44-.33l.87-4.82c.06-.31.1-.55.1-.61a.24.24,0,0,0-.27-.25.31.31,0,0,0-.32.3l-.8,5h0l-1.43-5c0-.14-.12-.28-.32-.28s-.27.14-.32.28Z" fill="#fff"/><path d="M78.55,38.22a1.8,1.8,0,0,0,1.88-1.88c0-1.89-2.81-1.36-2.81-2.66a1,1,0,0,1,1.07-.92c.63,0,.83.42,1.14.42a.3.3,0,0,0,.25-.32c0-.28-.71-.65-1.34-.65A1.59,1.59,0,0,0,77,33.72c0,1.8,2.81,1.24,2.81,2.66a1.33,1.33,0,0,1-1.36,1.29,2,2,0,0,1-1-.31l-.28-.14a.29.29,0,0,0-.28.29c0,.32.65.71,1.63.71m-7.23-2.06a2.22,2.22,0,0,0,4.43,0V32.59c0-.26-.1-.38-.3-.38s-.3.12-.3.38v3.5a1.62,1.62,0,0,1-3.24,0v-3.5c0-.26-.1-.38-.3-.38s-.3.12-.3.38Zm-4.15-3.35h1c.82,0,1.23.39,1.23,1.16S69,35,68.21,35h-1Zm0,2.74,2.37,2.54a.36.36,0,0,0,.27.13.25.25,0,0,0,.27-.25.29.29,0,0,0-.12-.26l-2-2.18h.55A1.56,1.56,0,0,0,70,33.86a1.63,1.63,0,0,0-1.79-1.6h-1.3c-.29,0-.37.12-.37.31v5.26c0,.26.1.38.3.38s.3-.12.3-.38Zm-2.93.79H61.76L63,33h0Zm-2.67.55h2.87l.39,1.06c.06.16.12.27.33.27a.24.24,0,0,0,.27-.23.82.82,0,0,0-.06-.25l-1.9-5.1c-.07-.19-.17-.43-.46-.43s-.4.24-.47.43l-1.9,5.1a.82.82,0,0,0-.06.25.24.24,0,0,0,.27.23c.21,0,.26-.12.33-.27Zm-3.75-4.29c0-.26-.1-.38-.3-.38s-.3.12-.3.38v5.28a.3.3,0,0,0,.3.3h1.86a.28.28,0,1,0,0-.55H57.81Zm-4,2.91h1.65a.28.28,0,1,0,0-.55H53.8V32.81h1.72a.28.28,0,1,0,0-.55h-2c-.27,0-.37.11-.37.31v5.28c0,.21.1.32.37.32h2a.28.28,0,1,0,0-.55H53.79Zm-5-.21h1.05a1.2,1.2,0,0,1,1.35,1.17c0,.76-.51,1.16-1.34,1.16H48.83Zm0-2.48h.89a1,1,0,0,1,1.06,1,1,1,0,0,1-1.08,1h-.87Zm-.6,5c0,.21.1.32.37.32H50a1.67,1.67,0,0,0,1.88-1.69A1.4,1.4,0,0,0,50.54,35v0a1.2,1.2,0,0,0,.84-1.24,1.49,1.49,0,0,0-1.71-1.48H48.6c-.27,0-.37.11-.37.31Z" fill="#fff"/></g></g></svg>