<svg xmlns="http://www.w3.org/2000/svg" viewBox="0 0 20.04 11.4"><title>info_vk</title><g id="Слой_2" data-name="Слой 2"><g id="Слой_1-2" data-name="Слой 1"><path d="M11.83,5.25c.15.37.41.44.71.18a5.68,5.68,0,0,0,.79-.87,15.37,15.37,0,0,0,1.89-3.48,1.8,1.8,0,0,1,.1-.22.6.6,0,0,1,.57-.31h3.26a2.34,2.34,0,0,1,.58.08A.36.36,0,0,1,20,1a1.89,1.89,0,0,1-.25.82,15.57,15.57,0,0,1-1.57,2.38L17,5.84a1.52,1.52,0,0,0-.15.27.7.7,0,0,0,.07.79,10,10,0,0,0,.74.78A15.8,15.8,0,0,1,19.49,9.6a6.66,6.66,0,0,1,.43.68,1.13,1.13,0,0,1,.11.34.49.49,0,0,1-.24.54,1.28,1.28,0,0,1-.7.21H16.66a2.55,2.55,0,0,1-2.12-.93c-.38-.4-.74-.82-1.12-1.23A2.68,2.68,0,0,0,13,8.94a.63.63,0,0,0-1,.25,2.93,2.93,0,0,0-.26,1.07v.4a.66.66,0,0,1-.61.71h-.07a9.56,9.56,0,0,1-2.72-.18,7.43,7.43,0,0,1-3.5-2.11,18.9,18.9,0,0,1-2.4-3.3A40.13,40.13,0,0,1,.11,1.35C-.12.82,0,.55.63.53H3.37a.87.87,0,0,1,.89.59A18.1,18.1,0,0,0,6.18,4.64a7.71,7.71,0,0,0,.55.67,1.11,1.11,0,0,0,.25.2.42.42,0,0,0,.68-.22,3.32,3.32,0,0,0,.18-.75A10.27,10.27,0,0,0,7.81,2a1.89,1.89,0,0,0-.26-.7A1.08,1.08,0,0,0,6.79.84C6.62.8,6.6.77,6.71.62A1.29,1.29,0,0,1,7.6.12a10.72,10.72,0,0,1,3.21,0c.68.11.87.33.9,1s0,1.14,0,1.7A21.91,21.91,0,0,0,11.83,5.25Z" fill="#fff"/></g></g></svg>