<svg xmlns="http://www.w3.org/2000/svg" viewBox="0 0 29.62 29.62"><defs><style>.cls-1{fill:#fff;}</style></defs><title>ic_inst</title><g id="Layer_2" data-name="Layer 2"><g id="Layer_1-2" data-name="Layer 1"><g id="InstagrammBtn"><path class="cls-1" d="M14.81,23a8.2,8.2,0,1,1,8.2-8.2,8.21,8.21,0,0,1-8.2,8.2m0-14.09a5.89,5.89,0,1,0,5.89,5.89,5.89,5.89,0,0,0-5.89-5.89m6.55,20.7H8.26A8.27,8.27,0,0,1,0,21.36V8.26A8.27,8.27,0,0,1,8.26,0h13.1a8.27,8.27,0,0,1,8.26,8.26v13.1a8.27,8.27,0,0,1-8.26,8.26M8.26,2.31A6,6,0,0,0,2.31,8.26v13.1a6,6,0,0,0,5.95,5.95h13.1a6,6,0,0,0,5.95-5.95V8.26a6,6,0,0,0-5.95-5.95ZM24.61,6.77a1.54,1.54,0,1,0-1.54,1.54,1.54,1.54,0,0,0,1.54-1.54"/></g></g></g></svg>