<svg xmlns="http://www.w3.org/2000/svg" viewBox="0 0 26 26"><defs><style>.cls-1{fill:#fff;fill-rule:evenodd;}</style></defs><title>ic_in</title><g id="Layer_2" data-name="Layer 2"><g id="Layer_1-2" data-name="Layer 1"><g id="LinkedInBtn"><path class="cls-1" d="M22,22.07H18V15.5c0-1.59-.42-2.67-1.84-2.67a2.07,2.07,0,0,0-2,1.44,2.68,2.68,0,0,0-.13,1v6.85H9.95L9.92,10H14l0,1.71a3.79,3.79,0,0,1,3.48-2C20.1,9.73,22,11.42,22,15v7ZM5.92,8.39h0a2,2,0,1,1,.05-4.08,2,2,0,1,1,0,4.08ZM8,22.07H4L4,10H8ZM21.13,0H4.88A4.87,4.87,0,0,0,0,4.88V21.13A4.87,4.87,0,0,0,4.88,26H21.13A4.87,4.87,0,0,0,26,21.13V4.88A4.87,4.87,0,0,0,21.13,0Z"/></g></g></g></svg>