<?xml version="1.0" encoding="utf-8"?>
<!-- Generator: Adobe Illustrator 20.0.0, SVG Export Plug-In . SVG Version: 6.00 Build 0)  -->
<svg version="1.1" id="Слой_1" xmlns="http://www.w3.org/2000/svg" xmlns:xlink="http://www.w3.org/1999/xlink" x="0px" y="0px"
	 viewBox="0 0 9.6 14.9" style="enable-background:new 0 0 9.6 14.9;" xml:space="preserve">
<style type="text/css">
	.st0{fill:#F34F30;}
</style>
<path id="Event" class="st0" d="M4.8,5.6c-0.7,0-1.3-0.5-1.4-1.2c0-0.7,0.6-1.3,1.4-1.2c0.7,0,1.3,0.5,1.4,1.2
	C6.1,5.1,5.5,5.6,4.8,5.6z M4.8,0C2.3-0.1,0.1,1.8,0,4.3c0,0,0,0,0,0c0,3.7,4.8,10.6,4.8,10.6S9.6,8,9.6,4.4C9.5,1.8,7.4-0.1,4.8,0
	C4.8,0,4.8,0,4.8,0z"/>
</svg>
