<svg xmlns="http://www.w3.org/2000/svg" viewBox="0 0 35.7 43.93"><title>materials</title><path d="M31.58,38.84H4.12A4.12,4.12,0,0,1,0,34.72V4.12A4.12,4.12,0,0,1,4.12,0H31.58A4.12,4.12,0,0,1,35.7,4.12v30.6A4.12,4.12,0,0,1,31.58,38.84ZM4.12,2.75A1.37,1.37,0,0,0,2.75,4.12v30.6A1.37,1.37,0,0,0,4.12,36.1H31.58A1.37,1.37,0,0,0,33,34.72V4.12a1.37,1.37,0,0,0-1.37-1.37Z" style="fill:#433e3d"/><path d="M6.86,38.84a1.37,1.37,0,0,1-1.37-1.37V1.37a1.37,1.37,0,0,1,2.75,0v36.1A1.37,1.37,0,0,1,6.86,38.84Z" style="fill:#433e3d"/><path d="M34.32,43.93H5.49A5.5,5.5,0,0,1,0,38.44V33.29a1.37,1.37,0,1,1,2.75,0v5.15a2.75,2.75,0,0,0,2.75,2.75H34.32a1.37,1.37,0,1,1,0,2.75Z" style="fill:#433e3d"/></svg>