<svg xmlns="http://www.w3.org/2000/svg" viewBox="0 0 62 62"><title>planet-earth</title><circle cx="31" cy="31" r="30" style="fill:none;stroke:#fff;stroke-miterlimit:10;stroke-width:2px"/><path d="M1.65,26c-1,3.61,2.32,7.16,5.9,8.21s7.41.41,11.14.39a5.27,5.27,0,0,1,2.07.29,5.07,5.07,0,0,1,2.41,3,5.73,5.73,0,0,1,.57,2.75c-.16,1.56-1.38,2.77-2.34,4a14.77,14.77,0,0,0-2.21,13.57" style="fill:none;stroke:#fff;stroke-miterlimit:10;stroke-width:2px"/><path d="M31.38,1.28A1.79,1.79,0,0,1,31,3.88a6.54,6.54,0,0,1-2.8,1,16.32,16.32,0,0,0-4.91,1.92,5,5,0,0,0-2.13,2,5.89,5.89,0,0,0-.4,2.15l-.47,8a3.25,3.25,0,0,0,.09,1.27c.46,1.31,2.21,1.47,3.59,1.4a3,3,0,0,0,2.21-.72,4,4,0,0,0,.61-1.36,6,6,0,0,1,5.64-3.85,2.12,2.12,0,0,1,1.56.58A4.82,4.82,0,0,1,34.65,18c.74,2.11,3.74,2.77,4.39,4.91.2.65.14,1.35.29,2,.39,1.63,1.95,2.64,3.08,3.88a3.84,3.84,0,0,1,1,3.64,1.26,1.26,0,0,0,.88,1.8,2.78,2.78,0,0,0,2.48-.94,5.09,5.09,0,0,0,.49-4.54,37.15,37.15,0,0,1-1.42-4.53A1.83,1.83,0,0,1,46,22.9a1.93,1.93,0,0,1,1.19-.66A11.87,11.87,0,0,1,51.77,22a2.56,2.56,0,0,0,2.83-1.7A5,5,0,0,1,57,17.44" style="fill:none;stroke:#fff;stroke-miterlimit:10;stroke-width:2px"/></svg>