<svg xmlns="http://www.w3.org/2000/svg" viewBox="0 0 26.65 25.84"><title>plan</title><g id="Слой_2" data-name="Слой 2"><g id="Layer_1" data-name="Layer 1"><rect x="1.15" y="7.84" width="2.5" height="2.5" fill="none" stroke="#000" stroke-linecap="round" stroke-linejoin="round"/><rect x="1.15" y="12.84" width="2.5" height="2.5" fill="none" stroke="#000" stroke-linecap="round" stroke-linejoin="round"/><rect x="1.15" y="17.84" width="2.5" height="2.5" fill="none" stroke="#000" stroke-linecap="round" stroke-linejoin="round"/><rect x="1.15" y="22.84" width="2.5" height="2.5" fill="none" stroke="#000" stroke-linecap="round" stroke-linejoin="round"/><polygon points="26.15 4.09 6.15 4.09 6.15 4.09 26.15 4.09 26.15 4.09" fill="none" stroke="#000" stroke-linecap="round" stroke-linejoin="round"/><polygon points="21.15 9.09 6.15 9.09 6.15 9.09 21.15 9.09 21.15 9.09" fill="none" stroke="#000" stroke-linecap="round" stroke-linejoin="round"/><polygon points="23.65 14.09 6.15 14.09 6.15 14.09 23.65 14.09 23.65 14.09" fill="none" stroke="#000" stroke-linecap="round" stroke-linejoin="round"/><polygon points="18.65 19.09 6.15 19.09 6.15 19.09 18.65 19.09 18.65 19.09" fill="none" stroke="#000" stroke-linecap="round" stroke-linejoin="round"/><polygon points="13.65 24.09 6.15 24.09 6.15 24.09 13.65 24.09 13.65 24.09" fill="none" stroke="#000" stroke-linecap="round" stroke-linejoin="round"/><polyline points="0.5 2.88 2.02 4.34 4.8 0.5" fill="none" stroke="#000" stroke-linecap="round" stroke-linejoin="round"/></g></g></svg>