<svg xmlns="http://www.w3.org/2000/svg" viewBox="0 0 60.48 60.5"><title>skyperoom</title><path d="M57.95,30.34c-.15,1.47-.32,3-.48,4.58a1.05,1.05,0,0,0,.09.56,16.29,16.29,0,0,1-12,23.83A15.27,15.27,0,0,1,36.4,58a4.26,4.26,0,0,0-2.51-.37,26.88,26.88,0,0,1-22.61-7.32A26.89,26.89,0,0,1,2.66,29.22c0-1.15.24-2.29.32-3.43a2,2,0,0,0-.17-1A16.35,16.35,0,0,1,25,2.88a3.39,3.39,0,0,0,1.74,0A27.6,27.6,0,0,1,57.52,26C57.74,27.38,57.8,28.82,57.95,30.34Zm-27.8,15A16,16,0,0,0,38,43.68a8.11,8.11,0,0,0,4.42-7.74,7,7,0,0,0-4.33-6.83,49.6,49.6,0,0,0-6.24-1.85,58.38,58.38,0,0,1-5.64-1.61,2.5,2.5,0,0,1-.48-4.39c1.93-1.6,6.38-1.46,8.49.32.76.64,1.38,1.43,2.09,2.12a3,3,0,0,0,3.45.42,2.52,2.52,0,0,0,1.47-2.66,5.08,5.08,0,0,0-2.28-3.53,14.67,14.67,0,0,0-8.12-2.8,14.89,14.89,0,0,0-9,2,8.11,8.11,0,0,0-2.12,11.6,9.8,9.8,0,0,0,5.49,3.07c2.76.72,5.53,1.38,8.28,2.12a2.78,2.78,0,0,1,2.19,2.21,3.11,3.11,0,0,1-1.24,3.13c-2.23,1.83-6.91,1.66-9-.38-.86-.82-1.55-1.81-2.38-2.66a3,3,0,0,0-3.55-.55,2.69,2.69,0,0,0-1.33,3A6.52,6.52,0,0,0,21.19,43,16,16,0,0,0,30.14,45.36Z" style="fill:none;stroke:#f0512f;stroke-miterlimit:10;stroke-width:2px"/></svg>