<svg xmlns="http://www.w3.org/2000/svg" viewBox="0 0 373.96 42.38"><title>startuplife_logo</title><path d="M27.94,13.91A32,32,0,0,0,24.32,12a33.19,33.19,0,0,0-3.54-1.32A12.77,12.77,0,0,0,17,10.11a5.32,5.32,0,0,0-2.43.47,1.64,1.64,0,0,0-.91,1.58,1.82,1.82,0,0,0,.53,1.34,5,5,0,0,0,1.52,1,18.92,18.92,0,0,0,2.43.85q1.43.41,3.24,1a42.63,42.63,0,0,1,5.17,1.93,16.09,16.09,0,0,1,3.95,2.48A9.58,9.58,0,0,1,33,24.2a12.59,12.59,0,0,1,.88,5,13.09,13.09,0,0,1-1.37,6.28,11.27,11.27,0,0,1-3.62,4.06,15.29,15.29,0,0,1-5.09,2.19,24.66,24.66,0,0,1-5.7.67A32.28,32.28,0,0,1,13.39,42a40.45,40.45,0,0,1-4.76-1,41.58,41.58,0,0,1-4.56-1.52,29.07,29.07,0,0,1-4.06-2l4.91-10a34.31,34.31,0,0,0,4.27,2.28,30.27,30.27,0,0,0,4.24,1.58,16.89,16.89,0,0,0,4.82.7,4.9,4.9,0,0,0,2.6-.5,1.52,1.52,0,0,0,.73-1.32,1.88,1.88,0,0,0-.73-1.49,6.71,6.71,0,0,0-2-1.08q-1.29-.47-3-.94t-3.54-1.11a30.37,30.37,0,0,1-4.73-2,12.81,12.81,0,0,1-3.27-2.46,8.75,8.75,0,0,1-1.9-3.13,12.18,12.18,0,0,1-.61-4A13.94,13.94,0,0,1,3.07,7.95,12.48,12.48,0,0,1,6.49,3.57,15.3,15.3,0,0,1,11.43.91,18.82,18.82,0,0,1,17.3,0a22.31,22.31,0,0,1,4.44.44,35.63,35.63,0,0,1,4.18,1.11A40.1,40.1,0,0,1,29.69,3q1.75.79,3.16,1.49Zm42.18-3.62H58.19V41.85H46.8V10.29h-12V.35h35.3ZM79.52.35h10.4l14.38,41.5H92.73l-2.51-8.12h-11l-2.45,8.12H65.09Zm8.88,25.78L84.72,13.27,80.87,26.13Zm18,15.72V.35h19.06a12.61,12.61,0,0,1,5.61,1.26,14.58,14.58,0,0,1,4.41,3.27,15.3,15.3,0,0,1,2.89,4.62,13.85,13.85,0,0,1,1.05,5.23,14.76,14.76,0,0,1-1.58,6.75,13.76,13.76,0,0,1-4.38,5.11l8.77,15.26H129.39l-7.31-12.74h-4.27V41.85Zm11.4-22.68H125A2.52,2.52,0,0,0,127,18a5.23,5.23,0,0,0,.91-3.27,4.7,4.7,0,0,0-1.05-3.3,3,3,0,0,0-2.1-1.14h-6.9Zm58.76-8.88H164.66V41.85h-11.4V10.29h-12V.35h35.3Zm20.87,21.8a6.27,6.27,0,0,0,3.39-.88,7,7,0,0,0,2.28-2.31,10.62,10.62,0,0,0,1.29-3.3,18.33,18.33,0,0,0,.41-3.92V.35h11.4V21.69a28.53,28.53,0,0,1-1.11,8.1,17.58,17.58,0,0,1-3.45,6.52,16.3,16.3,0,0,1-5.87,4.33,20.3,20.3,0,0,1-8.33,1.58,19.82,19.82,0,0,1-8.5-1.67,16.31,16.31,0,0,1-5.82-4.47,18,18,0,0,1-3.33-6.52,28.69,28.69,0,0,1-1.05-7.86V.35h11.4V21.69a18.69,18.69,0,0,0,.41,3.95A10.59,10.59,0,0,0,191.84,29a6.79,6.79,0,0,0,2.25,2.28A6.28,6.28,0,0,0,197.45,32.09Zm24.93,9.76V.35h17.89a12.62,12.62,0,0,1,5.61,1.26,14.58,14.58,0,0,1,4.41,3.27,15.3,15.3,0,0,1,2.89,4.62,13.85,13.85,0,0,1,1.05,5.23,15.22,15.22,0,0,1-3.77,10,13.22,13.22,0,0,1-4.33,3.21,12.93,12.93,0,0,1-5.58,1.2h-6.78V41.85Zm11.4-22.68h6a2.67,2.67,0,0,0,2-1,5.1,5.1,0,0,0,.91-3.48q0-2.57-1.05-3.51a3.19,3.19,0,0,0-2.1-.94h-5.73Z" style="fill:#fff"/><path d="M261.67,41.85V.35h11.4V31.91h18.82v9.94Zm32.57,0V.35h11.4v41.5Zm18,0V.35h28.47v9.94H323.68v6.9h13.91v9.24H323.68V41.85ZM374,31.91v9.94H344.38V.35h29.05v9.94H355.78v5.85h15.08v9.24H355.78v6.55Z" style="fill:#e46e2e"/></svg>