<svg xmlns="http://www.w3.org/2000/svg" viewBox="0 0 160 18.13"><title>startuplife_logo</title><g id="Слой_2" data-name="Слой 2"><g id="Home"><path d="M12,6a13.7,13.7,0,0,0-1.55-.8,14.2,14.2,0,0,0-1.51-.56,5.46,5.46,0,0,0-1.64-.26,2.28,2.28,0,0,0-1,.2.7.7,0,0,0-.39.68.78.78,0,0,0,.23.58,2.13,2.13,0,0,0,.65.41,8.1,8.1,0,0,0,1,.36L9.13,7a18.24,18.24,0,0,1,2.21.83A6.88,6.88,0,0,1,13,8.87a4.1,4.1,0,0,1,1.08,1.49,5.39,5.39,0,0,1,.38,2.13,5.6,5.6,0,0,1-.59,2.69,4.82,4.82,0,0,1-1.55,1.74,6.54,6.54,0,0,1-2.18.94,10.55,10.55,0,0,1-2.44.29,13.81,13.81,0,0,1-2-.15,17.31,17.31,0,0,1-2-.43,17.79,17.79,0,0,1-2-.65A12.44,12.44,0,0,1,0,16.06l2.1-4.28a14.68,14.68,0,0,0,1.83,1,13,13,0,0,0,1.81.68,7.23,7.23,0,0,0,2.06.3,2.1,2.1,0,0,0,1.11-.21A.65.65,0,0,0,9.23,13a.81.81,0,0,0-.31-.64,2.87,2.87,0,0,0-.86-.46q-.55-.2-1.26-.4T5.28,11a13,13,0,0,1-2-.86,5.48,5.48,0,0,1-1.4-1.05A3.75,3.75,0,0,1,1,7.73,5.21,5.21,0,0,1,.78,6a6,6,0,0,1,.54-2.6A5.34,5.34,0,0,1,2.78,1.53,6.55,6.55,0,0,1,4.89.39,8.05,8.05,0,0,1,7.4,0,9.55,9.55,0,0,1,9.3.19a15.24,15.24,0,0,1,1.79.48,17.16,17.16,0,0,1,1.61.63q.75.34,1.35.64ZM30,4.4H24.9v13.5H20V4.4H14.9V.15H30ZM34,.15h4.45l6.15,17.76h-5L38.6,14.43H33.87l-1.05,3.48h-5Zm3.8,11-1.58-5.5-1.65,5.5Zm7.71,6.73V.15h8.15a5.4,5.4,0,0,1,2.4.54A6.24,6.24,0,0,1,58,2.09a6.54,6.54,0,0,1,1.24,2,5.93,5.93,0,0,1,.45,2.24A6.32,6.32,0,0,1,59,9.19a5.89,5.89,0,0,1-1.88,2.19l3.75,6.53h-5.5l-3.13-5.45H50.41v5.45Zm4.88-9.7h3.08a1.08,1.08,0,0,0,.84-.5,2.24,2.24,0,0,0,.39-1.4,2,2,0,0,0-.45-1.41,1.26,1.26,0,0,0-.9-.49h-3ZM75.55,4.4h-5.1v13.5H65.57V4.4H60.45V.15H75.55Zm8.93,9.33a2.68,2.68,0,0,0,1.45-.38,3,3,0,0,0,1-1A4.54,4.54,0,0,0,87.46,11a7.84,7.84,0,0,0,.18-1.68V.15h4.88V9.28A12.21,12.21,0,0,1,92,12.74a7.52,7.52,0,0,1-1.48,2.79A7,7,0,0,1,88,17.38a8.69,8.69,0,0,1-3.56.68,8.48,8.48,0,0,1-3.64-.71,7,7,0,0,1-2.49-1.91,7.69,7.69,0,0,1-1.43-2.79,12.28,12.28,0,0,1-.45-3.36V.15h4.88V9.28A8,8,0,0,0,81.53,11a4.53,4.53,0,0,0,.55,1.43,2.91,2.91,0,0,0,1,1A2.69,2.69,0,0,0,84.48,13.73Zm10.67,4.18V.15h7.65a5.4,5.4,0,0,1,2.4.54,6.24,6.24,0,0,1,1.89,1.4,6.54,6.54,0,0,1,1.24,2,5.93,5.93,0,0,1,.45,2.24,6.51,6.51,0,0,1-1.61,4.26,5.66,5.66,0,0,1-1.85,1.38,5.53,5.53,0,0,1-2.39.51H100v5.45ZM100,8.2h2.58a1.14,1.14,0,0,0,.84-.41,2.18,2.18,0,0,0,.39-1.49,2,2,0,0,0-.45-1.5,1.37,1.37,0,0,0-.9-.4H100Z" fill="#fff"/><path d="M112,17.91V.15h4.88v13.5h8.05v4.25Zm13.93,0V.15h4.88V17.91Zm7.72,0V.15h12.18V4.4h-7.3v3h6v4h-6v6.6ZM160,13.65v4.25H147.35V.15h12.43V4.4h-7.55V6.9h6.45v4h-6.45v2.8Z" fill="#d0652b"/></g></g></svg>