<svg xmlns="http://www.w3.org/2000/svg" viewBox="0 0 24.13 28.5"><title>support</title><g id="Слой_2" data-name="Слой 2"><g id="Layer_1" data-name="Layer 1"><g id="Peoples"><path d="M6.36,20.45l-1,3.82A3,3,0,0,0,8.32,28H20.63a3,3,0,0,0,2.91-3.73l-1.43-5.74a1,1,0,0,0-.65-.71l-4.35-3" fill="none" stroke="#000" stroke-linecap="round" stroke-linejoin="round"/><line x1="11.81" y1="14.85" x2="7.67" y2="17.66" fill="none" stroke="#000" stroke-linecap="round" stroke-linejoin="round"/><rect x="9.47" y="1.59" width="10" height="13.92" rx="4.82" ry="4.82" fill="none" stroke="#000" stroke-linecap="round" stroke-linejoin="round"/><path d="M2.64,19.43C1.58,19.14.21,18.11.55,16.76l1-4.11A.72.72,0,0,1,2,12.14L5.16,10" fill="none" stroke="#000" stroke-linecap="round" stroke-linejoin="round"/><path d="M7.18.5H6.92A3.45,3.45,0,0,0,3.47,4V7a3.45,3.45,0,0,0,3.45,3.45h.26" fill="none" stroke="#000" stroke-linecap="round" stroke-linejoin="round"/><path d="M7.18.5a3.54,3.54,0,0,1,2.3.73" fill="none" stroke="#000" stroke-linecap="round" stroke-linejoin="round"/><path d="M6.62,20.37l1.29.33A1.38,1.38,0,1,0,8.59,18l-1.3-.33" fill="none" stroke="#000" stroke-linecap="round" stroke-linejoin="round"/><line x1="7.29" y1="17.68" x2="3.19" y2="16.49" fill="none" stroke="#000" stroke-linecap="round" stroke-linejoin="round"/><line x1="6.62" y1="20.37" x2="2.64" y2="19.43" fill="none" stroke="#000" stroke-linecap="round" stroke-linejoin="round"/></g></g></g></svg>