<svg xmlns="http://www.w3.org/2000/svg" viewBox="0 0 26.7 36"><title>team_icon</title><g id="Слой_2" data-name="Слой 2"><g id="Home"><g id="_Organizui" data-name="!!!!Organizui"><g id="InfoTabs"><path id="Layer_2" data-name="Layer 2" d="M10.22,20.44c.37,0,.64.09,1,.09l1,.28a2.45,2.45,0,0,0,1.1.28,2.84,2.84,0,0,0,1.2-.28,3.3,3.3,0,0,1,1-.37,3.45,3.45,0,0,1,1-.09h.92V22.1h-.92c-.37,0-.64-.09-1-.09a4.49,4.49,0,0,1-1-.37,2.55,2.55,0,0,0-1.2-.28,2.84,2.84,0,0,0-1.2.28,1.86,1.86,0,0,1-1,.28,3.45,3.45,0,0,1-1,.09H9.3V20.26ZM26.61,30.2,25.13,22c0-.28-.28-.46-.46-.55l-7-3.5v-.46a7.46,7.46,0,0,0,2.67-5.06V6.72c.18-3.59-3-6.54-6.54-6.72h-.46A6.63,6.63,0,0,0,6.44,6.72v5.71a6,6,0,0,0,3.13,5.06V18L2.12,21.54l-.28.28-.09.09L1.66,22a.09.09,0,0,1-.09.09v.09l-1.47,8a5,5,0,0,0,.92,4A4.55,4.55,0,0,0,4.42,36H22.28a4.45,4.45,0,0,0,3.41-1.75A5.27,5.27,0,0,0,26.61,30.2ZM7.82,12.43V6.72a5.41,5.41,0,0,1,5.52-5.16,5.47,5.47,0,0,1,5.52,5.16v5.71a5.41,5.41,0,0,1-5.52,5.16A5.47,5.47,0,0,1,7.82,12.43ZM24.4,33a2.53,2.53,0,0,1-2,1.1h-8.1V23.2a.92.92,0,0,0-1.84,0v11h-8a2.81,2.81,0,0,1-2-1.1,2.86,2.86,0,0,1-.55-2.39L3.13,23l7.18-3.68a7.29,7.29,0,0,0,5.89,0L23.48,23l1.38,7.64A3,3,0,0,1,24.4,33Zm-8.84-6.91a.55.55,0,1,1-.55.55A.59.59,0,0,1,15.56,26.06Zm0,4.05a.55.55,0,1,1-.55.55A.59.59,0,0,1,15.56,30.11Z" fill="#433e3d"/></g></g></g></g></svg>