<svg xmlns="http://www.w3.org/2000/svg" viewBox="0 0 29.65 24.71"><defs><style>.cls-1{fill:#fff;fill-rule:evenodd;}</style></defs><title>ic_tw</title><g id="Layer_2" data-name="Layer 2"><g id="Layer_1-2" data-name="Layer 1"><g id="TweetBtn"><path class="cls-1" d="M29.65,2.91a10.91,10.91,0,0,1-3.46,1A6.71,6.71,0,0,0,28.91.51,11,11,0,0,1,25.08,2a6.39,6.39,0,0,0-4.57-2,6.14,6.14,0,0,0-6.05,6.21,4.87,4.87,0,0,0,.12,1.39A16.76,16.76,0,0,1,2.1,1.14a5.55,5.55,0,0,0-.86,3.17A6.41,6.41,0,0,0,4,9.5a8.59,8.59,0,0,1-2.72-.76v.13A6.11,6.11,0,0,0,6.05,15a6.12,6.12,0,0,1-1.61.25,3.34,3.34,0,0,1-1.11-.13A5.88,5.88,0,0,0,9,19.38,12.16,12.16,0,0,1,1.48,22,5.87,5.87,0,0,1,0,21.92a17,17,0,0,0,9.26,2.79c11.24,0,17.29-9.5,17.29-17.74V6.21a12.91,12.91,0,0,0,3.09-3.29"/></g></g></g></svg>