<svg xmlns="http://www.w3.org/2000/svg" xmlns:xlink="http://www.w3.org/1999/xlink" viewBox="0 0 218.28 57.99"><defs><clipPath id="clip-path" transform="translate(0 0)"><rect width="218.28" height="57.99" fill="none"/></clipPath><clipPath id="clip-path-3" transform="translate(0 0)"><path d="M160.65,0V58L173,47.78l3.71-3.07L194.49,30l-7.36-8.91-15.8,13.07V10.87h20.14A16.14,16.14,0,0,1,207.6,27v1.56a16.14,16.14,0,0,1-16.14,16.14h-4.78V55.58h4.9a26.69,26.69,0,0,0,26.69-26.69V26.7A26.69,26.69,0,0,0,191.59,0Z" fill="none"/></clipPath><linearGradient id="Безымянный_градиент" x1="-182.09" y1="-251.39" x2="-181.09" y2="-251.39" gradientTransform="matrix(57.63, 0, 0, -57.63, 10654.69, -14458.95)" gradientUnits="userSpaceOnUse"><stop offset="0" stop-color="#7b4697"/><stop offset="1" stop-color="#e41760"/></linearGradient></defs><title>vd_logo_black</title><g id="Слой_2" data-name="Слой 2"><g id="Слой_1-2" data-name="Слой 1"><g id="Artwork_12" data-name="Artwork 12"><g clip-path="url(#clip-path)"><g clip-path="url(#clip-path)"><text transform="translate(0 23.98)" font-size="21.98" fill="#161d37" font-family="PFBagueSansPro-UltraBlack, PFBagueSansPro UltraBlack">VENTURE <tspan x="101.27" y="0" letter-spacing="-0.07em">D</tspan><tspan x="115.29" y="0" letter-spacing="-0.15em">A</tspan><tspan x="124.58" y="0">Y</tspan></text></g><text transform="translate(78.12 44.16)" font-size="21.98" fill="#161d37" font-family="PFBagueSansPro-UltraBlack, PFBagueSansPro UltraBlack">MINSK</text><g clip-path="url(#clip-path-3)"><rect x="160.65" width="57.63" height="57.99" fill="url(#Безымянный_градиент)"/></g></g></g></g></g></svg>