<svg xmlns="http://www.w3.org/2000/svg" xmlns:xlink="http://www.w3.org/1999/xlink" viewBox="0 0 150.48 40"><defs><linearGradient id="vd" x1="110.73" y1="20" x2="150.48" y2="20" gradientUnits="userSpaceOnUse"><stop offset="0" stop-color="#703f8a"/><stop offset="1" stop-color="#bf0055"/></linearGradient></defs><title>vd_logo</title><g id="Слой_2" data-name="Слой 2"><g id="Home"><path d="M5.37,10.17,6.81,6.54h3.88l-5,10.33H5.25L0,6.54H3.9c.62,1.8,1.23,3.14,1.41,3.63Zm6.15,6.37v-10h7.31V9.27H15.21v.83h3v2.61h-3v1.08H19v2.75Zm8.82,0V6.24h.36L26,10.3h.06V6.54h3.7v10.3h-.33l-5.35-4.29H24v4ZM39.44,9.27H36.89v7.27h-3.7V9.27h-2.5V6.54h8.75ZM49.87,6.54V12.2a4.57,4.57,0,0,1-1.2,3.31,4.72,4.72,0,0,1-3.56,1.24,4.8,4.8,0,0,1-3.61-1.2,4.42,4.42,0,0,1-1.15-3.22V6.54h3.72v5.87c0,.9.35,1.35,1.06,1.35a1.14,1.14,0,0,0,1-1.24v-6Zm11,10H57l-1.61-3.91v-.26a1.79,1.79,0,0,0,1.06-1.7c0-.74-.36-1.4-1.14-1.4h-.3v7.27H51.38v-10h4.69a4.46,4.46,0,0,1,2.9.94A3.09,3.09,0,0,1,60.12,10a3.32,3.32,0,0,1-1.18,2.62Zm.8,0v-10H69V9.27H65.38v.83h3v2.61h-3v1.08h3.78v2.75Zm12.48,0v-10h4A5.56,5.56,0,0,1,82.31,8a4.8,4.8,0,0,1,1.41,3.53,4.88,4.88,0,0,1-5.28,5Zm3.67-7.27v4.52h.42c1.2,0,1.85-.86,1.85-2.32s-.62-2.2-1.85-2.2Zm12.49,7.27-.3-.79H87.09l-.32.79h-3.5L88.5,6.24h.36L94,16.54Zm-1.76-4.35-.68,1.53h1.38l-.64-1.53Zm6.49.9L91.83,6.54h4l.76,2.15q.18.52.41,1.36H97a10.67,10.67,0,0,1,.36-1.33l.71-2.18h4l-3.32,6.54v3.46H95.06ZM60,24.85l5.07-4.67h.33V30.46H61.85V27h-.06l-1.56,1.7h-.39L58.17,27h-.06v3.43H54.56V20.18h.35Zm10.61-4.38v10h-3.7v-10Zm1.52,10V20.16h.36l5.31,4.06h.06V20.46h3.7v10.3h-.33L75.9,26.47h-.06v4Zm18.09-6.81a6,6,0,0,0-1.33-.56,5.09,5.09,0,0,0-1.5-.27c-.59,0-.88.14-.88.42,0,.9,4.37.91,4.37,4.32a3,3,0,0,1-.85,2,4.39,4.39,0,0,1-3.28,1.12,8.35,8.35,0,0,1-4-.83V26.79a5.08,5.08,0,0,0,1.64.83A6.24,6.24,0,0,0,86.3,28c.61,0,.91-.15.91-.47,0-1.18-4.37-1.2-4.37-4.31,0-1.38,1-3,4-3a9.17,9.17,0,0,1,3.44.68Zm5.56-3.19v4.44l2.32-4.44H102l-2.84,4.82,2.9,5.17H98.14L95.8,25.7v4.76H92.1v-10Z" fill="#fff"/><path d="M132.07,0H110.73V40l8.52-7,2.56-2.11h0L134.07,20.7,129,14.55l-10.9,9V7.5H132a11.13,11.13,0,0,1,11.13,11.13v1.08A11.13,11.13,0,0,1,132,30.84h-3.3v7.5h3.38a18.41,18.41,0,0,0,18.41-18.41V18.41A18.41,18.41,0,0,0,132.07,0Z" fill="url(#vd)"/></g></g></svg>