<svg xmlns="http://www.w3.org/2000/svg" viewBox="0 0 45.99 26.28"><defs><style>.cls-1{fill:#fff;}</style></defs><title>ic_vk</title><g id="Layer_2" data-name="Layer 2"><g id="Layer_1-2" data-name="Layer 1"><path class="cls-1" d="M27.18,12.09c.34.84,1,1,1.62.42a13.07,13.07,0,0,0,1.83-2A35.35,35.35,0,0,0,35,2.5,4.13,4.13,0,0,1,35.2,2a1.37,1.37,0,0,1,1.3-.72c2.5,0,5,0,7.49,0a5.38,5.38,0,0,1,1.34.19.83.83,0,0,1,.65.92,4.34,4.34,0,0,1-.57,1.89,35.8,35.8,0,0,1-3.6,5.45Q40.39,11.56,39,13.46a3.49,3.49,0,0,0-.33.61,1.6,1.6,0,0,0,.17,1.81,23.12,23.12,0,0,0,1.7,1.8A36.33,36.33,0,0,1,44.7,22.1a15.31,15.31,0,0,1,1,1.56,2.59,2.59,0,0,1,.26.79,1.14,1.14,0,0,1-.54,1.23,3,3,0,0,1-1.62.49c-1.87,0-3.74,0-5.6.1a5.87,5.87,0,0,1-4.87-2.14c-.87-.92-1.7-1.89-2.57-2.82a6.15,6.15,0,0,0-.84-.74,1.44,1.44,0,0,0-2.4.58,6.74,6.74,0,0,0-.6,2.46c0,.3,0,.61,0,.91a1.52,1.52,0,0,1-1.57,1.62A22,22,0,0,1,19,25.73a17.08,17.08,0,0,1-8-4.85,43.46,43.46,0,0,1-5.52-7.6A92.29,92.29,0,0,1,.23,3.12C-.3,1.91.09,1.29,1.42,1.24c.71,0,1.42,0,2.14,0l4.16,0a2,2,0,0,1,2,1.35,41.63,41.63,0,0,0,4.43,8.16,17.72,17.72,0,0,0,1.27,1.53,2.55,2.55,0,0,0,.57.46,1,1,0,0,0,1.55-.5A7.63,7.63,0,0,0,18,10.46a23.62,23.62,0,0,0-.07-5.93,4.35,4.35,0,0,0-.6-1.62A2.49,2.49,0,0,0,15.6,2c-.41-.09-.44-.18-.19-.52A3,3,0,0,1,17.46.29a24.66,24.66,0,0,1,7.39,0c1.57.24,2,.76,2.08,2.35.06,1.3,0,2.61,0,3.92A50.39,50.39,0,0,0,27.18,12.09Z"/></g></g></svg>