<svg xmlns="http://www.w3.org/2000/svg" viewBox="0 0 178.14 176.2"><title>widget_in</title><path d="M88.8,176.2h-76C5,176.19.51,171.88,0,164.09c-.06-1,0-2,0-3v-145A26.3,26.3,0,0,1,1,8.76,11.91,11.91,0,0,1,12.51,0h152c6.6,0,10.8,2.77,12.88,8.85a20,20,0,0,1,.72,6.37q.06,56.74,0,113.48v33.49a21,21,0,0,1-.84,5.87c-1.79,5.92-4.81,8.11-10.95,8.12q-38.78,0-77.52,0ZM70.11,108.67v37.47c0,3.85.1,3.91,3.93,4,5.49.06,11,0,16.48,0,4.44,0,4.5-.07,4.51-4.39,0-11.32-.07-22.65.06-34a97.69,97.69,0,0,1,1-11.38c1.12-8.65,7.84-14,16.26-13.4,5.94.43,9.89,2.68,11.62,8.35a41.32,41.32,0,0,1,2,11.2c.23,13.48.1,27,.06,40.46,0,3.06-.1,3.1,3.07,3.12q8.74,0,17.48,0c4.39,0,4.45-.07,4.46-4.44,0-16.15.11-32.3-.09-48.45a45.77,45.77,0,0,0-3.19-16.52c-3-7.58-8.23-13-16.47-14.44-4.54-.82-9.22-.8-13.84-1.13-3.6-.26-6.84.92-10.09,2.32-4.61,2-7.85,5.5-11,9.18a6,6,0,0,1-1.51.94,5.58,5.58,0,0,1-.71-1.7c-.1-1.83,0-3.66-.07-5.49-.13-2.95-.27-3.18-3.14-3.23-5.49-.09-11-.06-16.48,0-4.24,0-4.29.08-4.3,4.59C70.09,84,70.11,96.35,70.11,108.67Zm-43-.58V146c.07,4,.09,4.06,4.28,4.09q8.48.06,17,0c4.48,0,4.48-.06,4.56-4.31V72c0-4.8,0-4.82-5-4.84h-16c-4.78,0-4.81,0-4.81,5.06q0,17.94,0,35.9ZM40,54.11C46.69,55,55,49,55,39.54A14.69,14.69,0,0,0,40.19,25h-.33c-8.33.46-14.62,6.24-14.72,14.43C25,47.81,31.42,54.1,40,54.11Z" style="fill:#0274b3"/></svg>