<svg xmlns="http://www.w3.org/2000/svg" viewBox="0 0 215.24 176.17"><title>widget_twitter</title><path d="M.22,156.19c23.51,2.1,44.72-3.74,64.25-18.25-20.2-2.2-33.83-12.07-41.18-31.17H41.85l.24-1A45.15,45.15,0,0,1,17.49,90,43.78,43.78,0,0,1,7.81,62c6.07,2.92,12,5,18.64,4.89-8.89-7.09-15-15.91-17.28-27a44,44,0,0,1,5-31.67c24.2,28.08,54.19,43.75,91.31,46.34-.26-2.75-.56-5.08-.7-7.42C102.9,16.83,131.31-6.29,160.63,1.53A44.16,44.16,0,0,1,180,12.36a3.47,3.47,0,0,0,4.08,1c7.17-2.7,14.38-5.3,21.57-8a37,37,0,0,0,3.42-1.59c-.41,6.09-6.58,14.49-16.73,23l.15.79c3.7-.83,7.43-1.52,11.08-2.52A114.11,114.11,0,0,1,215.24,22c-3.08,3.7-6,7.6-9.3,11s-7.06,6.22-10.46,9.47A5.51,5.51,0,0,0,193.81,46a130.28,130.28,0,0,1-8.23,47.74,128.61,128.61,0,0,1-30.5,47.34,118.44,118.44,0,0,1-58.17,31.73c-24.93,5.53-49.53,4.3-73.49-4.7-8-3-15.63-7.14-23.42-10.76Z" style="fill:#41abe1"/></svg>